<?xml version="1.0" encoding="UTF-8" standalone="no"?>
<!-- Created with Inkscape (http://www.inkscape.org/) -->

<svg
   width="1000"
   height="885.89801"
   viewBox="0 0 264.58333 234.39385"
   version="1.1"
   id="svg1"
   inkscape:version="1.4 (e7c3feb100, 2024-10-09)"
   sodipodi:docname="brookshear-2020-figure-1-2.svg"
   inkscape:export-filename="brookshear-2020-figure-1-2-rgb-96-dpi.png"
   inkscape:export-xdpi="96"
   inkscape:export-ydpi="96"
   xmlns:inkscape="http://www.inkscape.org/namespaces/inkscape"
   xmlns:sodipodi="http://sodipodi.sourceforge.net/DTD/sodipodi-0.dtd"
   xmlns="http://www.w3.org/2000/svg"
   xmlns:svg="http://www.w3.org/2000/svg">
  <sodipodi:namedview
     id="namedview1"
     pagecolor="#505050"
     bordercolor="#eeeeee"
     borderopacity="1"
     inkscape:showpageshadow="0"
     inkscape:pageopacity="0"
     inkscape:pagecheckerboard="0"
     inkscape:deskcolor="#505050"
     inkscape:document-units="px"
     inkscape:zoom="0.71713664"
     inkscape:cx="396.71658"
     inkscape:cy="449.70509"
     inkscape:window-width="1920"
     inkscape:window-height="1020"
     inkscape:window-x="0"
     inkscape:window-y="28"
     inkscape:window-maximized="1"
     inkscape:current-layer="layer1" />
  <defs
     id="defs1">
    <clipPath
       clipPathUnits="userSpaceOnUse"
       id="clipPath38">
      <path
         d="M 142.123,428.241 H 439.876 V 693 H 142.123 Z"
         transform="matrix(1,0,0,-1,-142.1235,686.11211)"
         id="path38" />
    </clipPath>
    <clipPath
       clipPathUnits="userSpaceOnUse"
       id="clipPath43">
      <path
         d="M 142.123,428.241 H 439.876 V 693 H 142.123 Z"
         transform="matrix(1,0,0,-1,-142.1235,659.62721)"
         id="path43" />
    </clipPath>
    <clipPath
       clipPathUnits="userSpaceOnUse"
       id="clipPath57">
      <path
         d="M 142.123,428.241 H 439.876 V 693 H 142.123 Z"
         transform="matrix(1,0,0,-1,-142.1235,544.98901)"
         id="path57" />
    </clipPath>
    <clipPath
       clipPathUnits="userSpaceOnUse"
       id="clipPath62">
      <path
         d="M 142.123,428.241 H 439.876 V 693 H 142.123 Z"
         transform="translate(-201.11281,-428.24101)"
         id="path62" />
    </clipPath>
    <clipPath
       clipPathUnits="userSpaceOnUse"
       id="clipPath71">
      <path
         d="M 142.123,428.241 H 439.876 V 693 H 142.123 Z"
         transform="matrix(1,0,0,-1,-324.28711,686.11211)"
         id="path71" />
    </clipPath>
    <clipPath
       clipPathUnits="userSpaceOnUse"
       id="clipPath74">
      <path
         d="M 142.123,428.241 H 439.876 V 693 H 142.123 Z"
         transform="matrix(1,0,0,-1,-418.54101,659.62721)"
         id="path74" />
    </clipPath>
    <clipPath
       clipPathUnits="userSpaceOnUse"
       id="clipPath94">
      <path
         d="M 142.123,428.241 H 439.876 V 693 H 142.123 Z"
         transform="translate(-396.71581,-662.56132)"
         id="path94" />
    </clipPath>
    <clipPath
       clipPathUnits="userSpaceOnUse"
       id="clipPath96">
      <path
         d="M 142.123,428.241 H 439.876 V 693 H 142.123 Z"
         transform="translate(-394.76561,-662.56811)"
         id="path96" />
    </clipPath>
    <clipPath
       clipPathUnits="userSpaceOnUse"
       id="clipPath98">
      <path
         d="M 142.123,428.241 H 439.876 V 693 H 142.123 Z"
         transform="translate(-188.0503,-673.20341)"
         id="path98" />
    </clipPath>
    <clipPath
       clipPathUnits="userSpaceOnUse"
       id="clipPath100">
      <path
         d="M 142.123,428.241 H 439.876 V 693 H 142.123 Z"
         transform="translate(-189.72951,-671.66582)"
         id="path100" />
    </clipPath>
    <clipPath
       clipPathUnits="userSpaceOnUse"
       id="clipPath102">
      <path
         d="M 142.123,428.241 H 439.876 V 693 H 142.123 Z"
         transform="translate(-371.73041,-517.28981)"
         id="path102" />
    </clipPath>
    <clipPath
       clipPathUnits="userSpaceOnUse"
       id="clipPath104">
      <path
         d="M 142.123,428.241 H 439.876 V 693 H 142.123 Z"
         transform="translate(-373.05861,-519.70102)"
         id="path104" />
    </clipPath>
    <clipPath
       clipPathUnits="userSpaceOnUse"
       id="clipPath106">
      <path
         d="M 142.123,428.241 H 439.876 V 693 H 142.123 Z"
         transform="translate(-388.63771,-524.34061)"
         id="path106" />
    </clipPath>
    <clipPath
       clipPathUnits="userSpaceOnUse"
       id="clipPath108">
      <path
         d="M 142.123,428.241 H 439.876 V 693 H 142.123 Z"
         transform="translate(-388.58101,-524.69021)"
         id="path108" />
    </clipPath>
    <clipPath
       clipPathUnits="userSpaceOnUse"
       id="clipPath111">
      <path
         d="M 142.123,428.241 H 439.876 V 693 H 142.123 Z"
         transform="matrix(1.3333333,0,0,-1.3333333,0,1064)"
         id="path111" />
    </clipPath>
    <clipPath
       clipPathUnits="userSpaceOnUse"
       id="clipPath109">
      <path
         d="m 385.927,524.28 h 1.324 v 1.324 h -1.324 z"
         transform="translate(-387.25091,-524.94221)"
         id="path109" />
    </clipPath>
    <clipPath
       clipPathUnits="userSpaceOnUse"
       id="clipPath113">
      <path
         d="M 142.123,428.241 H 439.876 V 693 H 142.123 Z"
         transform="translate(-388.57911,-524.30152)"
         id="path113" />
    </clipPath>
    <clipPath
       clipPathUnits="userSpaceOnUse"
       id="clipPath115">
      <path
         d="M 142.123,428.241 H 439.876 V 693 H 142.123 Z"
         transform="translate(-214.56391,-524.39041)"
         id="path115" />
    </clipPath>
    <clipPath
       clipPathUnits="userSpaceOnUse"
       id="clipPath117">
      <path
         d="M 142.123,428.241 H 439.876 V 693 H 142.123 Z"
         transform="translate(-212.61421,-524.39731)"
         id="path117" />
    </clipPath>
    <clipPath
       clipPathUnits="userSpaceOnUse"
       id="clipPath119">
      <path
         d="M 142.123,428.241 H 439.876 V 693 H 142.123 Z"
         transform="translate(-186.3354,-524.32991)"
         id="path119" />
    </clipPath>
    <clipPath
       clipPathUnits="userSpaceOnUse"
       id="clipPath121">
      <path
         d="M 142.123,428.241 H 439.876 V 693 H 142.123 Z"
         transform="translate(-184.3354,-513.53692)"
         id="path121" />
    </clipPath>
  </defs>
  <g
     inkscape:label="Layer 1"
     inkscape:groupmode="layer"
     id="layer1">
    <g
       id="group-MC1"
       transform="matrix(0.66654201,0,0,0.66654201,-126.32794,-94.219361)">
      <path
         id="path37"
         d="M 1.2524766,-2.046875e-4 1.5806016,-1.2775484 H 3.2329453 L 3.5493516,-2.046875e-4 H 4.8266953 L 3.2563828,-5.7775484 h -1.59375 L 0.05716406,-2.046875e-4 Z M 2.9751328,-2.1681734 H 1.8266953 l 0.5507813,-2.4960938 h 0.011719 z m 3.553711,2.1679687125 V -4.2306734 h 0.011719 l 1.5820313,4.2304687125 h 1.59375 V -5.7775484 h -1.125 v 3.9960937 H 8.5679063 L 7.03275,-5.7775484 H 5.4038438 v 5.7773437125 z m 4.2216792,0 h 1.96875 c 2.0625,0 1.933594,-2.0273437125 1.933594,-2.9179687125 0,-1.8046875 -0.304687,-2.859375 -1.886719,-2.859375 H 10.750523 Z M 11.957555,-4.8869234 h 0.621093 c 0.84375,0 0.84375,0.9375 0.84375,1.9921875 0,1.453125 -0.140625,2.00390621 -0.878906,2.00390621 h -0.585937 z m 0,0"
         style="fill:#231f20;fill-opacity:1;fill-rule:nonzero;stroke:none"
         aria-label="AND"
         transform="matrix(1.3333333,0,0,1.3333333,189.498,149.18387)"
         clip-path="url(#clipPath38)" />
      <path
         id="path39"
         d="M 0,0 H 19.109"
         style="fill:none;stroke:#231f20;stroke-width:0.5;stroke-linecap:butt;stroke-linejoin:miter;stroke-miterlimit:4;stroke-dasharray:none;stroke-opacity:1"
         transform="matrix(1.3333333,0,0,-1.3333333,279.3392,179.78867)" />
      <path
         id="path40"
         d="M 0,0 H 20.057"
         style="fill:none;stroke:#231f20;stroke-width:0.5;stroke-linecap:butt;stroke-linejoin:miter;stroke-miterlimit:4;stroke-dasharray:none;stroke-opacity:1"
         transform="matrix(1.3333333,0,0,-1.3333333,226.14907,170.60373)" />
      <path
         id="path41"
         d="M 0,0 H 18.595"
         style="fill:none;stroke:#231f20;stroke-width:0.5;stroke-linecap:butt;stroke-linejoin:miter;stroke-miterlimit:4;stroke-dasharray:none;stroke-opacity:1"
         transform="matrix(1.3333333,0,0,-1.3333333,226.14907,190.46573)" />
      <path
         id="path42"
         d="M 1.4751328,-5.7780734 H 0.74857031 V -7.296875e-4 H 1.4751328 Z m 4.171875,5.7773437125 V -2.8015109 c 0,-0.796875 -0.2109375,-1.3242188 -1.078125,-1.3242188 -0.515625,0 -0.8203125,0.1523438 -1.078125,0.5976563 h -0.035156 v -0.515625 H 2.7641953 c 0.023437,0.28125 0.035156,0.5625 0.035156,0.84375 v 3.1992187125 h 0.65625 V -2.3913547 c 0,-0.5507812 0.1054687,-1.1953125 0.8320312,-1.1953125 0.5507813,0 0.703125,0.3515625 0.703125,0.7851563 V -7.296875e-4 Z M 7.5132188,-4.0436984 h -0.65625 v 5.5664062 h 0.65625 v -1.93359374 h 0.023437 c 0.2226562,0.31640625 0.5039062,0.4921875 0.890625,0.4921875 1.3007812,0 1.3359375,-1.16015626 1.3359375,-2.16796876 0,-1.78125 -0.65625,-2.0390625 -1.3007813,-2.0390625 -0.4335937,0 -0.7148437,0.1875 -0.9375,0.5625 H 7.513218 Z m 0.7617187,3.58593746 c -0.7265625,0 -0.7617187,-0.85546876 -0.7617187,-1.39453126 0,-0.609375 -0.070312,-1.734375 0.7382812,-1.734375 0.8203125,0 0.8203125,0.890625 0.8203125,1.5 0,1.078125 -0.09375,1.62890626 -0.796875,1.62890626 z M 12.965367,-1.3601047 c 0,0.66796876 -0.445312,0.93750001 -0.796875,0.93750001 -0.46875,0 -0.691406,-0.328125 -0.691406,-0.82031251 v -2.8007812 h -0.65625 v 3.08203121 c 0,0.69140625 0.386719,1.04296875 1.089844,1.04296875 0.421875,0 0.808593,-0.19921875 1.03125,-0.57421875 h 0.02344 v 0.4921875025 h 0.691406 C 13.633336,-0.28197969 13.621617,-0.56322969 13.621617,-0.84447969 V -4.0436984 h -0.65625 z m 1.248047,-2.6835937 v 0.4921875 h 0.65625 v 2.88281246 c 0,0.45703125 0.28125,0.71484375 0.914063,0.71484375 0.210937,0 0.421875,-0.0468749975 0.644531,-0.05859375 v -0.50390625 c -0.140625,0.0117188 -0.246094,0.0234375 -0.292969,0.0234375 -0.609375,0 -0.609375,-0.328125 -0.609375,-0.58593751 v -2.4726562 h 0.878906 v -0.4921875 h -0.878906 v -1.0664063 l -0.65625,0.2929688 v 0.7734375 z m 5.411133,2.8945312 c 0,-1.2421875 -2.015625,-1.21875 -2.015625,-1.9335937 0,-0.3515625 0.269531,-0.5390625 0.621094,-0.5390625 0.421875,0 0.644531,0.2226562 0.632812,0.6445312 h 0.726563 c 0.05859,-0.796875 -0.550782,-1.1484375 -1.277344,-1.1484375 -1.136719,0 -1.394531,0.6796875 -1.394531,1.1132813 0,1.2070312 2.015625,1.21875 2.015625,1.9335937 0,0.42187501 -0.304688,0.62109376 -0.691407,0.62109376 -0.667968,0 -0.667968,-0.5390625 -0.667968,-0.77343746 h -0.75 c -0.02344,0.92578121 0.515625,1.31249996 1.394531,1.31249996 0.796875,0 1.40625,-0.3515625 1.40625,-1.23046876 z m 0,0"
         style="fill:#231f20;fill-opacity:1;fill-rule:nonzero;stroke:none"
         aria-label="Inputs"
         transform="matrix(1.3333333,0,0,1.3333333,189.498,184.49707)"
         clip-path="url(#clipPath43)" />
      <path
         id="path44"
         d="m 2.4366063,0.11645781 c 1.2304687,0 1.8164062,-0.6328125 1.8164062,-2.22656251 v -1.8984375 c 0,-1.1601562 -0.5859375,-1.8867187 -1.8164062,-1.8867187 -1.21875,0 -1.8164063,0.7265625 -1.8164063,1.8867187 v 1.8984375 c 0,1.59375001 0.5976563,2.22656251 1.8164063,2.22656251 z m 0,-0.609375 C 1.7452,-0.49291719 1.3702,-0.82104219 1.3702,-2.0866672 v -1.9453125 c 0,-1.2070312 0.84375,-1.2539062 1.0664063,-1.2539062 0.234375,0 1.0664062,0.046875 1.0664062,1.2539062 v 1.9453125 c 0,1.26562501 -0.3632812,1.59375001 -1.0664062,1.59375001 z M 7.6309422,-1.3601047 c 0,0.66796876 -0.4453125,0.93750001 -0.796875,0.93750001 -0.46875,0 -0.6914063,-0.328125 -0.6914063,-0.82031251 v -2.8007812 h -0.65625 v 3.08203121 c 0,0.69140625 0.3867188,1.04296875 1.0898438,1.04296875 0.421875,0 0.8085937,-0.19921875 1.03125,-0.57421875 h 0.023437 V -7.296875e-4 H 8.3223484 C 8.2989109,-0.28197969 8.2871922,-0.56322969 8.2871922,-0.84447969 V -4.0436984 h -0.65625 z m 1.2451172,-2.6835937 v 0.4921875 h 0.65625 v 2.88281246 c 0,0.45703125 0.28125,0.71484375 0.9140626,0.71484375 0.210937,0 0.421875,-0.0468749975 0.644531,-0.05859375 v -0.50390625 c -0.140625,0.0117188 -0.246094,0.0234375 -0.292969,0.0234375 -0.609375,0 -0.609375,-0.328125 -0.609375,-0.58593751 v -2.4726562 h 0.878907 v -0.4921875 h -0.878907 v -1.0664063 l -0.6562496,0.2929688 v 0.7734375 z m 3.5244136,0 h -0.65625 v 5.5664062 h 0.65625 v -1.93359374 h 0.02344 c 0.222656,0.31640625 0.503906,0.4921875 0.890625,0.4921875 1.300781,0 1.335937,-1.16015626 1.335937,-2.16796876 0,-1.78125 -0.65625,-2.0390625 -1.300781,-2.0390625 -0.433594,0 -0.714844,0.1875 -0.9375,0.5625 h -0.01172 z m 0.761719,3.58593746 c -0.726562,0 -0.761719,-0.85546876 -0.761719,-1.39453126 0,-0.609375 -0.07031,-1.734375 0.738282,-1.734375 0.820312,0 0.820312,0.890625 0.820312,1.5 0,1.078125 -0.09375,1.62890626 -0.796875,1.62890626 z m 4.69336,-0.90234376 c 0,0.66796876 -0.445313,0.93750001 -0.796875,0.93750001 -0.46875,0 -0.691407,-0.328125 -0.691407,-0.82031251 v -2.8007812 h -0.65625 v 3.08203121 c 0,0.69140625 0.386719,1.04296875 1.089844,1.04296875 0.421875,0 0.808594,-0.19921875 1.03125,-0.57421875 h 0.02344 V -7.296875e-4 H 18.54696 C 18.52352,-0.28197969 18.511802,-0.56322969 18.511802,-0.84447969 V -4.0436984 h -0.65625 z m 1.245117,-2.6835937 v 0.4921875 h 0.65625 v 2.88281246 c 0,0.45703125 0.28125,0.71484375 0.914062,0.71484375 0.210938,0 0.421875,-0.0468749975 0.644532,-0.05859375 v -0.50390625 c -0.140625,0.0117188 -0.246094,0.0234375 -0.292969,0.0234375 -0.609375,0 -0.609375,-0.328125 -0.609375,-0.58593751 v -2.4726562 h 0.878906 v -0.4921875 h -0.878906 v -1.0664063 l -0.65625,0.2929688 v 0.7734375 z m 0,0"
         style="fill:#231f20;fill-opacity:1;fill-rule:nonzero;stroke:none"
         aria-label="Output"
         transform="matrix(1.3333333,0,0,1.3333333,308.17307,184.49707)" />
      <path
         id="path45"
         d="m 242.204,566.365 h -82.181 v 68.481 h 82.181 z"
         style="fill:#cad5af;fill-opacity:1;fill-rule:nonzero;stroke:none"
         transform="matrix(1.3333333,0,0,-1.3333333,0,1064)" />
      <path
         id="path46"
         d="M 0,0 H 82.181"
         style="fill:none;stroke:#ffffff;stroke-width:1;stroke-linecap:butt;stroke-linejoin:miter;stroke-miterlimit:4;stroke-dasharray:none;stroke-opacity:1"
         transform="matrix(1.3333333,0,0,-1.3333333,213.3632,244.45533)" />
      <path
         id="path47"
         d="M 0,0 V 68.481"
         style="fill:none;stroke:#ffffff;stroke-width:1;stroke-linecap:butt;stroke-linejoin:miter;stroke-miterlimit:4;stroke-dasharray:none;stroke-opacity:1"
         transform="matrix(1.3333333,0,0,-1.3333333,268.1504,308.84733)" />
      <path
         id="path48"
         d="M 1.4775312,-5.7785578 H 0.75096875 v 5.77734374 H 1.4775312 Z m 4.1689454,5.77734374 V -2.8019953 c 0,-0.796875 -0.2109375,-1.3242188 -1.078125,-1.3242188 -0.515625,0 -0.8203125,0.1523438 -1.078125,0.5976563 h -0.035156 v -0.515625 H 2.7636641 c 0.023437,0.28125 0.035156,0.5625 0.035156,0.84375 v 3.19921874 h 0.65625 V -2.3918391 c 0,-0.5507812 0.1054688,-1.1953125 0.8320313,-1.1953125 0.5507812,0 0.703125,0.3515625 0.703125,0.7851563 v 2.80078124 z M 7.5126875,-4.0441828 h -0.65625 v 5.5664062 h 0.65625 v -1.93359371 h 0.023437 c 0.2226562,0.31640625 0.5039062,0.4921875 0.890625,0.4921875 1.3007812,0 1.3359375,-1.16015629 1.3359375,-2.16796879 0,-1.78125 -0.65625,-2.0390625 -1.3007813,-2.0390625 -0.4335937,0 -0.7148437,0.1875 -0.9375,0.5625 h -0.011719 z m 0.7617187,3.58593749 c -0.7265625,0 -0.7617187,-0.85546879 -0.7617187,-1.39453129 0,-0.609375 -0.070312,-1.734375 0.7382812,-1.734375 0.8203125,0 0.8203125,0.890625 0.8203125,1.5 0,1.078125 -0.09375,1.62890629 -0.796875,1.62890629 z M 12.964836,-1.3605891 c 0,0.66796879 -0.445313,0.93750004 -0.796875,0.93750004 -0.46875,0 -0.691406,-0.328125 -0.691406,-0.82031254 v -2.8007812 h -0.65625 v 3.08203124 c 0,0.69140625 0.386718,1.04296875 1.089843,1.04296875 0.421875,0 0.808594,-0.19921875 1.03125,-0.57421875 h 0.02344 v 0.4921875 h 0.691406 c -0.02344,-0.28125 -0.03516,-0.5625 -0.03516,-0.84375 V -4.0441828 h -0.65625 z m 1.248047,-2.6835937 v 0.4921875 h 0.65625 v 2.88281249 c 0,0.45703125 0.28125,0.71484375 0.914062,0.71484375 0.210938,0 0.421875,-0.046875 0.644532,-0.05859375 v -0.50390625 c -0.140625,0.0117188 -0.246094,0.0234375 -0.292969,0.0234375 -0.609375,0 -0.609375,-0.328125 -0.609375,-0.58593754 v -2.4726562 h 0.878906 v -0.4921875 h -0.878906 v -1.0664063 l -0.65625,0.2929688 v 0.7734375 z m 5.411133,2.8945312 c 0,-1.2421875 -2.015625,-1.21875 -2.015625,-1.9335937 0,-0.3515625 0.269531,-0.5390625 0.621093,-0.5390625 0.421875,0 0.644532,0.2226562 0.632813,0.6445312 h 0.726562 c 0.05859,-0.796875 -0.550781,-1.1484375 -1.277343,-1.1484375 -1.136719,0 -1.394532,0.6796875 -1.394532,1.1132813 0,1.2070312 2.015625,1.21875 2.015625,1.9335937 0,0.42187504 -0.304687,0.62109379 -0.691406,0.62109379 -0.667969,0 -0.667969,-0.5390625 -0.667969,-0.77343749 h -0.75 c -0.02344,0.92578124 0.515625,1.31249999 1.394532,1.31249999 0.796875,0 1.40625,-0.3515625 1.40625,-1.23046879 z m 0,0"
         style="fill:#231f20;fill-opacity:1;fill-rule:nonzero;stroke:none"
         aria-label="Inputs"
         transform="matrix(1.3333333,0,0,1.3333333,227.38933,233.5524)" />
      <path
         id="path49"
         d="m 4.792275,-3.1750422 c 0,-0.7148437 0,-3.2929687 -2.0976562,-3.2929687 -2.0976563,0 -2.0976563,2.6015625 -2.0976563,3.2929687 0,0.7617188 0.0117188,3.28125001 2.0976563,3.28125001 2.0976562,0 2.0976562,-2.58984371 2.0976562,-3.28125001 z m -0.8085937,0 c 0,1.1015625 -0.1171875,2.63671876 -1.2890625,2.63671876 -1.171875,0 -1.2773438,-1.57031246 -1.2773438,-2.63671876 0,-1.2773437 0.1757813,-2.6484375 1.2773438,-2.6484375 1.171875,0 1.2890625,1.5234375 1.2890625,2.6484375 z m 11.6103517,0 c 0,-0.7148437 0,-3.2929687 -2.097656,-3.2929687 -2.097657,0 -2.097657,2.6015625 -2.097657,3.2929687 0,0.7617188 0.01172,3.28125001 2.097657,3.28125001 2.097656,0 2.097656,-2.58984371 2.097656,-3.28125001 z m -0.808594,0 c 0,1.1015625 -0.117187,2.63671876 -1.289062,2.63671876 -1.171875,0 -1.277344,-1.57031246 -1.277344,-2.63671876 0,-1.2773437 0.175781,-2.6484375 1.277344,-2.6484375 1.171875,0 1.289062,1.5234375 1.289062,2.6484375 z M 4.792275,7.3278875 c 0,-0.7148438 0,-3.2929688 -2.0976562,-3.2929688 -2.0976563,0 -2.0976563,2.6015625 -2.0976563,3.2929688 0,0.7617187 0.0117188,3.2812495 2.0976563,3.2812495 2.0976562,0 2.0976562,-2.5898433 2.0976562,-3.2812495 z m -0.8085937,0 c 0,1.1015625 -0.1171875,2.6367187 -1.2890625,2.6367187 -1.171875,0 -1.2773438,-1.5703125 -1.2773438,-2.6367187 0,-1.2773438 0.1757813,-2.6484375 1.2773438,-2.6484375 1.171875,0 1.2890625,1.5234375 1.2890625,2.6484375 z M 14.176064,4.0349187 h -0.515625 c -0.316406,0.65625 -1.101562,1.265625 -1.863281,1.6171875 V 6.413825 c 0.292969,-0.1054688 1.078125,-0.46875 1.582031,-0.9492188 v 5.0390628 h 0.796875 z M 3.3743063,14.537848 H 2.8586813 C 2.542275,15.194098 1.7571188,15.803473 0.9954,16.155036 v 0.761719 c 0.2929688,-0.105469 1.078125,-0.46875 1.5820313,-0.949219 v 5.039062 h 0.796875 z m 12.2197267,3.292969 c 0,-0.714844 0,-3.292969 -2.097656,-3.292969 -2.097657,0 -2.097657,2.601563 -2.097657,3.292969 0,0.761719 0.01172,3.28125 2.097657,3.28125 2.097656,0 2.097656,-2.589844 2.097656,-3.28125 z m -0.808594,0 c 0,1.101563 -0.117187,2.636719 -1.289062,2.636719 -1.171875,0 -1.277344,-1.570313 -1.277344,-2.636719 0,-1.277344 0.175781,-2.648437 1.277344,-2.648437 1.171875,0 1.289062,1.523437 1.289062,2.648437 z M 3.3743063,25.040778 H 2.8586813 C 2.542275,25.697028 1.7571188,26.306403 0.9954,26.657966 v 0.761718 c 0.2929688,-0.105468 1.078125,-0.46875 1.5820313,-0.949218 v 5.039062 h 0.796875 z m 10.8017577,0 h -0.515625 c -0.316406,0.65625 -1.101562,1.265625 -1.863281,1.617188 v 0.761718 c 0.292969,-0.105468 1.078125,-0.46875 1.582031,-0.949218 v 5.039062 h 0.796875 z m 0,0"
         style="fill:#231f20;fill-opacity:1;fill-rule:nonzero;stroke:none"
         aria-label="0 0&#10;0 1&#10;1 0&#10;1 1"
         transform="matrix(1.3333333,0,0,1.3333333,229.9228,258.88573)" />
      <path
         id="path50"
         d="m 2.4385016,0.11597344 c 1.2304687,0 1.8164062,-0.6328125 1.8164062,-2.22656254 v -1.8984375 c 0,-1.1601562 -0.5859375,-1.8867187 -1.8164062,-1.8867187 -1.21875,0 -1.81640629,0.7265625 -1.81640629,1.8867187 v 1.8984375 c 0,1.59375004 0.59765629,2.22656254 1.81640629,2.22656254 z m 0,-0.609375 c -0.6914063,0 -1.0664063,-0.328125 -1.0664063,-1.59375004 v -1.9453125 c 0,-1.2070312 0.84375,-1.2539062 1.0664063,-1.2539062 0.234375,0 1.0664062,0.046875 1.0664062,1.2539062 v 1.9453125 c 0,1.26562504 -0.3632812,1.59375004 -1.0664062,1.59375004 z M 7.6299078,-1.3605891 c 0,0.66796879 -0.4453125,0.93750004 -0.796875,0.93750004 -0.46875,0 -0.6914062,-0.328125 -0.6914062,-0.82031254 v -2.8007812 h -0.65625 v 3.08203124 c 0,0.69140625 0.3867187,1.04296875 1.0898437,1.04296875 0.421875,0 0.8085938,-0.19921875 1.03125,-0.57421875 h 0.023437 v 0.4921875 h 0.6914063 c -0.023437,-0.28125 -0.035156,-0.5625 -0.035156,-0.84375 V -4.0441828 h -0.65625 z M 8.875025,-4.0441828 v 0.4921875 h 0.65625 v 2.88281249 c 0,0.45703125 0.28125,0.71484375 0.914063,0.71484375 0.210937,0 0.421875,-0.046875 0.644531,-0.05859375 v -0.50390625 c -0.140625,0.0117188 -0.246094,0.0234375 -0.292969,0.0234375 -0.609375,0 -0.609375,-0.328125 -0.609375,-0.58593754 v -2.4726562 h 0.878906 v -0.4921875 h -0.878906 v -1.0664063 l -0.65625,0.2929688 v 0.7734375 z m 3.527344,0 h -0.65625 v 5.5664062 h 0.65625 v -1.93359371 h 0.02344 c 0.222657,0.31640625 0.503907,0.4921875 0.890625,0.4921875 1.300782,0 1.335938,-1.16015629 1.335938,-2.16796879 0,-1.78125 -0.65625,-2.0390625 -1.300781,-2.0390625 -0.433594,0 -0.714844,0.1875 -0.9375,0.5625 h -0.01172 z m 0.761719,3.58593749 c -0.726563,0 -0.761719,-0.85546879 -0.761719,-1.39453129 0,-0.609375 -0.07031,-1.734375 0.738281,-1.734375 0.820313,0 0.820313,0.890625 0.820313,1.5 0,1.078125 -0.09375,1.62890629 -0.796875,1.62890629 z m 4.690429,-0.90234379 c 0,0.66796879 -0.445312,0.93750004 -0.796875,0.93750004 -0.46875,0 -0.691406,-0.328125 -0.691406,-0.82031254 v -2.8007812 h -0.65625 v 3.08203124 c 0,0.69140625 0.386719,1.04296875 1.089844,1.04296875 0.421875,0 0.808593,-0.19921875 1.03125,-0.57421875 h 0.02344 v 0.4921875 h 0.691406 c -0.02344,-0.28125 -0.03516,-0.5625 -0.03516,-0.84375 V -4.0441828 h -0.65625 z m 1.245117,-2.6835937 v 0.4921875 h 0.65625 v 2.88281249 c 0,0.45703125 0.28125,0.71484375 0.914063,0.71484375 0.210937,0 0.421875,-0.046875 0.644531,-0.05859375 v -0.50390625 c -0.140625,0.0117188 -0.246094,0.0234375 -0.292969,0.0234375 -0.609375,0 -0.609375,-0.328125 -0.609375,-0.58593754 v -2.4726562 h 0.878907 v -0.4921875 h -0.878907 v -1.0664063 l -0.65625,0.2929688 v 0.7734375 z m 0,0"
         style="fill:#231f20;fill-opacity:1;fill-rule:nonzero;stroke:none"
         aria-label="Output"
         transform="matrix(1.3333333,0,0,1.3333333,281.35413,233.5524)" />
      <path
         id="path51"
         d="m 4.7917906,-3.1750422 c 0,-0.7148437 0,-3.2929687 -2.0976562,-3.2929687 -2.09765627,0 -2.09765627,2.6015625 -2.09765627,3.2929687 0,0.7617188 0.0117188,3.28125001 2.09765627,3.28125001 2.0976562,0 2.0976562,-2.58984371 2.0976562,-3.28125001 z m -0.8085937,0 c 0,1.1015625 -0.1171875,2.63671876 -1.2890625,2.63671876 -1.171875,0 -1.2773438,-1.57031246 -1.2773438,-2.63671876 0,-1.2773437 0.1757813,-2.6484375 1.2773438,-2.6484375 1.171875,0 1.2890625,1.5234375 1.2890625,2.6484375 z M 4.7917906,7.3278875 c 0,-0.7148438 0,-3.2929688 -2.0976562,-3.2929688 -2.09765627,0 -2.09765627,2.6015625 -2.09765627,3.2929688 0,0.7617187 0.0117188,3.2812495 2.09765627,3.2812495 2.0976562,0 2.0976562,-2.5898433 2.0976562,-3.2812495 z m -0.8085937,0 c 0,1.1015625 -0.1171875,2.6367187 -1.2890625,2.6367187 -1.171875,0 -1.2773438,-1.5703125 -1.2773438,-2.6367187 0,-1.2773438 0.1757813,-2.6484375 1.2773438,-2.6484375 1.171875,0 1.2890625,1.5234375 1.2890625,2.6484375 z M 4.7917906,17.830817 c 0,-0.714844 0,-3.292969 -2.0976562,-3.292969 -2.09765627,0 -2.09765627,2.601563 -2.09765627,3.292969 0,0.761719 0.0117188,3.28125 2.09765627,3.28125 2.0976562,0 2.0976562,-2.589844 2.0976562,-3.28125 z m -0.8085937,0 c 0,1.101563 -0.1171875,2.636719 -1.2890625,2.636719 -1.171875,0 -1.2773438,-1.570313 -1.2773438,-2.636719 0,-1.277344 0.1757813,-2.648437 1.2773438,-2.648437 1.171875,0 1.2890625,1.523437 1.2890625,2.648437 z m -0.609375,7.209961 h -0.515625 c -0.3164063,0.65625 -1.1015625,1.265625 -1.86328127,1.617188 v 0.761718 C 1.2878844,27.314216 2.0730406,26.950934 2.5769469,26.470466 v 5.039062 h 0.796875 z m 0,0"
         style="fill:#231f20;fill-opacity:1;fill-rule:nonzero;stroke:none"
         aria-label="0&#10;0&#10;0&#10;1"
         transform="matrix(1.3333333,0,0,1.3333333,291.97813,258.88573)" />
      <path
         id="path52"
         d="M 0,0 H 19.109"
         style="fill:none;stroke:#231f20;stroke-width:0.5;stroke-linecap:butt;stroke-linejoin:round;stroke-miterlimit:4;stroke-dasharray:none;stroke-opacity:1"
         transform="matrix(1.3333333,0,0,-1.3333333,283.67373,364.6852)" />
      <path
         id="path53"
         d="M 0,0 H 14.885"
         style="fill:none;stroke:#231f20;stroke-width:0.5;stroke-linecap:butt;stroke-linejoin:round;stroke-miterlimit:4;stroke-dasharray:none;stroke-opacity:1"
         transform="matrix(1.3333333,0,0,-1.3333333,227.14773,354.75413)" />
      <path
         id="path54"
         d="M 0,0 H 15.132"
         style="fill:none;stroke:#231f20;stroke-width:0.5;stroke-linecap:butt;stroke-linejoin:round;stroke-miterlimit:4;stroke-dasharray:none;stroke-opacity:1"
         transform="matrix(1.3333333,0,0,-1.3333333,227.14773,374.61613)" />
      <g
         id="g54"
         aria-label="XOR&#10;Inputs"
         transform="matrix(1.3333333,0,0,1.3333333,189.498,337.348)"
         clip-path="url(#clipPath57)">
        <path
           id="path55"
           d="M 1.5220078,-3.0236953 0.02200781,-2.578125e-4 H 1.2759141 L 2.1548203,-1.9924453 3.0454453,-2.578125e-4 H 4.4165391 L 2.9516953,-2.9182266 4.3931016,-5.7776016 H 3.1391953 L 2.3306016,-3.8791641 1.4985703,-5.7776016 H 0.12747656 Z m 5.3642578,3.11718749 c 1.9921875,0 1.9921875,-1.46484379 1.9921875,-2.98828129 0,-1.5234375 0,-2.9765625 -1.9921875,-2.9765625 -1.9921875,0 -1.9921875,1.453125 -1.9921875,2.9765625 0,1.5234375 0,2.98828129 1.9921875,2.98828129 z m 0,-0.8671875 c -0.6796875,0 -0.7617187,-0.63281249 -0.7617187,-2.12109379 0,-1.4765625 0.082031,-2.1210937 0.7617187,-2.1210937 0.6796875,0 0.7734375,0.6445312 0.7734375,2.1210937 0,1.4882813 -0.09375,2.12109379 -0.7734375,2.12109379 z M 11.022984,-2.3908828 h 0.316407 c 0.925781,0 0.867187,0.5859375 0.867187,1.265625 0,0.37499999 -0.03516,0.77343749 0.117188,1.1249999875 h 1.195312 C 13.401891,-0.23463281 13.378453,-1.3244766 13.378453,-1.6994766 c 0,-1.0429687 -0.785156,-1.1015625 -1.054687,-1.1367187 v -0.011719 c 0.785156,-0.1289062 1.078125,-0.6796875 1.078125,-1.4179687 0,-0.984375 -0.527344,-1.5117188 -1.347657,-1.5117188 H 9.8159531 v 5.7773437875 h 1.2070309 z m 0,-2.4960938 h 0.539063 c 0.386719,0 0.609375,0.1992188 0.609375,0.7617188 0,0.3632812 -0.128906,0.84375 -0.609375,0.84375 h -0.539063 z m 0,0"
           style="fill:#231f20;fill-opacity:1;fill-rule:nonzero;stroke:none" />
        <path
           id="path56"
           d="M 1.4751328,17.709703 H 0.74857031 v 5.777344 H 1.4751328 Z m 4.171875,5.777344 v -2.800781 c 0,-0.796875 -0.2109375,-1.324219 -1.078125,-1.324219 -0.515625,0 -0.8203125,0.152344 -1.078125,0.597656 H 3.4556016 V 19.444078 H 2.7641953 c 0.023437,0.28125 0.035156,0.5625 0.035156,0.84375 v 3.199219 h 0.65625 v -2.390625 c 0,-0.550781 0.1054687,-1.195313 0.8320312,-1.195313 0.5507813,0 0.703125,0.351563 0.703125,0.785157 v 2.800781 z m 1.866211,-4.042969 h -0.65625 v 5.566406 h 0.65625 v -1.933593 h 0.023437 c 0.2226562,0.316406 0.5039062,0.492187 0.890625,0.492187 1.3007812,0 1.3359375,-1.160156 1.3359375,-2.167969 0,-1.78125 -0.65625,-2.039062 -1.3007813,-2.039062 -0.4335937,0 -0.7148437,0.1875 -0.9375,0.5625 H 7.513218 Z m 0.7617187,3.585938 c -0.7265625,0 -0.7617187,-0.855469 -0.7617187,-1.394532 0,-0.609375 -0.070312,-1.734375 0.7382812,-1.734375 0.8203125,0 0.8203125,0.890625 0.8203125,1.5 0,1.078125 -0.09375,1.628907 -0.796875,1.628907 z m 4.6904295,-0.902344 c 0,0.667969 -0.445312,0.9375 -0.796875,0.9375 -0.46875,0 -0.691406,-0.328125 -0.691406,-0.820313 v -2.800781 h -0.65625 v 3.082031 c 0,0.691407 0.386719,1.042969 1.089844,1.042969 0.421875,0 0.808593,-0.199219 1.03125,-0.574219 h 0.02344 v 0.492188 h 0.691406 c -0.02344,-0.28125 -0.03516,-0.5625 -0.03516,-0.84375 v -3.199219 h -0.65625 z m 1.248047,-2.683594 v 0.492188 h 0.65625 v 2.882812 c 0,0.457031 0.28125,0.714844 0.914063,0.714844 0.210937,0 0.421875,-0.04687 0.644531,-0.05859 v -0.503906 c -0.140625,0.01172 -0.246094,0.02344 -0.292969,0.02344 -0.609375,0 -0.609375,-0.328125 -0.609375,-0.585937 v -2.472656 h 0.878906 v -0.492188 h -0.878906 v -1.066406 l -0.65625,0.292969 v 0.773437 z m 5.411133,2.894531 c 0,-1.242187 -2.015625,-1.21875 -2.015625,-1.933593 0,-0.351563 0.269531,-0.539063 0.621094,-0.539063 0.421875,0 0.644531,0.222656 0.632812,0.644531 h 0.726563 c 0.05859,-0.796875 -0.550782,-1.148437 -1.277344,-1.148437 -1.136719,0 -1.394531,0.679687 -1.394531,1.113281 0,1.207031 2.015625,1.21875 2.015625,1.933594 0,0.421875 -0.304688,0.621094 -0.691407,0.621094 -0.667968,0 -0.667968,-0.539063 -0.667968,-0.773438 h -0.75 c -0.02344,0.925781 0.515625,1.3125 1.394531,1.3125 0.796875,0 1.40625,-0.351562 1.40625,-1.230469 z m 0,0"
           style="fill:#231f20;fill-opacity:1;fill-rule:nonzero;stroke:none" />
      </g>
      <path
         id="path58"
         d="m 2.4360766,0.11700469 c 1.2304687,0 1.8164062,-0.6328125 1.8164062,-2.22656249 v -1.8984375 c 0,-1.1601563 -0.5859375,-1.8867188 -1.8164062,-1.8867188 -1.21875,0 -1.81640629,0.7265625 -1.81640629,1.8867188 v 1.8984375 c 0,1.59374999 0.59765629,2.22656249 1.81640629,2.22656249 z m 0,-0.609375 c -0.6914063,0 -1.0664063,-0.328125 -1.0664063,-1.59374999 v -1.9453125 c 0,-1.2070313 0.84375,-1.2539063 1.0664063,-1.2539063 0.234375,0 1.0664062,0.046875 1.0664062,1.2539063 v 1.9453125 c 0,1.26562499 -0.3632812,1.59374999 -1.0664062,1.59374999 z M 7.6304125,-1.3595578 c 0,0.66796874 -0.4453125,0.93749999 -0.796875,0.93749999 -0.46875,0 -0.6914063,-0.328125 -0.6914063,-0.82031249 v -2.8007813 h -0.65625 v 3.08203129 c 0,0.69140625 0.3867188,1.04296875 1.0898438,1.04296875 0.421875,0 0.8085937,-0.19921875 1.03125,-0.57421875 H 7.630412 V -1.828125e-4 H 8.3218187 C 8.2983812,-0.28143281 8.2866625,-0.56268281 8.2866625,-0.84393281 V -4.0431516 h -0.65625 z m 1.2451172,-2.6835938 v 0.4921875 h 0.65625 v 2.88281254 c 0,0.45703125 0.28125,0.71484375 0.9140623,0.71484375 0.210938,0 0.421875,-0.0468750025 0.644531,-0.05859375 v -0.50390625 c -0.140625,0.0117188 -0.246093,0.0234375 -0.292968,0.0234375 -0.609375,0 -0.609375,-0.328125 -0.609375,-0.58593749 v -2.4726563 h 0.878906 V -4.0431516 H 10.18803 v -1.0664062 l -0.6562503,0.2929687 v 0.7734375 z m 3.5244143,0 h -0.65625 v 5.5664063 h 0.65625 v -1.93359376 h 0.02344 c 0.222656,0.31640625 0.503906,0.4921875 0.890625,0.4921875 1.300781,0 1.335938,-1.16015624 1.335938,-2.16796874 0,-1.78125 -0.65625,-2.0390625 -1.300782,-2.0390625 -0.433593,0 -0.714843,0.1875 -0.9375,0.5625 h -0.01172 z m 0.761718,3.58593754 c -0.726562,0 -0.761718,-0.85546874 -0.761718,-1.39453124 0,-0.609375 -0.07031,-1.734375 0.738281,-1.734375 0.820312,0 0.820312,0.890625 0.820312,1.5 0,1.078125 -0.09375,1.62890624 -0.796875,1.62890624 z m 4.69336,-0.90234374 c 0,0.66796874 -0.445313,0.93749999 -0.796875,0.93749999 -0.46875,0 -0.691406,-0.328125 -0.691406,-0.82031249 v -2.8007813 h -0.65625 v 3.08203129 c 0,0.69140625 0.386718,1.04296875 1.089843,1.04296875 0.421875,0 0.808594,-0.19921875 1.03125,-0.57421875 h 0.02344 V -1.828125e-4 H 18.54643 C 18.522991,-0.28143281 18.511272,-0.56268281 18.511272,-0.84393281 V -4.0431516 h -0.65625 z m 1.245117,-2.6835938 v 0.4921875 h 0.65625 v 2.88281254 c 0,0.45703125 0.28125,0.71484375 0.914063,0.71484375 0.210937,0 0.421875,-0.0468750025 0.644531,-0.05859375 v -0.50390625 c -0.140625,0.0117188 -0.246094,0.0234375 -0.292969,0.0234375 -0.609375,0 -0.609375,-0.328125 -0.609375,-0.58593749 v -2.4726563 h 0.878906 v -0.4921875 h -0.878906 v -1.0664062 l -0.65625,0.2929687 v 0.7734375 z m 0,0"
         style="fill:#231f20;fill-opacity:1;fill-rule:nonzero;stroke:none"
         aria-label="Output"
         transform="matrix(1.3333333,0,0,1.3333333,315.16987,368.6604)" />
      <path
         id="path59"
         d="m 160.023,428.241 h 82.18 v 68.481 h -82.18 z"
         style="fill:#cad5af;fill-opacity:1;fill-rule:nonzero;stroke:none"
         transform="matrix(1.3333333,0,0,-1.3333333,0,1064)" />
      <path
         id="path60"
         d="M 0,0 H 82.18"
         style="fill:none;stroke:#ffffff;stroke-width:1;stroke-linecap:butt;stroke-linejoin:round;stroke-miterlimit:4;stroke-dasharray:none;stroke-opacity:1"
         transform="matrix(1.3333333,0,0,-1.3333333,213.36387,428.6188)" />
      <path
         id="path61"
         d="M 0,0 V 68.481"
         style="fill:none;stroke:#ffffff;stroke-width:1;stroke-linecap:butt;stroke-linejoin:round;stroke-miterlimit:4;stroke-dasharray:none;stroke-opacity:1"
         transform="matrix(1.3333333,0,0,-1.3333333,268.1504,493.012)"
         clip-path="url(#clipPath62)" />
      <path
         id="path63"
         d="M 1.4770313,-5.7785109 H 0.75046875 v 5.77734371 H 1.4770313 Z m 4.1689453,5.77734371 V -2.8019484 c 0,-0.796875 -0.2109375,-1.3242188 -1.078125,-1.3242188 -0.515625,0 -0.8203125,0.1523438 -1.078125,0.5976563 h -0.035156 v -0.515625 H 2.7631641 c 0.023437,0.28125 0.035156,0.5625 0.035156,0.84375 v 3.19921871 h 0.65625 V -2.3917922 c 0,-0.5507812 0.1054688,-1.1953125 0.8320313,-1.1953125 0.5507812,0 0.703125,0.3515625 0.703125,0.7851563 v 2.80078121 z M 7.5121875,-4.0441359 h -0.65625 v 5.5664062 h 0.65625 v -1.93359374 h 0.023437 c 0.2226563,0.31640625 0.5039063,0.4921875 0.890625,0.4921875 1.3007813,0 1.3359375,-1.16015626 1.3359375,-2.16796876 0,-1.78125 -0.65625,-2.0390625 -1.3007812,-2.0390625 -0.4335938,0 -0.7148438,0.1875 -0.9375,0.5625 h -0.011719 z m 0.7617188,3.58593746 c -0.7265625,0 -0.7617188,-0.85546876 -0.7617188,-1.39453126 0,-0.609375 -0.070312,-1.734375 0.7382813,-1.734375 0.8203125,0 0.8203125,0.890625 0.8203125,1.5 0,1.078125 -0.09375,1.62890626 -0.796875,1.62890626 z M 12.967266,-1.3605422 c 0,0.66796876 -0.445313,0.93750001 -0.796875,0.93750001 -0.46875,0 -0.691407,-0.328125 -0.691407,-0.82031251 v -2.8007812 h -0.65625 v 3.08203121 c 0,0.69140625 0.386719,1.04296875 1.089844,1.04296875 0.421875,0 0.808594,-0.19921875 1.03125,-0.57421875 h 0.02344 v 0.4921875 h 0.691406 c -0.02344,-0.28125 -0.03516,-0.5625 -0.03516,-0.84375 V -4.0441359 h -0.65625 z m 1.245117,-2.6835937 v 0.4921875 h 0.65625 v 2.88281246 c 0,0.45703125 0.28125,0.71484375 0.914062,0.71484375 0.210938,0 0.421875,-0.046875 0.644532,-0.05859375 v -0.50390625 c -0.140625,0.0117188 -0.246094,0.0234375 -0.292969,0.0234375 -0.609375,0 -0.609375,-0.328125 -0.609375,-0.58593751 v -2.4726562 h 0.878906 v -0.4921875 h -0.878906 v -1.0664063 l -0.65625,0.2929688 v 0.7734375 z m 5.411133,2.8945312 c 0,-1.2421875 -2.015625,-1.21875 -2.015625,-1.9335937 0,-0.3515625 0.269531,-0.5390625 0.621093,-0.5390625 0.421875,0 0.644532,0.2226562 0.632813,0.6445312 h 0.726562 c 0.05859,-0.796875 -0.550781,-1.1484375 -1.277343,-1.1484375 -1.136719,0 -1.394532,0.6796875 -1.394532,1.1132813 0,1.2070312 2.015625,1.21875 2.015625,1.9335937 0,0.42187501 -0.304687,0.62109376 -0.691406,0.62109376 -0.667969,0 -0.667969,-0.5390625 -0.667969,-0.77343746 h -0.75 c -0.02344,0.92578121 0.515625,1.31249996 1.394532,1.31249996 0.796875,0 1.40625,-0.3515625 1.40625,-1.23046876 z m 0,0"
         style="fill:#231f20;fill-opacity:1;fill-rule:nonzero;stroke:none"
         aria-label="Inputs"
         transform="matrix(1.3333333,0,0,1.3333333,227.39,417.7164)" />
      <path
         id="path64"
         d="m 4.791775,-3.1749953 c 0,-0.7148438 0,-3.2929688 -2.0976562,-3.2929688 -2.0976563,0 -2.0976563,2.6015625 -2.0976563,3.2929688 0,0.7617187 0.0117188,3.28124999 2.0976563,3.28124999 2.0976562,0 2.0976562,-2.58984379 2.0976562,-3.28124999 z m -0.8085937,0 c 0,1.1015625 -0.1171875,2.63671874 -1.2890625,2.63671874 -1.171875,0 -1.2773438,-1.57031254 -1.2773438,-2.63671874 0,-1.2773438 0.1757813,-2.6484375 1.2773438,-2.6484375 1.171875,0 1.2890625,1.5234375 1.2890625,2.6484375 z m 11.6103517,0 c 0,-0.7148438 0,-3.2929688 -2.097656,-3.2929688 -2.097657,0 -2.097657,2.6015625 -2.097657,3.2929688 0,0.7617187 0.01172,3.28124999 2.097657,3.28124999 2.097656,0 2.097656,-2.58984379 2.097656,-3.28124999 z m -0.808594,0 c 0,1.1015625 -0.117187,2.63671874 -1.289062,2.63671874 -1.171875,0 -1.277344,-1.57031254 -1.277344,-2.63671874 0,-1.2773438 0.175781,-2.6484375 1.277344,-2.6484375 1.171875,0 1.289062,1.5234375 1.289062,2.6484375 z M 4.791775,7.3279344 c 0,-0.7148438 0,-3.2929688 -2.0976562,-3.2929688 -2.0976563,0 -2.0976563,2.6015625 -2.0976563,3.2929688 0,0.7617187 0.0117188,3.2812496 2.0976563,3.2812496 2.0976562,0 2.0976562,-2.5898434 2.0976562,-3.2812496 z m -0.8085937,0 c 0,1.1015625 -0.1171875,2.6367187 -1.2890625,2.6367187 -1.171875,0 -1.2773438,-1.5703125 -1.2773438,-2.6367187 0,-1.2773438 0.1757813,-2.6484375 1.2773438,-2.6484375 1.171875,0 1.2890625,1.5234375 1.2890625,2.6484375 z M 14.175564,4.0349656 h -0.515625 c -0.316406,0.65625 -1.101562,1.265625 -1.863281,1.6171875 v 0.7617188 c 0.292969,-0.1054688 1.078125,-0.46875 1.582031,-0.9492188 v 5.0390629 h 0.796875 z M 3.3738063,14.537895 H 2.8581813 C 2.541775,15.194145 1.7566188,15.80352 0.9949,16.155083 v 0.761719 c 0.2929688,-0.105469 1.078125,-0.46875 1.5820313,-0.949219 v 5.039062 h 0.796875 z m 12.2197267,3.292969 c 0,-0.714844 0,-3.292969 -2.097656,-3.292969 -2.097657,0 -2.097657,2.601563 -2.097657,3.292969 0,0.761719 0.01172,3.28125 2.097657,3.28125 2.097656,0 2.097656,-2.589844 2.097656,-3.28125 z m -0.808594,0 c 0,1.101563 -0.117187,2.636719 -1.289062,2.636719 -1.171875,0 -1.277344,-1.570313 -1.277344,-2.636719 0,-1.277344 0.175781,-2.648437 1.277344,-2.648437 1.171875,0 1.289062,1.523437 1.289062,2.648437 z M 3.3738063,25.040825 H 2.8581813 C 2.541775,25.697075 1.7566188,26.30645 0.9949,26.658012 v 0.761719 c 0.2929688,-0.105469 1.078125,-0.46875 1.5820313,-0.949219 v 5.039063 h 0.796875 z m 10.8017577,0 h -0.515625 c -0.316406,0.65625 -1.101562,1.265625 -1.863281,1.617187 v 0.761719 c 0.292969,-0.105469 1.078125,-0.46875 1.582031,-0.949219 v 5.039063 h 0.796875 z m 0,0"
         style="fill:#231f20;fill-opacity:1;fill-rule:nonzero;stroke:none"
         aria-label="0 0&#10;0 1&#10;1 0&#10;1 1"
         transform="matrix(1.3333333,0,0,1.3333333,229.92347,443.04973)" />
      <path
         id="path65"
         d="m 2.4360719,0.11602031 c 1.2304687,0 1.8164062,-0.6328125 1.8164062,-2.22656251 v -1.8984375 c 0,-1.1601562 -0.5859375,-1.8867187 -1.8164062,-1.8867187 -1.21875,0 -1.81640627,0.7265625 -1.81640627,1.8867187 v 1.8984375 c 0,1.59375001 0.59765627,2.22656251 1.81640627,2.22656251 z m 0,-0.609375 c -0.6914063,0 -1.0664063,-0.328125 -1.0664063,-1.59375001 v -1.9453125 c 0,-1.2070312 0.84375,-1.2539062 1.0664063,-1.2539062 0.234375,0 1.0664062,0.046875 1.0664062,1.2539062 v 1.9453125 c 0,1.26562501 -0.3632812,1.59375001 -1.0664062,1.59375001 z M 7.6304078,-1.3605422 c 0,0.66796876 -0.4453125,0.93750001 -0.796875,0.93750001 -0.46875,0 -0.6914062,-0.328125 -0.6914062,-0.82031251 v -2.8007812 h -0.65625 v 3.08203121 c 0,0.69140625 0.3867187,1.04296875 1.0898437,1.04296875 0.421875,0 0.8085938,-0.19921875 1.03125,-0.57421875 h 0.023437 v 0.4921875 h 0.6914063 c -0.023437,-0.28125 -0.035156,-0.5625 -0.035156,-0.84375 V -4.0441359 h -0.65625 z M 8.875525,-4.0441359 v 0.4921875 h 0.65625 v 2.88281246 c 0,0.45703125 0.28125,0.71484375 0.914063,0.71484375 0.210937,0 0.421875,-0.046875 0.644531,-0.05859375 v -0.50390625 c -0.140625,0.0117188 -0.246094,0.0234375 -0.292969,0.0234375 -0.609375,0 -0.609375,-0.328125 -0.609375,-0.58593751 v -2.4726562 h 0.878906 v -0.4921875 h -0.878906 v -1.0664063 l -0.65625,0.2929688 v 0.7734375 z m 3.524414,0 h -0.65625 v 5.5664062 h 0.65625 v -1.93359374 h 0.02344 c 0.222656,0.31640625 0.503906,0.4921875 0.890625,0.4921875 1.300781,0 1.335937,-1.16015626 1.335937,-2.16796876 0,-1.78125 -0.65625,-2.0390625 -1.300781,-2.0390625 -0.433594,0 -0.714844,0.1875 -0.9375,0.5625 h -0.01172 z m 0.761719,3.58593746 c -0.726563,0 -0.761719,-0.85546876 -0.761719,-1.39453126 0,-0.609375 -0.07031,-1.734375 0.738281,-1.734375 0.820313,0 0.820313,0.890625 0.820313,1.5 0,1.078125 -0.09375,1.62890626 -0.796875,1.62890626 z m 4.693359,-0.90234376 c 0,0.66796876 -0.445312,0.93750001 -0.796875,0.93750001 -0.46875,0 -0.691406,-0.328125 -0.691406,-0.82031251 v -2.8007812 h -0.65625 v 3.08203121 c 0,0.69140625 0.386719,1.04296875 1.089844,1.04296875 0.421875,0 0.808593,-0.19921875 1.03125,-0.57421875 h 0.02344 v 0.4921875 h 0.691406 c -0.02344,-0.28125 -0.03516,-0.5625 -0.03516,-0.84375 V -4.0441359 h -0.65625 z m 1.245117,-2.6835937 v 0.4921875 h 0.65625 v 2.88281246 c 0,0.45703125 0.28125,0.71484375 0.914063,0.71484375 0.210937,0 0.421875,-0.046875 0.644531,-0.05859375 v -0.50390625 c -0.140625,0.0117188 -0.246094,0.0234375 -0.292969,0.0234375 -0.609375,0 -0.609375,-0.328125 -0.609375,-0.58593751 v -2.4726562 h 0.878907 v -0.4921875 h -0.878907 v -1.0664063 l -0.65625,0.2929688 v 0.7734375 z m 0,0"
         style="fill:#231f20;fill-opacity:1;fill-rule:nonzero;stroke:none"
         aria-label="Output"
         transform="matrix(1.3333333,0,0,1.3333333,281.35347,417.7164)" />
      <path
         id="path66"
         d="m 4.7922906,-3.1749953 c 0,-0.7148438 0,-3.2929688 -2.0976562,-3.2929688 -2.09765627,0 -2.09765627,2.6015625 -2.09765627,3.2929688 0,0.7617187 0.0117188,3.28124999 2.09765627,3.28124999 2.0976562,0 2.0976562,-2.58984379 2.0976562,-3.28124999 z m -0.8085937,0 c 0,1.1015625 -0.1171875,2.63671874 -1.2890625,2.63671874 -1.171875,0 -1.2773438,-1.57031254 -1.2773438,-2.63671874 0,-1.2773438 0.1757813,-2.6484375 1.2773438,-2.6484375 1.171875,0 1.2890625,1.5234375 1.2890625,2.6484375 z M 3.3743219,4.0349656 H 2.8586969 C 2.5422906,4.6912156 1.7571344,5.3005906 0.99541563,5.6521531 V 6.4138719 C 1.2883844,6.3084031 2.0735406,5.9451219 2.5774469,5.4646531 v 5.0390629 h 0.796875 z m 0,10.5029294 h -0.515625 c -0.3164063,0.65625 -1.1015625,1.265625 -1.86328127,1.617188 v 0.761719 C 1.2883844,16.811333 2.0735406,16.448052 2.5774469,15.967583 v 5.039062 h 0.796875 z m 1.4179687,13.795899 c 0,-0.714844 0,-3.292969 -2.0976562,-3.292969 -2.09765627,0 -2.09765627,2.601562 -2.09765627,3.292969 0,0.761718 0.0117188,3.28125 2.09765627,3.28125 2.0976562,0 2.0976562,-2.589844 2.0976562,-3.28125 z m -0.8085937,0 c 0,1.101562 -0.1171875,2.636718 -1.2890625,2.636718 -1.171875,0 -1.2773438,-1.570312 -1.2773438,-2.636718 0,-1.277344 0.1757813,-2.648438 1.2773438,-2.648438 1.171875,0 1.2890625,1.523438 1.2890625,2.648438 z m 0,0"
         style="fill:#231f20;fill-opacity:1;fill-rule:nonzero;stroke:none"
         aria-label="0&#10;1&#10;1&#10;0"
         transform="matrix(1.3333333,0,0,1.3333333,291.97747,443.04973)" />
      <path
         id="path67"
         d="M 0,0 H 19.109"
         style="fill:none;stroke:#231f20;stroke-width:0.5;stroke-linecap:butt;stroke-linejoin:miter;stroke-miterlimit:4;stroke-dasharray:none;stroke-opacity:1"
         transform="matrix(1.3333333,0,0,-1.3333333,526.55853,180.52107)" />
      <path
         id="path68"
         d="M 0,0 H 20.057"
         style="fill:none;stroke:#231f20;stroke-width:0.5;stroke-linecap:butt;stroke-linejoin:miter;stroke-miterlimit:4;stroke-dasharray:none;stroke-opacity:1"
         transform="matrix(1.3333333,0,0,-1.3333333,470.03253,170.59013)" />
      <path
         id="path69"
         d="M 0,0 H 20.594"
         style="fill:none;stroke:#231f20;stroke-width:0.5;stroke-linecap:butt;stroke-linejoin:miter;stroke-miterlimit:4;stroke-dasharray:none;stroke-opacity:1"
         transform="matrix(1.3333333,0,0,-1.3333333,470.03253,190.45213)" />
      <path
         id="path70"
         d="m 2.4375094,0.09354531 c 1.9921875,0 1.9921875,-1.46484371 1.9921875,-2.98828121 0,-1.5234375 0,-2.9765625 -1.9921875,-2.9765625 -1.99218752,0 -1.99218752,1.453125 -1.99218752,2.9765625 0,1.5234375 0,2.98828121 1.99218752,2.98828121 z m 0,-0.8671875 c -0.6796875,0 -0.7617188,-0.63281251 -0.7617188,-2.12109371 0,-1.4765625 0.082031,-2.1210938 0.7617188,-2.1210938 0.6796875,0 0.7734375,0.6445313 0.7734375,2.1210938 0,1.4882812 -0.09375,2.12109371 -0.7734375,2.12109371 z M 6.5742281,-2.3908297 h 0.3164063 c 0.9257812,0 0.8671875,0.5859375 0.8671875,1.265625 0,0.37500001 -0.035156,0.77343751 0.1171875,1.1250000125 H 9.0703219 C 8.9531344,-0.23457969 8.9296969,-1.3244234 8.9296969,-1.6994234 c 0,-1.0429688 -0.7851563,-1.1015625 -1.0546875,-1.1367188 v -0.011719 c 0.7851562,-0.1289063 1.078125,-0.6796875 1.078125,-1.4179688 0,-0.984375 -0.5273438,-1.5117187 -1.3476563,-1.5117187 H 5.3671969 v 5.7773437125 h 1.2070312 z m 0,-2.4960937 h 0.5390625 c 0.3867188,0 0.609375,0.1992187 0.609375,0.7617187 0,0.3632813 -0.1289062,0.84375 -0.609375,0.84375 H 6.5742281 Z m 0,0"
         style="fill:#231f20;fill-opacity:1;fill-rule:nonzero;stroke:none"
         aria-label="OR"
         transform="matrix(1.3333333,0,0,1.3333333,432.3828,149.18387)"
         clip-path="url(#clipPath71)" />
      <path
         id="path72"
         d="M 1.4765719,-5.7780734 H 0.75000938 V -7.296875e-4 H 1.4765719 Z M 5.6455172,-7.296875e-4 V -2.8015109 c 0,-0.796875 -0.2109375,-1.3242188 -1.078125,-1.3242188 -0.515625,0 -0.8203125,0.1523438 -1.078125,0.5976563 h -0.035156 v -0.515625 H 2.7627047 c 0.023437,0.28125 0.035156,0.5625 0.035156,0.84375 v 3.1992187125 h 0.65625 V -2.3913547 c 0,-0.5507812 0.1054688,-1.1953125 0.8320313,-1.1953125 0.5507812,0 0.703125,0.3515625 0.703125,0.7851563 V -7.296875e-4 Z M 7.5117281,-4.0436984 h -0.65625 v 5.5664062 h 0.65625 v -1.93359374 h 0.023437 c 0.2226563,0.31640625 0.5039063,0.4921875 0.890625,0.4921875 1.3007813,0 1.3359375,-1.16015626 1.3359375,-2.16796876 0,-1.78125 -0.65625,-2.0390625 -1.3007812,-2.0390625 -0.4335938,0 -0.7148438,0.1875 -0.9375,0.5625 h -0.011719 z m 0.7617188,3.58593746 c -0.7265625,0 -0.7617188,-0.85546876 -0.7617188,-1.39453126 0,-0.609375 -0.070312,-1.734375 0.7382813,-1.734375 0.8203125,0 0.8203125,0.890625 0.8203125,1.5 0,1.078125 -0.09375,1.62890626 -0.796875,1.62890626 z M 12.966806,-1.3601047 c 0,0.66796876 -0.445312,0.93750001 -0.796875,0.93750001 -0.46875,0 -0.691406,-0.328125 -0.691406,-0.82031251 v -2.8007812 h -0.65625 v 3.08203121 c 0,0.69140625 0.386719,1.04296875 1.089844,1.04296875 0.421875,0 0.808594,-0.19921875 1.03125,-0.57421875 h 0.02344 v 0.4921875025 h 0.691407 C 13.634775,-0.28197969 13.623056,-0.56322969 13.623056,-0.84447969 V -4.0436984 h -0.65625 z m 1.245117,-2.6835937 v 0.4921875 h 0.65625 v 2.88281246 c 0,0.45703125 0.28125,0.71484375 0.914063,0.71484375 0.210937,0 0.421875,-0.0468749975 0.644531,-0.05859375 v -0.50390625 c -0.140625,0.0117188 -0.246094,0.0234375 -0.292969,0.0234375 -0.609375,0 -0.609375,-0.328125 -0.609375,-0.58593751 v -2.4726562 h 0.878907 v -0.4921875 h -0.878907 v -1.0664063 l -0.65625,0.2929688 v 0.7734375 z m 5.411133,2.8945312 c 0,-1.2421875 -2.015625,-1.21875 -2.015625,-1.9335937 0,-0.3515625 0.269532,-0.5390625 0.621094,-0.5390625 0.421875,0 0.644531,0.2226562 0.632813,0.6445312 H 19.5879 c 0.05859,-0.796875 -0.550781,-1.1484375 -1.277344,-1.1484375 -1.136718,0 -1.394531,0.6796875 -1.394531,1.1132813 0,1.2070312 2.015625,1.21875 2.015625,1.9335937 0,0.42187501 -0.304687,0.62109376 -0.691406,0.62109376 -0.667969,0 -0.667969,-0.5390625 -0.667969,-0.77343746 h -0.75 c -0.02344,0.92578121 0.515625,1.31249996 1.394531,1.31249996 0.796875,0 1.40625,-0.3515625 1.40625,-1.23046876 z m 0,0"
         style="fill:#231f20;fill-opacity:1;fill-rule:nonzero;stroke:none"
         aria-label="Inputs"
         transform="matrix(1.3333333,0,0,1.3333333,436.3828,184.49707)" />
      <path
         id="path73"
         d="m 2.4375156,0.11645781 c 1.2304688,0 1.8164063,-0.6328125 1.8164063,-2.22656251 v -1.8984375 c 0,-1.1601562 -0.5859375,-1.8867187 -1.8164063,-1.8867187 -1.21875,0 -1.81640622,0.7265625 -1.81640622,1.8867187 v 1.8984375 c 0,1.59375001 0.59765622,2.22656251 1.81640622,2.22656251 z m 0,-0.609375 c -0.6914062,0 -1.0664062,-0.328125 -1.0664062,-1.59375001 v -1.9453125 c 0,-1.2070312 0.84375,-1.2539062 1.0664062,-1.2539062 0.234375,0 1.0664063,0.046875 1.0664063,1.2539062 v 1.9453125 c 0,1.26562501 -0.3632813,1.59375001 -1.0664063,1.59375001 z M 7.6289219,-1.3601047 c 0,0.66796876 -0.4453125,0.93750001 -0.796875,0.93750001 -0.46875,0 -0.6914063,-0.328125 -0.6914063,-0.82031251 v -2.8007812 h -0.65625 v 3.08203121 c 0,0.69140625 0.3867188,1.04296875 1.0898438,1.04296875 0.421875,0 0.8085937,-0.19921875 1.03125,-0.57421875 h 0.023437 V -7.296875e-4 H 8.3203281 C 8.2968906,-0.28197969 8.2851719,-0.56322969 8.2851719,-0.84447969 V -4.0436984 h -0.65625 z m 1.2480469,-2.6835937 v 0.4921875 h 0.65625 v 2.88281246 c 0,0.45703125 0.28125,0.71484375 0.9140622,0.71484375 0.210938,0 0.421875,-0.0468749975 0.644532,-0.05859375 v -0.50390625 c -0.140625,0.0117188 -0.246094,0.0234375 -0.292969,0.0234375 -0.609375,0 -0.609375,-0.328125 -0.609375,-0.58593751 v -2.4726562 h 0.878906 v -0.4921875 h -0.878906 v -1.0664063 l -0.6562502,0.2929688 v 0.7734375 z m 3.5244142,0 h -0.65625 v 5.5664062 h 0.65625 v -1.93359374 h 0.02344 c 0.222657,0.31640625 0.503907,0.4921875 0.890625,0.4921875 1.300782,0 1.335938,-1.16015626 1.335938,-2.16796876 0,-1.78125 -0.65625,-2.0390625 -1.300781,-2.0390625 -0.433594,0 -0.714844,0.1875 -0.9375,0.5625 h -0.01172 z m 0.761719,3.58593746 c -0.726563,0 -0.761719,-0.85546876 -0.761719,-1.39453126 0,-0.609375 -0.07031,-1.734375 0.738281,-1.734375 0.820313,0 0.820313,0.890625 0.820313,1.5 0,1.078125 -0.09375,1.62890626 -0.796875,1.62890626 z m 4.690429,-0.90234376 c 0,0.66796876 -0.445312,0.93750001 -0.796875,0.93750001 -0.46875,0 -0.691406,-0.328125 -0.691406,-0.82031251 V -4.0436984 H 15.709 v 3.08203121 c 0,0.69140625 0.386719,1.04296875 1.089844,1.04296875 0.421875,0 0.808594,-0.19921875 1.03125,-0.57421875 h 0.02344 v 0.4921875025 h 0.691407 C 18.5215,-0.28197969 18.509781,-0.56322969 18.509781,-0.84447969 V -4.0436984 h -0.65625 z m 1.248047,-2.6835937 v 0.4921875 h 0.65625 v 2.88281246 c 0,0.45703125 0.28125,0.71484375 0.914063,0.71484375 0.210937,0 0.421875,-0.0468749975 0.644531,-0.05859375 v -0.50390625 c -0.140625,0.0117188 -0.246094,0.0234375 -0.292969,0.0234375 -0.609375,0 -0.609375,-0.328125 -0.609375,-0.58593751 v -2.4726562 h 0.878906 v -0.4921875 h -0.878906 v -1.0664063 l -0.65625,0.2929688 v 0.7734375 z m 0,0"
         style="fill:#231f20;fill-opacity:1;fill-rule:nonzero;stroke:none"
         aria-label="Output"
         transform="matrix(1.3333333,0,0,1.3333333,558.05467,184.49707)"
         clip-path="url(#clipPath74)" />
      <path
         id="path75"
         d="m 424.367,566.365 h -82.18 v 68.481 h 82.18 z"
         style="fill:#cad5af;fill-opacity:1;fill-rule:nonzero;stroke:none"
         transform="matrix(1.3333333,0,0,-1.3333333,0,1064)" />
      <path
         id="path76"
         d="M 0,0 H 82.18"
         style="fill:none;stroke:#ffffff;stroke-width:1;stroke-linecap:butt;stroke-linejoin:miter;stroke-miterlimit:4;stroke-dasharray:none;stroke-opacity:1"
         transform="matrix(1.3333333,0,0,-1.3333333,456.24867,244.45533)" />
      <path
         id="path77"
         d="M 0,0 V 68.481"
         style="fill:none;stroke:#ffffff;stroke-width:1;stroke-linecap:butt;stroke-linejoin:miter;stroke-miterlimit:4;stroke-dasharray:none;stroke-opacity:1"
         transform="matrix(1.3333333,0,0,-1.3333333,511.03507,308.84733)" />
      <path
         id="path78"
         d="M 1.4755406,-5.7785578 H 0.74897813 v 5.77734374 H 1.4755406 Z m 4.1689453,5.77734374 V -2.8019953 c 0,-0.796875 -0.2109375,-1.3242188 -1.078125,-1.3242188 -0.515625,0 -0.8203125,0.1523438 -1.078125,0.5976563 h -0.035156 v -0.515625 H 2.7616734 c 0.023437,0.28125 0.035156,0.5625 0.035156,0.84375 v 3.19921874 h 0.65625 V -2.3918391 c 0,-0.5507812 0.1054687,-1.1953125 0.8320312,-1.1953125 0.5507813,0 0.703125,0.3515625 0.703125,0.7851563 v 2.80078124 z M 7.5136266,-4.0441828 h -0.65625 v 5.5664062 h 0.65625 v -1.93359371 h 0.023437 c 0.2226562,0.31640625 0.5039062,0.4921875 0.890625,0.4921875 1.3007812,0 1.3359375,-1.16015629 1.3359375,-2.16796879 0,-1.78125 -0.65625,-2.0390625 -1.3007813,-2.0390625 -0.4335937,0 -0.7148437,0.1875 -0.9375,0.5625 h -0.011719 z m 0.7617187,3.58593749 c -0.7265625,0 -0.7617187,-0.85546879 -0.7617187,-1.39453129 0,-0.609375 -0.070312,-1.734375 0.7382812,-1.734375 0.8203125,0 0.8203125,0.890625 0.8203125,1.5 0,1.078125 -0.09375,1.62890629 -0.796875,1.62890629 z M 12.965775,-1.3605891 c 0,0.66796879 -0.445312,0.93750004 -0.796875,0.93750004 -0.46875,0 -0.691406,-0.328125 -0.691406,-0.82031254 v -2.8007812 h -0.65625 v 3.08203124 c 0,0.69140625 0.386719,1.04296875 1.089844,1.04296875 0.421875,0 0.808593,-0.19921875 1.03125,-0.57421875 h 0.02344 v 0.4921875 h 0.691406 c -0.02344,-0.28125 -0.03516,-0.5625 -0.03516,-0.84375 V -4.0441828 h -0.65625 z m 1.245117,-2.6835937 v 0.4921875 h 0.65625 v 2.88281249 c 0,0.45703125 0.28125,0.71484375 0.914063,0.71484375 0.210937,0 0.421875,-0.046875 0.644531,-0.05859375 v -0.50390625 c -0.140625,0.0117188 -0.246094,0.0234375 -0.292969,0.0234375 -0.609375,0 -0.609375,-0.328125 -0.609375,-0.58593754 v -2.4726562 h 0.878906 v -0.4921875 h -0.878906 v -1.0664063 l -0.65625,0.2929688 v 0.7734375 z m 5.414063,2.8945312 c 0,-1.2421875 -2.015625,-1.21875 -2.015625,-1.9335937 0,-0.3515625 0.269531,-0.5390625 0.621093,-0.5390625 0.421875,0 0.644532,0.2226562 0.632813,0.6445312 h 0.726562 c 0.05859,-0.796875 -0.550781,-1.1484375 -1.277343,-1.1484375 -1.136719,0 -1.394532,0.6796875 -1.394532,1.1132813 0,1.2070312 2.015625,1.21875 2.015625,1.9335937 0,0.42187504 -0.304687,0.62109379 -0.691406,0.62109379 -0.667969,0 -0.667969,-0.5390625 -0.667969,-0.77343749 h -0.75 c -0.02344,0.92578124 0.515625,1.31249999 1.394532,1.31249999 0.796875,0 1.40625,-0.3515625 1.40625,-1.23046879 z m 0,0"
         style="fill:#231f20;fill-opacity:1;fill-rule:nonzero;stroke:none"
         aria-label="Inputs"
         transform="matrix(1.3333333,0,0,1.3333333,470.2748,233.5524)" />
      <path
         id="path79"
         d="m 4.7933141,-3.1750422 c 0,-0.7148437 0,-3.2929687 -2.0976563,-3.2929687 -2.09765624,0 -2.09765624,2.6015625 -2.09765624,3.2929687 0,0.7617188 0.0117188,3.28125001 2.09765624,3.28125001 2.0976563,0 2.0976563,-2.58984371 2.0976563,-3.28125001 z m -0.8085938,0 c 0,1.1015625 -0.1171875,2.63671876 -1.2890625,2.63671876 -1.171875,0 -1.2773437,-1.57031246 -1.2773437,-2.63671876 0,-1.2773437 0.1757812,-2.6484375 1.2773437,-2.6484375 1.171875,0 1.2890625,1.5234375 1.2890625,2.6484375 z m 11.6074217,0 c 0,-0.7148437 0,-3.2929687 -2.097656,-3.2929687 -2.097656,0 -2.097656,2.6015625 -2.097656,3.2929687 0,0.7617188 0.01172,3.28125001 2.097656,3.28125001 2.097656,0 2.097656,-2.58984371 2.097656,-3.28125001 z m -0.808594,0 c 0,1.1015625 -0.117187,2.63671876 -1.289062,2.63671876 -1.171875,0 -1.277344,-1.57031246 -1.277344,-2.63671876 0,-1.2773437 0.175781,-2.6484375 1.277344,-2.6484375 1.171875,0 1.289062,1.5234375 1.289062,2.6484375 z M 4.7933141,7.3278875 c 0,-0.7148438 0,-3.2929688 -2.0976563,-3.2929688 -2.09765624,0 -2.09765624,2.6015625 -2.09765624,3.2929688 0,0.7617187 0.0117188,3.2812495 2.09765624,3.2812495 2.0976563,0 2.0976563,-2.5898433 2.0976563,-3.2812495 z m -0.8085938,0 c 0,1.1015625 -0.1171875,2.6367187 -1.2890625,2.6367187 -1.171875,0 -1.2773437,-1.5703125 -1.2773437,-2.6367187 0,-1.2773438 0.1757812,-2.6484375 1.2773437,-2.6484375 1.171875,0 1.2890625,1.5234375 1.2890625,2.6484375 z M 14.174173,4.0349187 h -0.515625 c -0.316406,0.65625 -1.101562,1.265625 -1.863281,1.6171875 V 6.413825 c 0.292969,-0.1054688 1.078125,-0.46875 1.582031,-0.9492188 v 5.0390628 h 0.796875 z M 3.3753453,14.537848 h -0.515625 c -0.3164062,0.65625 -1.1015625,1.265625 -1.86328124,1.617188 v 0.761719 C 1.2894078,16.811286 2.0745641,16.448005 2.5784703,15.967536 v 5.039062 h 0.796875 z m 12.2167967,3.292969 c 0,-0.714844 0,-3.292969 -2.097656,-3.292969 -2.097656,0 -2.097656,2.601563 -2.097656,3.292969 0,0.761719 0.01172,3.28125 2.097656,3.28125 2.097656,0 2.097656,-2.589844 2.097656,-3.28125 z m -0.808594,0 c 0,1.101563 -0.117187,2.636719 -1.289062,2.636719 -1.171875,0 -1.277344,-1.570313 -1.277344,-2.636719 0,-1.277344 0.175781,-2.648437 1.277344,-2.648437 1.171875,0 1.289062,1.523437 1.289062,2.648437 z M 3.3753453,25.040778 h -0.515625 c -0.3164062,0.65625 -1.1015625,1.265625 -1.86328124,1.617188 v 0.761718 C 1.2894078,27.314216 2.0745641,26.950934 2.5784703,26.470466 v 5.039062 h 0.796875 z m 10.7988277,0 h -0.515625 c -0.316406,0.65625 -1.101562,1.265625 -1.863281,1.617188 v 0.761718 c 0.292969,-0.105468 1.078125,-0.46875 1.582031,-0.949218 v 5.039062 h 0.796875 z m 0,0"
         style="fill:#231f20;fill-opacity:1;fill-rule:nonzero;stroke:none"
         aria-label="0 0&#10;0 1&#10;1 0&#10;1 1"
         transform="matrix(1.3333333,0,0,1.3333333,472.80813,258.88573)" />
      <path
         id="path80"
         d="m 2.4375109,0.11597344 c 1.2304688,0 1.8164063,-0.6328125 1.8164063,-2.22656254 v -1.8984375 c 0,-1.1601562 -0.5859375,-1.8867187 -1.8164063,-1.8867187 -1.21875,0 -1.81640621,0.7265625 -1.81640621,1.8867187 v 1.8984375 c 0,1.59375004 0.59765621,2.22656254 1.81640621,2.22656254 z m 0,-0.609375 c -0.6914062,0 -1.0664062,-0.328125 -1.0664062,-1.59375004 v -1.9453125 c 0,-1.2070312 0.84375,-1.2539062 1.0664062,-1.2539062 0.234375,0 1.0664063,0.046875 1.0664063,1.2539062 v 1.9453125 c 0,1.26562504 -0.3632813,1.59375004 -1.0664063,1.59375004 z M 7.6289172,-1.3605891 c 0,0.66796879 -0.4453125,0.93750004 -0.796875,0.93750004 -0.46875,0 -0.6914063,-0.328125 -0.6914063,-0.82031254 v -2.8007812 h -0.65625 v 3.08203124 c 0,0.69140625 0.3867188,1.04296875 1.0898438,1.04296875 0.421875,0 0.8085937,-0.19921875 1.03125,-0.57421875 h 0.023437 v 0.4921875 h 0.6914062 c -0.023437,-0.28125 -0.035156,-0.5625 -0.035156,-0.84375 V -4.0441828 h -0.65625 z m 1.2480469,-2.6835937 v 0.4921875 h 0.65625 v 2.88281249 c 0,0.45703125 0.28125,0.71484375 0.9140629,0.71484375 0.210937,0 0.421875,-0.046875 0.644531,-0.05859375 v -0.50390625 c -0.140625,0.0117188 -0.246094,0.0234375 -0.292969,0.0234375 -0.609375,0 -0.609375,-0.328125 -0.609375,-0.58593754 v -2.4726562 h 0.878906 v -0.4921875 h -0.878906 v -1.0664063 l -0.6562499,0.2929688 v 0.7734375 z m 3.5244139,0 h -0.65625 v 5.5664062 h 0.65625 v -1.93359371 h 0.02344 c 0.222656,0.31640625 0.503906,0.4921875 0.890625,0.4921875 1.300781,0 1.335937,-1.16015629 1.335937,-2.16796879 0,-1.78125 -0.65625,-2.0390625 -1.300781,-2.0390625 -0.433594,0 -0.714844,0.1875 -0.9375,0.5625 h -0.01172 z m 0.761719,3.58593749 c -0.726563,0 -0.761719,-0.85546879 -0.761719,-1.39453129 0,-0.609375 -0.07031,-1.734375 0.738281,-1.734375 0.820313,0 0.820313,0.890625 0.820313,1.5 0,1.078125 -0.09375,1.62890629 -0.796875,1.62890629 z m 4.69043,-0.90234379 c 0,0.66796879 -0.445313,0.93750004 -0.796875,0.93750004 -0.46875,0 -0.691407,-0.328125 -0.691407,-0.82031254 v -2.8007812 h -0.65625 v 3.08203124 c 0,0.69140625 0.386719,1.04296875 1.089844,1.04296875 0.421875,0 0.808594,-0.19921875 1.03125,-0.57421875 h 0.02344 v 0.4921875 h 0.691406 c -0.02344,-0.28125 -0.03516,-0.5625 -0.03516,-0.84375 V -4.0441828 h -0.65625 z m 1.248046,-2.6835937 v 0.4921875 h 0.65625 v 2.88281249 c 0,0.45703125 0.28125,0.71484375 0.914063,0.71484375 0.210937,0 0.421875,-0.046875 0.644531,-0.05859375 v -0.50390625 c -0.140625,0.0117188 -0.246094,0.0234375 -0.292969,0.0234375 -0.609375,0 -0.609375,-0.328125 -0.609375,-0.58593754 v -2.4726562 h 0.878907 v -0.4921875 h -0.878907 v -1.0664063 l -0.65625,0.2929688 v 0.7734375 z m 0,0"
         style="fill:#231f20;fill-opacity:1;fill-rule:nonzero;stroke:none"
         aria-label="Output"
         transform="matrix(1.3333333,0,0,1.3333333,524.23827,233.5524)" />
      <path
         id="path81"
         d="m 4.7937297,-3.1769953 c 0,-0.7148438 0,-3.2929688 -2.0976563,-3.2929688 -2.09765621,0 -2.09765621,2.6015625 -2.09765621,3.2929688 0,0.7617187 0.0117188,3.28124999 2.09765621,3.28124999 2.0976563,0 2.0976563,-2.58984379 2.0976563,-3.28124999 z m -0.8085938,0 c 0,1.1015625 -0.1171875,2.63671874 -1.2890625,2.63671874 -1.171875,0 -1.2773437,-1.57031254 -1.2773437,-2.63671874 0,-1.2773438 0.1757812,-2.6484375 1.2773437,-2.6484375 1.171875,0 1.2890625,1.5234375 1.2890625,2.6484375 z M 3.3757609,4.0329656 H 2.8601359 C 2.5437297,4.6892156 1.7585734,5.2985906 0.99685469,5.6501531 V 6.4118719 C 1.2898234,6.3064031 2.0749797,5.9431219 2.5788859,5.4626531 v 5.0390629 h 0.796875 z m 0,10.5029294 h -0.515625 c -0.3164062,0.65625 -1.1015625,1.265625 -1.86328121,1.617188 v 0.761719 C 1.2898234,16.809333 2.0749797,16.446052 2.5788859,15.965583 v 5.039062 h 0.796875 z m 0,10.50293 h -0.515625 c -0.3164062,0.65625 -1.1015625,1.265625 -1.86328121,1.617187 v 0.761719 C 1.2898234,27.312262 2.0749797,26.948981 2.5788859,26.468512 v 5.039063 h 0.796875 z m 0,0"
         style="fill:#231f20;fill-opacity:1;fill-rule:nonzero;stroke:none"
         aria-label="0&#10;1&#10;1&#10;1"
         transform="matrix(1.3333333,0,0,1.3333333,534.86227,261.5524)" />
      <path
         id="path82"
         d="M 0,0 H 17.109"
         style="fill:none;stroke:#231f20;stroke-width:0.5;stroke-linecap:butt;stroke-linejoin:miter;stroke-miterlimit:4;stroke-dasharray:none;stroke-opacity:1"
         transform="matrix(1.3333333,0,0,-1.3333333,517.35933,364.93133)" />
      <path
         id="path83"
         d="M 0,0 H 24.595"
         style="fill:none;stroke:#231f20;stroke-width:0.5;stroke-linecap:butt;stroke-linejoin:miter;stroke-miterlimit:4;stroke-dasharray:none;stroke-opacity:1"
         transform="matrix(1.3333333,0,0,-1.3333333,470.41533,364.93133)" />
      <g
         id="g83"
         aria-label="NOT&#10;Inputs&#10;Output"
         transform="matrix(1.3333333,0,0,1.3333333,432.3828,337.348)">
        <path
           id="path84"
           d="M 1.6406344,-2.578125e-4 V -4.2307266 h 0.011719 l 1.5820313,4.2304687875 h 1.59375 V -5.7776016 h -1.125 v 3.9960938 H 3.6796969 L 2.1445406,-5.7776016 H 0.51563438 V -2.578125e-4 Z M 7.7724703,0.09349219 c 1.9921875,0 1.9921875,-1.46484379 1.9921875,-2.98828129 0,-1.5234375 0,-2.9765625 -1.9921875,-2.9765625 -1.9921875,0 -1.9921875,1.453125 -1.9921875,2.9765625 0,1.5234375 0,2.98828129 1.9921875,2.98828129 z m 0,-0.8671875 c -0.6796875,0 -0.7617187,-0.63281249 -0.7617187,-2.12109379 0,-1.4765625 0.082031,-2.1210937 0.7617187,-2.1210937 0.6796875,0 0.7734375,0.6445312 0.7734375,2.1210937 0,1.4882813 -0.09375,2.12109379 -0.7734375,2.12109379 z M 10.271494,-5.7776016 v 0.9609375 h 1.347656 v 4.8164062875 h 1.207031 V -4.8166641 h 1.347657 v -0.9609375 z m 0,0"
           style="fill:#231f20;fill-opacity:1;fill-rule:nonzero;stroke:none" />
        <path
           id="path85"
           d="M 6.1406344,17.094469 H 5.4140719 v 5.777344 h 0.7265625 z m 4.1689456,5.777344 v -2.800782 c 0,-0.796875 -0.210938,-1.324218 -1.0781253,-1.324218 -0.515625,0 -0.8203125,0.152343 -1.078125,0.597656 H 8.1181734 V 18.828844 H 7.4267672 c 0.023437,0.28125 0.035156,0.5625 0.035156,0.84375 v 3.199219 h 0.65625 v -2.390625 c 0,-0.550782 0.1054688,-1.195313 0.8320313,-1.195313 0.5507812,0 0.703125,0.351563 0.703125,0.785156 v 2.800782 z m 1.866211,-4.042969 h -0.65625 v 5.566406 h 0.65625 v -1.933594 h 0.02344 c 0.222656,0.316407 0.503906,0.492188 0.890625,0.492188 1.300781,0 1.335938,-1.160156 1.335938,-2.167969 0,-1.78125 -0.65625,-2.039062 -1.300782,-2.039062 -0.433593,0 -0.714843,0.1875 -0.9375,0.5625 h -0.01172 z m 0.761718,3.585937 c -0.726562,0 -0.761718,-0.855468 -0.761718,-1.394531 0,-0.609375 -0.07031,-1.734375 0.738281,-1.734375 0.820312,0 0.820312,0.890625 0.820312,1.5 0,1.078125 -0.09375,1.628906 -0.796875,1.628906 z m 4.69336,-0.902343 c 0,0.667968 -0.445313,0.9375 -0.796875,0.9375 -0.46875,0 -0.691406,-0.328125 -0.691406,-0.820313 v -2.800781 h -0.65625 v 3.082031 c 0,0.691406 0.386718,1.042969 1.089843,1.042969 0.421875,0 0.808594,-0.199219 1.03125,-0.574219 h 0.02344 v 0.492188 h 0.691406 c -0.02344,-0.28125 -0.03516,-0.5625 -0.03516,-0.84375 v -3.199219 h -0.65625 z m 1.245117,-2.683594 v 0.492187 h 0.65625 v 2.882813 c 0,0.457031 0.28125,0.714844 0.914062,0.714844 0.210938,0 0.421875,-0.04687 0.644532,-0.05859 v -0.503906 c -0.140625,0.01172 -0.246094,0.02344 -0.292969,0.02344 -0.609375,0 -0.609375,-0.328125 -0.609375,-0.585937 v -2.472657 h 0.878906 v -0.492187 h -0.878906 v -1.066406 l -0.65625,0.292968 v 0.773438 z m 5.411133,2.894531 c 0,-1.242187 -2.015625,-1.21875 -2.015625,-1.933594 0,-0.351562 0.269531,-0.539062 0.621094,-0.539062 0.421875,0 0.644531,0.222656 0.632812,0.644531 h 0.726563 c 0.05859,-0.796875 -0.550782,-1.148437 -1.277344,-1.148437 -1.136719,0 -1.394531,0.679687 -1.394531,1.113281 0,1.207031 2.015625,1.21875 2.015625,1.933594 0,0.421875 -0.304688,0.621093 -0.691407,0.621093 -0.667968,0 -0.667968,-0.539062 -0.667968,-0.773437 h -0.75 c -0.02344,0.925781 0.515625,1.3125 1.394531,1.3125 0.796875,0 1.40625,-0.351563 1.40625,-1.230469 z m 63.389648,1.880859 c 1.230469,0 1.816406,-0.632812 1.816406,-2.226562 v -1.898438 c 0,-1.160156 -0.585937,-1.886718 -1.816406,-1.886718 -1.21875,0 -1.816406,0.726562 -1.816406,1.886718 v 1.898438 c 0,1.59375 0.597656,2.226562 1.816406,2.226562 z m 0,-0.609375 c -0.691406,0 -1.066406,-0.328125 -1.066406,-1.59375 v -1.945312 c 0,-1.207031 0.84375,-1.253906 1.066406,-1.253906 0.234375,0 1.066406,0.04687 1.066406,1.253906 v 1.945312 c 0,1.265625 -0.363281,1.59375 -1.066406,1.59375 z m 5.194336,-0.867187 c 0,0.667969 -0.445312,0.9375 -0.796875,0.9375 -0.46875,0 -0.691406,-0.328125 -0.691406,-0.820313 v -2.800781 h -0.65625 v 3.082031 c 0,0.691407 0.386719,1.042969 1.089844,1.042969 0.421875,0 0.808593,-0.199219 1.03125,-0.574219 h 0.02344 v 0.492188 h 0.691406 c -0.02344,-0.28125 -0.03516,-0.5625 -0.03516,-0.84375 v -3.199219 h -0.65625 z m 1.245117,-2.683594 v 0.492188 h 0.65625 v 2.882812 c 0,0.457031 0.28125,0.714844 0.914063,0.714844 0.210937,0 0.421875,-0.04687 0.644531,-0.05859 v -0.503906 c -0.140625,0.01172 -0.246094,0.02344 -0.292969,0.02344 -0.609375,0 -0.609375,-0.328125 -0.609375,-0.585937 v -2.472656 h 0.878907 V 19.444078 H 95.42872 v -1.066406 l -0.65625,0.292969 v 0.773437 z m 3.524414,0 h -0.65625 v 5.566406 h 0.65625 v -1.933593 h 0.02344 c 0.222656,0.316406 0.503906,0.492187 0.890625,0.492187 1.300781,0 1.335937,-1.160156 1.335937,-2.167969 0,-1.78125 -0.65625,-2.039062 -1.300781,-2.039062 -0.433594,0 -0.714844,0.1875 -0.9375,0.5625 h -0.01172 z m 0.761719,3.585938 c -0.726562,0 -0.761719,-0.855469 -0.761719,-1.394532 0,-0.609375 -0.07031,-1.734375 0.738282,-1.734375 0.820312,0 0.820312,0.890625 0.820312,1.5 0,1.078125 -0.09375,1.628907 -0.796875,1.628907 z m 4.690427,-0.902344 c 0,0.667969 -0.44531,0.9375 -0.79687,0.9375 -0.46875,0 -0.69141,-0.328125 -0.69141,-0.820313 v -2.800781 h -0.65625 v 3.082031 c 0,0.691407 0.38672,1.042969 1.08985,1.042969 0.42187,0 0.80859,-0.199219 1.03125,-0.574219 h 0.0234 v 0.492188 h 0.69141 c -0.0234,-0.28125 -0.0352,-0.5625 -0.0352,-0.84375 v -3.199219 h -0.65625 z m 1.24805,-2.683594 v 0.492188 h 0.65625 v 2.882812 c 0,0.457031 0.28125,0.714844 0.91406,0.714844 0.21094,0 0.42188,-0.04687 0.64453,-0.05859 v -0.503906 c -0.14062,0.01172 -0.24609,0.02344 -0.29297,0.02344 -0.60937,0 -0.60937,-0.328125 -0.60937,-0.585937 v -2.472656 h 0.87891 v -0.492188 h -0.87891 v -1.066406 l -0.65625,0.292969 v 0.773437 z m 0,0"
           style="fill:#231f20;fill-opacity:1;fill-rule:nonzero;stroke:none" />
      </g>
      <path
         id="path86"
         d="m 424.367,449.208 h -82.18 v 47.516 h 82.18 z"
         style="fill:#cad5af;fill-opacity:1;fill-rule:nonzero;stroke:none"
         transform="matrix(1.3333333,0,0,-1.3333333,0,1064)" />
      <path
         id="path87"
         d="M 0,0 H 82.18"
         style="fill:none;stroke:#ffffff;stroke-width:1;stroke-linecap:butt;stroke-linejoin:miter;stroke-miterlimit:4;stroke-dasharray:none;stroke-opacity:1"
         transform="matrix(1.3333333,0,0,-1.3333333,456.24867,428.6188)" />
      <path
         id="path88"
         d="M 0,0 V 47.539"
         style="fill:none;stroke:#ffffff;stroke-width:1;stroke-linecap:butt;stroke-linejoin:miter;stroke-miterlimit:4;stroke-dasharray:none;stroke-opacity:1"
         transform="matrix(1.3333333,0,0,-1.3333333,511.03507,465.08747)" />
      <path
         id="path89"
         d="M 1.4755406,-5.7775109 H 0.74897813 V -1.671875e-4 H 1.4755406 Z M 5.6444859,-1.671875e-4 V -2.8009484 c 0,-0.796875 -0.2109375,-1.3242188 -1.078125,-1.3242188 -0.515625,0 -0.8203125,0.1523438 -1.078125,0.5976563 h -0.035156 v -0.515625 H 2.7616734 c 0.023437,0.28125 0.035156,0.5625 0.035156,0.84375 v 3.1992187125 h 0.65625 V -2.3907922 c 0,-0.5507812 0.1054687,-1.1953125 0.8320312,-1.1953125 0.5507813,0 0.703125,0.3515625 0.703125,0.7851563 V -1.671875e-4 Z M 7.5136266,-4.0431359 h -0.65625 v 5.5664062 h 0.65625 v -1.93359374 h 0.023437 c 0.2226562,0.31640625 0.5039062,0.4921875 0.890625,0.4921875 1.3007812,0 1.3359375,-1.16015626 1.3359375,-2.16796876 0,-1.78125 -0.65625,-2.0390625 -1.3007813,-2.0390625 -0.4335937,0 -0.7148437,0.1875 -0.9375,0.5625 h -0.011719 z m 0.7617187,3.58593746 c -0.7265625,0 -0.7617187,-0.85546876 -0.7617187,-1.39453126 0,-0.609375 -0.070312,-1.734375 0.7382812,-1.734375 0.8203125,0 0.8203125,0.890625 0.8203125,1.5 0,1.078125 -0.09375,1.62890626 -0.796875,1.62890626 z M 12.965775,-1.3595422 c 0,0.66796876 -0.445312,0.93750001 -0.796875,0.93750001 -0.46875,0 -0.691406,-0.328125 -0.691406,-0.82031251 v -2.8007812 h -0.65625 v 3.08203121 c 0,0.69140625 0.386719,1.04296875 1.089844,1.04296875 0.421875,0 0.808593,-0.19921875 1.03125,-0.57421875 h 0.02344 v 0.4921875025 h 0.691406 C 13.633744,-0.28141719 13.622025,-0.56266719 13.622025,-0.84391719 V -4.0431359 h -0.65625 z m 1.245117,-2.6835937 v 0.4921875 h 0.65625 v 2.88281246 c 0,0.45703125 0.28125,0.71484375 0.914063,0.71484375 0.210937,0 0.421875,-0.0468749975 0.644531,-0.05859375 v -0.50390625 c -0.140625,0.0117188 -0.246094,0.0234375 -0.292969,0.0234375 -0.609375,0 -0.609375,-0.328125 -0.609375,-0.58593751 v -2.4726562 h 0.878906 v -0.4921875 h -0.878906 v -1.0664063 l -0.65625,0.2929688 v 0.7734375 z m 5.414063,2.8945312 c 0,-1.2421875 -2.015625,-1.21875 -2.015625,-1.9335937 0,-0.3515625 0.269531,-0.5390625 0.621093,-0.5390625 0.421875,0 0.644532,0.2226562 0.632813,0.6445312 h 0.726562 c 0.05859,-0.796875 -0.550781,-1.1484375 -1.277343,-1.1484375 -1.136719,0 -1.394532,0.6796875 -1.394532,1.1132813 0,1.2070312 2.015625,1.21875 2.015625,1.9335937 0,0.42187501 -0.304687,0.62109376 -0.691406,0.62109376 -0.667969,0 -0.667969,-0.5390625 -0.667969,-0.77343746 h -0.75 c -0.02344,0.92578121 0.515625,1.31249996 1.394532,1.31249996 0.796875,0 1.40625,-0.3515625 1.40625,-1.23046876 z m 0,0"
         style="fill:#231f20;fill-opacity:1;fill-rule:nonzero;stroke:none"
         aria-label="Inputs"
         transform="matrix(1.3333333,0,0,1.3333333,470.2748,417.71507)" />
      <path
         id="path90"
         d="m 4.7927281,-3.176925 c 0,-0.7148438 0,-3.2929688 -2.0976562,-3.2929688 -2.09765627,0 -2.09765627,2.6015625 -2.09765627,3.2929688 0,0.7617187 0.0117188,3.28125 2.09765627,3.28125 2.0976562,0 2.0976562,-2.5898438 2.0976562,-3.28125 z m -0.8085937,0 c 0,1.1015625 -0.1171875,2.63671875 -1.2890625,2.63671875 -1.171875,0 -1.2773438,-1.57031255 -1.2773438,-2.63671875 0,-1.2773438 0.1757813,-2.6484375 1.2773438,-2.6484375 1.171875,0 1.2890625,1.5234375 1.2890625,2.6484375 z M 3.3747594,4.0330359 H 2.8591344 C 2.5427281,4.6892859 1.7575719,5.2986609 0.99585313,5.6502234 V 6.4119422 C 1.2888219,6.3064734 2.0739781,5.9431922 2.5778844,5.4627234 v 5.0390626 h 0.796875 z m 0,0"
         style="fill:#231f20;fill-opacity:1;fill-rule:nonzero;stroke:none"
         aria-label="0&#10;1"
         transform="matrix(1.3333333,0,0,1.3333333,480.00813,443.0484)" />
      <path
         id="path91"
         d="m 2.4375109,0.11702031 c 1.2304688,0 1.8164063,-0.6328125 1.8164063,-2.22656251 v -1.8984375 c 0,-1.1601562 -0.5859375,-1.8867187 -1.8164063,-1.8867187 -1.21875,0 -1.81640621,0.7265625 -1.81640621,1.8867187 v 1.8984375 c 0,1.59375001 0.59765621,2.22656251 1.81640621,2.22656251 z m 0,-0.609375 c -0.6914062,0 -1.0664062,-0.328125 -1.0664062,-1.59375001 v -1.9453125 c 0,-1.2070312 0.84375,-1.2539062 1.0664062,-1.2539062 0.234375,0 1.0664063,0.046875 1.0664063,1.2539062 v 1.9453125 c 0,1.26562501 -0.3632813,1.59375001 -1.0664063,1.59375001 z M 7.6289172,-1.3595422 c 0,0.66796876 -0.4453125,0.93750001 -0.796875,0.93750001 -0.46875,0 -0.6914063,-0.328125 -0.6914063,-0.82031251 v -2.8007812 h -0.65625 v 3.08203121 c 0,0.69140625 0.3867188,1.04296875 1.0898438,1.04296875 0.421875,0 0.8085937,-0.19921875 1.03125,-0.57421875 h 0.023437 V -1.671875e-4 H 8.3203234 C 8.2968859,-0.28141719 8.2851672,-0.56266719 8.2851672,-0.84391719 V -4.0431359 h -0.65625 z m 1.2480469,-2.6835937 v 0.4921875 h 0.65625 v 2.88281246 c 0,0.45703125 0.28125,0.71484375 0.9140629,0.71484375 0.210937,0 0.421875,-0.0468749975 0.644531,-0.05859375 v -0.50390625 c -0.140625,0.0117188 -0.246094,0.0234375 -0.292969,0.0234375 -0.609375,0 -0.609375,-0.328125 -0.609375,-0.58593751 v -2.4726562 h 0.878906 v -0.4921875 h -0.878906 v -1.0664063 l -0.6562499,0.2929688 v 0.7734375 z m 3.5244139,0 h -0.65625 v 5.5664062 h 0.65625 v -1.93359374 h 0.02344 c 0.222656,0.31640625 0.503906,0.4921875 0.890625,0.4921875 1.300781,0 1.335937,-1.16015626 1.335937,-2.16796876 0,-1.78125 -0.65625,-2.0390625 -1.300781,-2.0390625 -0.433594,0 -0.714844,0.1875 -0.9375,0.5625 h -0.01172 z m 0.761719,3.58593746 c -0.726563,0 -0.761719,-0.85546876 -0.761719,-1.39453126 0,-0.609375 -0.07031,-1.734375 0.738281,-1.734375 0.820313,0 0.820313,0.890625 0.820313,1.5 0,1.078125 -0.09375,1.62890626 -0.796875,1.62890626 z m 4.69043,-0.90234376 c 0,0.66796876 -0.445313,0.93750001 -0.796875,0.93750001 -0.46875,0 -0.691407,-0.328125 -0.691407,-0.82031251 v -2.8007812 h -0.65625 v 3.08203121 c 0,0.69140625 0.386719,1.04296875 1.089844,1.04296875 0.421875,0 0.808594,-0.19921875 1.03125,-0.57421875 h 0.02344 v 0.4921875025 h 0.691406 C 18.521495,-0.28141719 18.509777,-0.56266719 18.509777,-0.84391719 V -4.0431359 h -0.65625 z m 1.248046,-2.6835937 v 0.4921875 h 0.65625 v 2.88281246 c 0,0.45703125 0.28125,0.71484375 0.914063,0.71484375 0.210937,0 0.421875,-0.0468749975 0.644531,-0.05859375 v -0.50390625 c -0.140625,0.0117188 -0.246094,0.0234375 -0.292969,0.0234375 -0.609375,0 -0.609375,-0.328125 -0.609375,-0.58593751 v -2.4726562 h 0.878907 v -0.4921875 h -0.878907 v -1.0664063 l -0.65625,0.2929688 v 0.7734375 z m 0,0"
         style="fill:#231f20;fill-opacity:1;fill-rule:nonzero;stroke:none"
         aria-label="Output"
         transform="matrix(1.3333333,0,0,1.3333333,524.23827,417.71507)" />
      <path
         id="path92"
         d="m 3.3757609,-6.4698938 h -0.515625 c -0.3164062,0.65625 -1.1015625,1.265625 -1.86328121,1.6171875 v 0.7617188 C 1.2898234,-4.1964563 2.0749797,-4.5597375 2.5788859,-5.0402063 v 5.03906255 h 0.796875 z M 4.7937297,7.3260047 c 0,-0.7148438 0,-3.2929688 -2.0976563,-3.2929688 -2.09765621,0 -2.09765621,2.6015625 -2.09765621,3.2929688 0,0.7617187 0.0117188,3.2812503 2.09765621,3.2812503 2.0976563,0 2.0976563,-2.5898441 2.0976563,-3.2812503 z m -0.8085938,0 c 0,1.1015625 -0.1171875,2.6367187 -1.2890625,2.6367187 -1.171875,0 -1.2773437,-1.5703125 -1.2773437,-2.6367187 0,-1.2773438 0.1757812,-2.6484375 1.2773437,-2.6484375 1.171875,0 1.2890625,1.5234375 1.2890625,2.6484375 z m 0,0"
         style="fill:#231f20;fill-opacity:1;fill-rule:nonzero;stroke:none"
         aria-label="1&#10;0"
         transform="matrix(1.3333333,0,0,1.3333333,534.86227,443.0484)" />
      <path
         id="path93"
         d="m 0,0 c -6.617,-12.76 -26.906,-10.793 -26.906,-10.793 0,0 2,3.918 2,10.793 0,6.875 -2,10.895 -2,10.895 0,0 20.32,1.918 26.914,-10.895 z"
         style="fill:#7ba6b9;fill-opacity:1;fill-rule:nonzero;stroke:#255b76;stroke-width:1;stroke-linecap:round;stroke-linejoin:round;stroke-miterlimit:10;stroke-dasharray:none;stroke-opacity:1"
         transform="matrix(1.3333333,0,0,-1.3333333,528.9544,180.58493)"
         clip-path="url(#clipPath94)" />
      <path
         id="path95"
         d="m 0,0 c -5.658,-10.91 -23.005,-9.228 -23.005,-9.228 0,0 1.71,3.35 1.71,9.228 0,5.878 -1.71,9.314 -1.71,9.314 0,0 17.374,1.641 23.012,-9.314 z"
         style="fill:none;stroke:#c5dae2;stroke-width:0.5;stroke-linecap:round;stroke-linejoin:round;stroke-miterlimit:10;stroke-dasharray:none;stroke-opacity:1"
         transform="matrix(1.3333333,0,0,-1.3333333,526.35413,180.57587)"
         clip-path="url(#clipPath96)" />
      <path
         id="path97"
         d="m 0,0 h 14.25 c 4.924,0 8.916,-4.664 8.916,-10.416 0,-5.754 -3.867,-10.793 -8.791,-10.793 H 0 Z"
         style="fill:#fbca8e;fill-opacity:1;fill-rule:nonzero;stroke:#f89c35;stroke-width:1;stroke-linecap:butt;stroke-linejoin:miter;stroke-miterlimit:10;stroke-dasharray:none;stroke-opacity:1"
         transform="matrix(1.3333333,0,0,-1.3333333,250.73373,166.39547)"
         clip-path="url(#clipPath98)" />
      <path
         id="path99"
         d="m 0,0 h 12.184 c 4.21,0 7.623,-3.988 7.623,-8.906 0,-4.919 -3.306,-9.228 -7.516,-9.228 H 0 Z"
         style="fill:none;stroke:#fde9cf;stroke-width:0.5;stroke-linecap:butt;stroke-linejoin:miter;stroke-miterlimit:10;stroke-dasharray:none;stroke-opacity:1"
         transform="matrix(1.3333333,0,0,-1.3333333,252.97267,168.4456)"
         clip-path="url(#clipPath100)" />
      <path
         id="path101"
         d="M 0,0 12.279,7.012 0,14.023 Z"
         style="fill:#a892a9;fill-opacity:1;fill-rule:nonzero;stroke:#62455f;stroke-width:1;stroke-linecap:butt;stroke-linejoin:miter;stroke-miterlimit:10;stroke-dasharray:none;stroke-opacity:1"
         transform="matrix(1.3333333,0,0,-1.3333333,495.64053,374.28027)"
         clip-path="url(#clipPath102)" />
      <path
         id="path103"
         d="M 0,0 8.466,4.601 0,9.201 Z"
         style="fill:none;stroke:#dacfdb;stroke-width:0.5;stroke-linecap:butt;stroke-linejoin:miter;stroke-miterlimit:10;stroke-dasharray:none;stroke-opacity:1"
         transform="matrix(1.3333333,0,0,-1.3333333,497.41147,371.06533)"
         clip-path="url(#clipPath104)" />
      <path
         id="path105"
         d="m 0,0 c 0,-0.998 -0.811,-1.807 -1.809,-1.807 -0.996,0 -1.806,0.809 -1.806,1.807 0,0.998 0.81,1.809 1.806,1.809 C -0.811,1.809 0,0.998 0,0"
         style="fill:#a9ba84;fill-opacity:1;fill-rule:nonzero;stroke:none"
         transform="matrix(1.3333333,0,0,-1.3333333,518.1836,364.8792)"
         clip-path="url(#clipPath106)" />
      <path
         id="path107"
         d="m 0,0 c -0.193,-0.791 -0.9,-1.379 -1.752,-1.379 -0.848,0 -1.557,0.588 -1.75,1.379 -0.033,-0.137 -0.057,-0.279 -0.057,-0.428 0,-0.998 0.811,-1.808 1.807,-1.808 0.998,0 1.809,0.81 1.809,1.808"
         style="fill:#7e944f;fill-opacity:1;fill-rule:nonzero;stroke:none"
         transform="matrix(1.3333333,0,0,-1.3333333,518.108,364.41307)"
         clip-path="url(#clipPath108)" />
      <g
         opacity="0.800003"
         id="g110"
         clip-path="url(#clipPath111)">
        <path
           d="m 0,0 c 0,-0.365 -0.297,-0.662 -0.66,-0.662 -0.369,0 -0.664,0.297 -0.664,0.662 0,0.367 0.295,0.662 0.664,0.662 C -0.297,0.662 0,0.367 0,0"
           style="fill:#ffffff;fill-opacity:1;fill-rule:nonzero;stroke:none"
           transform="matrix(1.3333333,0,0,-1.3333333,516.33453,364.07707)"
           clip-path="url(#clipPath109)"
           id="path110" />
      </g>
      <path
         id="path112"
         d="m 0,0 c 0,-0.967 -0.783,-1.75 -1.75,-1.75 -0.967,0 -1.75,0.783 -1.75,1.75 0,0.967 0.783,1.75 1.75,1.75 C -0.783,1.75 0,0.967 0,0"
         style="fill:none;stroke:#647c33;stroke-width:0.5;stroke-linecap:butt;stroke-linejoin:miter;stroke-miterlimit:4;stroke-dasharray:none;stroke-opacity:1"
         transform="matrix(1.3333333,0,0,-1.3333333,518.10547,364.93133)"
         clip-path="url(#clipPath113)" />
      <path
         id="path114"
         d="m 0,0 c -6.617,-12.76 -26.906,-10.793 -26.906,-10.793 0,0 2,3.918 2,10.793 0,6.875 -2,10.895 -2,10.895 0,0 20.32,1.918 26.914,-10.895 z"
         style="fill:#f6836c;fill-opacity:1;fill-rule:nonzero;stroke:#ed1c24;stroke-width:1;stroke-linecap:round;stroke-linejoin:round;stroke-miterlimit:10;stroke-dasharray:none;stroke-opacity:1"
         transform="matrix(1.3333333,0,0,-1.3333333,286.0852,364.8128)"
         clip-path="url(#clipPath115)" />
      <path
         id="path116"
         d="m 0,0 c -5.658,-10.91 -23.005,-9.228 -23.005,-9.228 0,0 1.71,3.35 1.71,9.228 0,5.878 -1.71,9.314 -1.71,9.314 0,0 17.374,1.641 23.011,-9.314 z"
         style="fill:none;stroke:#e8c5c0;stroke-width:0.5;stroke-linecap:round;stroke-linejoin:round;stroke-miterlimit:10;stroke-dasharray:none;stroke-opacity:1"
         transform="matrix(1.3333333,0,0,-1.3333333,283.4856,364.8036)"
         clip-path="url(#clipPath117)" />
      <path
         id="path118"
         d="M 0,0 C 0,6.875 -2,10.895 -2,10.895"
         style="fill:none;stroke:#ed1c24;stroke-width:1;stroke-linecap:round;stroke-linejoin:round;stroke-miterlimit:10;stroke-dasharray:none;stroke-opacity:1"
         transform="matrix(1.3333333,0,0,-1.3333333,248.4472,364.89347)"
         clip-path="url(#clipPath119)" />
      <path
         id="path120"
         d="M 0,0 C 0,0 2,3.918 2,10.793"
         style="fill:none;stroke:#ed1c24;stroke-width:1;stroke-linecap:round;stroke-linejoin:round;stroke-miterlimit:10;stroke-dasharray:none;stroke-opacity:1"
         transform="matrix(1.3333333,0,0,-1.3333333,245.78053,379.28413)"
         clip-path="url(#clipPath121)" />
    </g>
  </g>
</svg>
