<?xml version="1.0" encoding="UTF-8" standalone="no"?>
<!-- Created with Inkscape (http://www.inkscape.org/) -->

<svg
   width="1250"
   height="643.73798"
   viewBox="0 0 1250 643.73798"
   version="1.1"
   id="svg1"
   xml:space="preserve"
   inkscape:version="1.4.3 (0d15f75042, 2025-12-25)"
   sodipodi:docname="icon-w-margins-w-bg.svg"
   inkscape:export-filename="icon-w-margins-w-bg.png"
   inkscape:export-xdpi="96"
   inkscape:export-ydpi="96"
   xmlns:inkscape="http://www.inkscape.org/namespaces/inkscape"
   xmlns:sodipodi="http://sodipodi.sourceforge.net/DTD/sodipodi-0.dtd"
   xmlns="http://www.w3.org/2000/svg"
   xmlns:svg="http://www.w3.org/2000/svg"
   xmlns:rdf="http://www.w3.org/1999/02/22-rdf-syntax-ns#"
   xmlns:cc="http://creativecommons.org/ns#"
   xmlns:dc="http://purl.org/dc/elements/1.1/"><title
     id="title2">Center for Metropolitan Studies</title><sodipodi:namedview
     id="namedview1"
     pagecolor="#ffffff"
     bordercolor="#000000"
     borderopacity="0.25"
     inkscape:showpageshadow="2"
     inkscape:pageopacity="0.0"
     inkscape:pagecheckerboard="0"
     inkscape:deskcolor="#d1d1d1"
     inkscape:document-units="px"
     inkscape:zoom="0.5"
     inkscape:cx="542"
     inkscape:cy="341"
     inkscape:window-width="1920"
     inkscape:window-height="1011"
     inkscape:window-x="0"
     inkscape:window-y="0"
     inkscape:window-maximized="1"
     inkscape:current-layer="layer1"
     showguides="false"
     showgrid="true"
     guidecolor="#ff00ff"
     guideopacity="1"><sodipodi:guide
       position="5.4375,592.23502"
       orientation="0,1"
       id="guide28"
       inkscape:locked="false"
       inkscape:label=""
       inkscape:color="rgb(0,134,229)" /><sodipodi:guide
       position="2,594.73502"
       orientation="0,-1"
       id="guide29"
       inkscape:locked="false" /><inkscape:grid
       id="grid102"
       units="px"
       originx="0"
       originy="0"
       spacingx="0.25"
       spacingy="0.25"
       empcolor="#0099e5"
       empopacity="0.30196078"
       color="#0099e5"
       opacity="0.14901961"
       empspacing="5"
       enabled="true"
       visible="false" /><sodipodi:guide
       position="-0.25,592.23502"
       orientation="0,-1"
       id="guide1"
       inkscape:locked="false" /></sodipodi:namedview><defs
     id="defs1"><clipPath
       clipPathUnits="userSpaceOnUse"
       id="clipPath13"><rect
         style="fill:#141414;fill-opacity:1;stroke-width:25.0421;stroke-linecap:round;stroke-linejoin:round;stroke-miterlimit:3;stroke-dasharray:25.0421, 18.7815"
         id="rect14"
         width="1000"
         height="556.64484"
         x="0"
         y="0" /></clipPath></defs><g
     inkscape:groupmode="layer"
     id="layer1"
     inkscape:label="Background"><rect
       style="fill:#ffffff;stroke-width:15;stroke-linecap:round;stroke-linejoin:round;stroke-miterlimit:0"
       id="rect1"
       width="1250"
       height="643.73798"
       x="0"
       y="0" /></g><g
     inkscape:groupmode="layer"
     id="layer13"
     inkscape:label="Graphics"
     style="display:inline"
     sodipodi:insensitive="true"><path
       id="rect302-7"
       style="display:inline;mix-blend-mode:normal;fill:#141414;fill-opacity:1;stroke-width:4.47657;stroke-linecap:round;stroke-linejoin:round;stroke-miterlimit:3;stroke-dasharray:4.47657, 3.35737"
       inkscape:label="Black Squares"
       d="m 781.03699,142.58298 v 30.20701 h 30.20702 V 142.58298 Z M 640.14062,159.79 v 10.29296 h -10.5 v 23.74999 h -8.74999 v 25.59373 18.15624 h 18.15624 v -18.15624 h 7.4375 v -19.84374 h 12.65624 v -10.29296 h 28.99998 V 159.79 H 669.6406 Z m -126.68741,9.29296 v 29.49998 h -8.1875 v -9.99999 h -38.62496 v -10.08788 h -19.24999 -29.50194 v 29.49998 h 29.50194 8.49999 v 29.96287 7.93358 h -19.24998 v 39.74997 h 39.74997 v -14.87499 h 27.24998 v -32.80856 h 1.625 8.68749 v 27.74997 h 28.93748 v -28.93747 -24.99999 h 13.24999 26.89842 v -42.68747 h -26.89842 z m 294.52909,30.89647 v 35.15622 h 4.15819 v 32.81247 H 792.1405 v 30.13475 h 30.13476 4.31835 v 24.75584 h -6.03321 v 30.13279 h 30.13476 v -24.75388 h 6.03319 14.4121 v -30.13475 h -14.4121 -6.08789 v -27.99998 h 21.64843 v -50.8984 h -9.25 -19.89842 v -8.55663 h 10.39257 v -10.64843 h -10.39257 z m 81.90814,10.90429 v 32.49997 h 32.49998 V 210.88372 Z M 639.4375,237.60635 v 8.39844 h -26.45312 v 28.4531 h 28.45312 v -7.64844 h 27.2031 v -29.2031 z m 57.45308,0.375 v 29.60154 h 29.60153 v -29.60154 z m 37.64841,38.27145 v 21.70702 h 20.80858 v 28.03514 h 28.29295 V 297.70201 H 756.24601 V 276.2528 Z m 20.80858,49.74216 h -7.95702 -21.70702 v 21.70701 h 21.70702 7.95702 z M 513.34773,284.49694 v 30.58592 h 30.58592 v -30.58592 z m 152.99209,7.08593 v 31.99998 3.75 h 31.99998 v -31.99998 -3.75 z m -209.57799,3.68555 v 19.62889 0.55664 h -4.38085 v 13.75781 12.12108 h 13.75976 v -13.75976 -1.61132 h 10.24999 v -19.6289 -11.06444 z m 423.12861,2.31445 v 31.24998 h 31.24999 v -31.24998 z m -288.30643,18.49999 v 29.08592 h -25.15038 v 29.41404 h 23.38476 v 9.33593 h 32.58395 v -18.98632 h 15.23828 v 39.15036 h 55.99995 v -18.99998 h 21.74999 v -31.24998 h -21.74999 v -5.75 h -53.20699 v -31.99997 z m -195.16002,17.74998 v 29.49998 h 29.49997 15.21679 v -29.49998 h -15.21679 z m 78.21674,10.93164 v 9.56835 h 9.56835 9.21484 0.4668 v 26.24998 2 h -9 -19.49998 v -9.99999 H 442.01576 425.89077 386.6408 v 39.24997 h 39.24997 16.12499 23.37499 v -1.25 h 19.49998 18.24999 v -26.74998 h 19.49999 v -28.74998 -3.25 h -18.99999 v -7.06835 h -2.7168 -7.49999 -9.21484 z m -147.03115,7.06835 v 31.99998 h 31.99998 v -31.99998 z m 115.09172,64.9687 v 27.99999 h 27.99998 v -27.99999 z m 33.68943,3.53125 v 27.99998 h 27.99998 v -27.99998 z m 64.74995,20.74999 v 27.99998 h 27.99998 v -27.99998 z m 232.99985,12.77929 V 501.155 h 47.29292 v -47.29294 z m -78.16401,8.30663 v 29.41404 h 29.41403 v -29.41404 z m -88.08589,2.41406 v 27.99998 h 27.99999 v -27.99998 z m -172.74986,6.5 v 27.99998 h 27.99998 v -27.99998 z" /><path
       id="rect100-9"
       style="display:inline;mix-blend-mode:normal;fill:#868485;fill-opacity:1;stroke-width:3.98692;stroke-linecap:round;stroke-linejoin:round;stroke-miterlimit:3;stroke-dasharray:3.98692, 2.99016"
       inkscape:label="Gray Squares"
       d="m 440.37513,142.99411 v 25.99998 23.74998 24.49999 h 25.99998 23.99999 14.24999 V 191.24407 H 490.3751 466.37511 V 166.7441 142.99411 Z m 354.79272,1.75 v 19.04296 h -9.04296 v 36.91403 6.89453 4.64843 h -20.20702 v 46.32614 h 46.32614 v -18.82616 h 10.79491 V 202.83 173.20112 h 0.58594 v -28.45701 z m -183.04284,6.5 v 28.99997 11.49999 h 28.99998 V 162.7441 151.24411 Z m 85.99994,1 v 29.49997 h 29.49998 v -29.49997 z m -153.49989,19.74998 v 18.99998 8.75 h 18.99998 v -18.99999 -8.74999 z m 173.70104,29.90427 v 18.0957 9.74999 h 18.09765 v -18.09569 -9.75 z m -105.48234,9.3457 v 28.03123 h 28.03123 v -28.03123 z m 28.03123,28.03123 v 26.49999 15.96873 17.99999 h 18.49999 v 25.48631 h 27.48631 V 297.744 h -19.48632 v -24.49998 -17.99999 -15.96874 z m -250.99982,-9.28124 v 25.49998 h 25.49998 18.74999 23.49998 23.74998 22.24999 V 229.99405 H 481.3751 457.62512 434.12514 415.37515 Z m 154.49989,9.74999 v 37.49998 h 32.99997 V 295.994 h 15.12499 v 29.87498 20.12499 H 626.125 640.12499 V 298.494 H 626.125 v -6.24999 -23.62499 h -21.37499 -22.87498 v -28.87498 z m -212.99985,17.74999 v 28.49998 h 28.49998 v -28.49998 z m 357.23802,2.25 v 28.74998 h 28.74998 v -28.74998 z m 86.85541,10.7246 V 297.994 h 27.52537 v -27.52537 z m 48.81052,0.22656 v 26.54881 21.24999 13.49999 h 16.61913 v 16.72655 h -46.91013 v 29.77342 h -20.36327 v 55.49996 h 38.99998 v 1.62499 6.875 h 57.74996 v -57.74996 -6.87499 h -20.49999 v -29.14842 h 20.29882 v -29.27537 h -19.34765 v -13.99999 -13.49999 -21.24999 z m -416.15401,8.54883 V 305.994 h 26.74999 2.49999 v 8.37499 h 10.125 v 29.37498 h 29.37498 v -29.37498 h -12 v -27.49998 h -27.49998 v -7.62499 h -2.49999 z m 69.24995,8.24999 v 7.49999 h 7.5 7.49999 7.5 3.75 v -7.49999 h -3.75 -7.5 -7.49999 z m 230.24984,9.87499 v 17.06249 h 17.06249 V 297.369 Z m 173.49988,18.98827 v 28.3867 h 28.3867 v -28.3867 z m -126.121,0.88672 v 31.31248 h -1.37891 -26.87498 v 26.87498 h 26.87498 12.18749 v -26.87498 h 20.5039 v -31.31248 z m -28.25389,58.18746 h -27.74998 v 27.74998 h 27.74998 z M 514.42,327.74398 v 27.49998 h 27.49998 v -27.49998 z m 154.70497,2.5 v 16.49999 h 16.49999 10.74999 v -16.49999 h -10.74999 z m -10.47069,16.52929 v 28.72068 h 28.72068 v -28.72068 z m -47.92185,11.22069 v 27.99998 h 19.62109 v 26.99998 h 37.44137 v -37.44138 h -29.06248 v -17.55858 z m -144.25185,5.76953 v 8.89452 3.38867 h -8.85546 v -8.21679 h -29.16404 v 29.16404 h 29.16404 v 12.24999 h -0.75 v 0.75 h -12.49999 v 45.99997 h 45.99997 13.24999 V 443.2439 h 10.49999 v 26.49998 h 29.74998 23.49998 19.87499 V 439.9939 h -19.87499 -23.49998 -1.5 v -36.74997 -17.99999 h -27.99998 v 17.99999 h -10.74999 v -27.19725 h -28.24998 v -5.19726 -7.08593 z m 423.39423,42.6738 v 28.74997 h 28.74998 v -28.74997 z m -163.74988,28.30662 v 26.49998 h 26.49998 V 434.74391 Z M 631,434.95679 v 45.78708 h 45.78707 9.33789 v -45.78708 h -9.33789 z m 153.12489,38.53709 v 27.24998 h 27.24998 v -27.24998 z" /><rect
       style="display:inline;fill:#141414;fill-opacity:1;stroke:none;stroke-width:29.9575;stroke-linecap:square;stroke-linejoin:miter;stroke-miterlimit:3;stroke-dasharray:none;stroke-dashoffset:0"
       id="rect29"
       width="999.99927"
       height="2.4999983"
       x="125.00037"
       y="320.61899"
       inkscape:label="Line" /><path
       id="rect1-5-6"
       style="display:inline;mix-blend-mode:normal;fill:#014691;fill-opacity:1;stroke-width:3.91694;stroke-linecap:round;stroke-linejoin:round;stroke-miterlimit:3;stroke-dasharray:3.91694, 2.93771"
       inkscape:label="Blue Squares"
       d="m 500.5079,132.74998 v 27.49998 26.99998 24.99998 h 28.74998 11.25 25.70701 v -28.74998 h -25.70701 -5.82813 V 164.0234 h -6.67187 v -4.27344 -26.99998 z m 356.12474,3.1875 v 19.68749 h -9.87499 v 38.74996 10.375 h -9.99999 v 37.99997 9.24999 10.25 28.74998 h 28.74998 1.125 v -28.74998 h -1.125 -18.49999 v -10.25 h 27.74998 v -18.99998 h 10.74999 v -38.74998 -35.18747 h 0.0625 v -23.12498 h -8.68749 z m -183.87486,7.1875 v 30.24997 11.74999 h 5.625 v 8.49999 17.18749 14.56249 h -9.125 v 24.62499 h -16.24999 v 33.24997 h -1.75 -7 v 7 h 7 1.75 v 19.99998 17.37499 h -4.25 v 27.87498 h -28.49998 v 29.49998 h 29.49998 8.99999 0.5 v -27.87498 h 19 v -18.37499 h 4 v -20.49998 h 14.74999 v -1.25 h 4.49999 v -27.24998 h -4.49999 v -10.5 h -5.5 v -7.99999 h 9.74999 v 9.74999 h 29.24998 v -29.24998 h -12.5 V 225.37491 207.24992 171.18746 153.99997 H 703.00776 V 143.12498 Z M 620.25781,384.9998 h -22.74998 -18.24999 v -18.24999 h -21.99998 -19.24998 v -7.66405 -11.39843 h -3.22657 V 327.74984 306.7733 h -7.52343 v -5.9336 -28.24998 H 495.5079 474.69542 v -13.02733 -8.81249 h 5.5625 v 8.49999 h 38.49997 2.75 v -8.49999 h 12.06249 v 29.99997 h 37.24998 10.18749 v 17.74999 h 21.24998 0.75 v -21.24998 h -0.75 -17.99997 V 243.4999 h -13.43749 -3.8125 v -22.74998 h -25.24999 -20.24999 -2.75 -36.99997 -29.99998 v 19.99998 h -8.5 v 18.81249 h -7.6875 v 26.99998 h 26.99998 7.36719 v 11.59765 h 5.28515 v 8.58984 h 8.58007 v 37.54489 11.18163 h 4.87305 v 29.87498 h 14.24999 v 8.8164 h 14.83201 v 12.08202 h 14.92382 v 5.74414 h -24.00584 v 12.63085 h -8.23046 -17.62499 v 17.62499 h 17.62499 8.8125 11.92381 v 16.36913 9.99999 h 0.64062 v 12.59765 h 10.38671 v 9.00975 h 27.99998 20.25 V 462.2263 h -27.38671 v -10.50975 h -1.75 -10.02147 v -3.2168 -4.50585 h 30.62498 3.99999 v 10.75585 h 20.75586 15.07616 11.86326 v 13.83788 4.9375 h 25.49999 v -25.49999 -4.93749 h -5.86328 v -9.375 h -21.0371 v 0.0371 h -10.46287 -7.58203 v -19.74998 h 16.08202 z M 763.9042,143.49997 v 26.6035 6.14648 h 26.60349 v -26.6035 -6.14648 z m -432.64617,7.75 v 29.49997 18.99999 28.99998 h 29.49998 v -0.0606 h 24.65623 13.56249 v -27.12493 h -13.56249 -24.65623 v -2.31445 -28.99997 -18.99999 z m 259.87481,11.87499 v 30.62497 h 30.62498 7.62499 v 10.0625 h 12.06249 10.56249 8.78124 v -12.06249 h -8.78124 -10.56249 -6.4375 v -28.62498 h -13.24999 z m 208.82992,11.52148 v 10.64842 h 10.64845 9.24999 7.64647 v -10.64842 h -7.64647 -9.24999 z m -362.45481,7.1035 v 28.99998 h 28.99998 v -28.99998 z m 340.49975,11.33398 v 30.41599 h 30.41601 v -30.41599 z m -166.74988,18.541 v 28.74998 16.62499 11.99999 h 9.74999 v 9.5 h 24.99998 v -15.74999 h 3.5 V 249.9999 h -3.5 v -15.74999 -11.99999 h -5.99999 v -10.625 z m 178.49987,22.62499 v 27.49998 h 27.49999 v -27.49998 z m -507.03089,4.81444 v 28.74998 h 28.74998 0.53125 v 9.93555 h 28.74998 v -0.125 h 9.24999 v -9.81055 h 18.21874 20.28124 v 27.49998 h 27.99998 v -15.81249 h 5.90624 v -28.74997 -0.002 -11.68555 h -25.56248 -28.62498 -27.99998 -28.74998 z m 466.65592,13.93554 v 28.87498 h 28.87498 v -28.87498 z m 135.03897,8.72461 v 28.99998 7.80663 22.19335 h 19.71483 v 19.22068 h -18.84568 -29.75 v 29.74998 h -19.46091 v 28.74998 17.60156 h 17.52342 v 11.77342 h 20.47264 v 8.71484 h 30.74998 6.87499 v -9.74999 h -6.87499 V 416.0115 h 27.31053 v -29.74998 -14.0664 h -28.56053 v -2.5 h 8.71484 v -28.99998 h 21.84569 v -29.99998 h -20.71483 v -18.97068 -22.19335 -7.80663 z m -583.53864,24.27537 v 29.74998 h 29.49998 v 13.18749 h 8.15233 v 28.06248 h 30.49998 V 326.49984 H 359.258 v -23.06248 h -6.875 v -6.875 h -18.99998 -2.75 v -10.56249 z m 489.62464,3.9668 v 18.74998 h 18.75 6.78125 v 29.4199 h 0.12694 v 0.17773 h -1.65819 -16.68553 -12.31447 v -2.68554 -9.1289 h -12.87107 v 12.87108 9.12891 h 5 v 9.99999 h 6.45507 v 10.23046 h 30.41599 2.5 v -10.73046 h 10.49999 v -17.56444 h 18.09179 v -29.43553 h -0.125 v -2.29883 h -29.43553 v -18.73435 h -6.78124 z m -50.68745,0.7832 v 5.99999 h -23.82029 v 28.25779 8.24219 h 3.37888 v 14.24999 7.99999 h -17.60934 v 8.74999 h -6.45507 v 6.75 h -4.68164 -5.82031 -6.05468 -7.75 v 7.74999 h 7.75 6.05468 0.82032 v 6.17578 h -17.81835 v 40.49997 h 12.68749 v 29.18748 h 8.74999 v 11.12499 h 10.375 v 8.0625 h 26.99998 21.74998 v -26.99998 h -13.1875 v -32.68748 h -14.18749 -5.4375 v -29.18748 -7.67577 h 7.95508 12.33593 v -16.47655 -13.27343 h 12.03124 v -0.0234 h 18.27538 v -18.47659 h -6.14648 v -19.6289 h -15.75781 v -4.37889 -3.99219 h 5.8125 v -10.24999 z m -139.40616,15.56249 v 11.81249 h -20.28124 v 8.37499 h -18.12499 v 28.24998 2 h 27.49998 v -2 h 0.75 v -5.87499 h 15.25 v -22.37499 h 15.09374 17.40624 11.34374 V 306.31236 H 638.0078 620.60156 Z m 342.60912,4.17772 v 24.24999 6.00976 h 24.24999 v -24.24998 -6.00977 z m -534.65976,28.07225 v 27.99998 h 27.99998 v -27.99998 z m -49.24996,28.02342 v 20.99999 5.74999 h -8.625 v -20.05662 h -30.49997 v 30.49998 h 29.49997 v 19.80662 h 28.28123 v 8.2207 h -8.40039 -30.24997 v 10.06249 h -28.49998 v 28.99998 h 28.99998 17.24999 v -8.8125 h 12.49998 17.56054 3.06446 5.24218 6.52148 5.38671 v 20.97069 h 31.99998 31.99998 4 v -31.99998 h -4 -31.99998 -31.99998 v 2.72266 h -5.38671 -6.52148 -5.24218 v -9.45507 h 10.51366 v -20.70897 h 28.06248 v -30.24998 h -30.24999 -18.20702 v -5.74999 -20.99999 z m 505.71644,3.10937 h 8.99608 v 9.37499 h -8.99608 z m 87.27729,28.77147 v 14.24999 14.24999 0.75 h 14.24999 v -14.24999 -0.75 -14.24999 z m -170.3202,23.78318 v 23.72069 h 7.17967 v 8.68749 1.375 h 27.49999 v -27.49998 -1.375 h -4.5 v -4.9082 h -6.45898 z m 63.48626,43.68552 v 27.99998 h 28 v -27.99998 z m -169.08384,17.05272 v 27.99998 h 27.99998 v -27.99998 z" /></g><metadata
     id="metadata2"><rdf:RDF><cc:Work
         rdf:about=""><cc:license
           rdf:resource="http://creativecommons.org/licenses/by-nc-sa/4.0/" /><dc:title>Center for Metropolitan Studies</dc:title></cc:Work><cc:License
         rdf:about="http://creativecommons.org/licenses/by-nc-sa/4.0/"><cc:permits
           rdf:resource="http://creativecommons.org/ns#Reproduction" /><cc:permits
           rdf:resource="http://creativecommons.org/ns#Distribution" /><cc:requires
           rdf:resource="http://creativecommons.org/ns#Notice" /><cc:requires
           rdf:resource="http://creativecommons.org/ns#Attribution" /><cc:prohibits
           rdf:resource="http://creativecommons.org/ns#CommercialUse" /><cc:permits
           rdf:resource="http://creativecommons.org/ns#DerivativeWorks" /><cc:requires
           rdf:resource="http://creativecommons.org/ns#ShareAlike" /></cc:License></rdf:RDF></metadata></svg>
