<?xml version="1.0" encoding="utf-8"?>
<!-- Generator: Adobe Illustrator 25.2.1, SVG Export Plug-In . SVG Version: 6.00 Build 0)  -->
<svg version="1.1" xmlns="http://www.w3.org/2000/svg" xmlns:xlink="http://www.w3.org/1999/xlink" x="0px" y="0px" width="560px"
	 height="243.05746px" viewBox="0 0 560 243.05746" style="enable-background:new 0 0 560 243.05746;" xml:space="preserve">
<style type="text/css">
	.st0{fill:#C7C5DB;}
	.st1{fill:none;stroke:#999999;stroke-width:0.75;stroke-miterlimit:10;}
	.st2{fill:#666666;}
	.st3{fill:#363636;}
	.st4{fill:#B8DFDC;}
	.st5{fill:#C8D388;}
	.st6{fill:#A1D3EB;}
	.st7{fill:#4F4F4F;}
	.st8{fill:#808080;}
	.st9{fill:#F15A24;}
	.st10{fill:#E6E6E6;}
	.st11{fill:none;stroke:#666666;stroke-width:0.7;stroke-miterlimit:10;}
	.st12{fill:#A0DCF1;}
	.st13{fill:#ED1C24;stroke:#ED1C24;stroke-width:0.4;stroke-miterlimit:10;}
	.st14{fill:none;stroke:#F15A24;stroke-miterlimit:10;}
	.st15{fill:#B3B3B3;}
	.st16{opacity:0.4;fill:#0583FF;}
	.st17{opacity:0.4;fill:#7D66FF;}
	.st18{opacity:0.6;fill:#F7A71E;}
	.st19{fill:#ECC2C2;}
	.st20{fill:#C7C9DE;}
	.st21{fill:#EECB7F;}
	.st22{fill:#B3E1F5;}
	.st23{fill:#F8AE94;}
	.st24{fill:#A7DE82;}
	.st25{fill:#FDD22A;}
	.st26{fill:none;stroke:#666666;stroke-width:0.7843;stroke-miterlimit:10;}
	.st27{fill:#ED1C24;stroke:#ED1C24;stroke-width:0.44817;stroke-miterlimit:10;}
	.st28{fill:none;stroke:#F15A24;stroke-width:1.12043;stroke-miterlimit:10;}
	.st29{fill:#FFFFFF;}
	.st30{fill:none;stroke:#5D5D5D;stroke-miterlimit:10;}
	.st31{fill:#9A9A9A;}
	.st32{fill:#999999;}
	.st33{fill:none;}
	.st34{fill:#1A1A1A;}
	.st35{fill:#CCCCCC;}
	.st36{fill:none;stroke:#B3B3B3;stroke-width:2.24085;stroke-linecap:round;stroke-linejoin:round;}
	.st37{fill:none;stroke:#B3B3B3;stroke-width:2.24085;stroke-linecap:round;stroke-linejoin:round;stroke-dasharray:0,5.5724;}
	.st38{fill:none;stroke:#808080;stroke-width:1.12043;stroke-linecap:round;stroke-linejoin:round;}
	.st39{fill:none;stroke:#B3B3B3;stroke-width:2;stroke-linecap:round;stroke-linejoin:round;}
	.st40{fill:none;stroke:#B3B3B3;stroke-width:2;stroke-linecap:round;stroke-linejoin:round;stroke-dasharray:0,4.97347;}
	.st41{fill:none;stroke:#808080;stroke-linecap:round;stroke-linejoin:round;}
	.st42{display:none;}
	.st43{display:inline;}
	.st44{fill:#6EA8AB;}
	.st45{fill:#809B49;}
	.st46{fill:#818AB9;}
</style>
<g id="Infog">
	<circle class="st10" cx="446.42514" cy="68.32487" r="21.03758"/>
	<path class="st4" d="M156.53577,85.31795H99.69735c-8.76501,0-15.87045-7.10545-15.87045-15.87045v-0.00003
		c0-8.765,7.10544-15.87045,15.87045-15.87045h56.83842c8.765,0,15.87044,7.10544,15.87044,15.87045v0.00003
		C172.4062,78.2125,165.30077,85.31795,156.53577,85.31795z"/>
	<path class="st17" d="M311.96454,63.1731v56.83842c0,8.765-7.10544,15.87044-15.87045,15.87044h-0.00003
		c-8.76498,0-15.87042-7.10544-15.87042-15.87044V63.1731c0-8.765,7.10544-15.87044,15.87042-15.87044h0.00003
		C304.8591,47.30266,311.96454,54.4081,311.96454,63.1731z"/>
	<polygon class="st7" points="207.05829,94.23036 201.90088,89.07296 207.05823,83.91562 206.2686,83.12599 201.11125,88.28333 
		195.95392,83.12599 195.16422,83.91569 200.32156,89.07302 195.16422,94.23036 195.95386,95.01999 201.11119,89.86266 
		206.2686,95.02006 	"/>
	<g>
		<g>
			<path class="st8" d="M132.58299,25.89837h-6.59961l-1.3457,3.72607h-2.42383l5.74609-15.93652h2.64844l5.74609,15.93652h-2.42383
				L132.58299,25.89837z M131.79784,23.6762l-2.51367-6.93555l-2.49219,6.93555H131.79784z"/>
		</g>
	</g>
	<g>
		<g>
			<path class="st8" d="M278.49313,25.11272c0,2.89551-2.17578,4.51172-5.61133,4.51172h-5.11719V13.68792h4.78125
				c3.32227,0,5.05078,1.75098,5.05078,4.21973c0,1.36914-0.65234,2.4917-1.68359,3.20996
				C277.39352,21.90325,278.49313,23.29485,278.49313,25.11272z M270.0986,20.15227h2.44727
				c1.72852,0,2.69336-0.65088,2.69336-2.13232c0-1.36914-0.96484-2.10986-2.69336-2.10986h-2.44727V20.15227z M276.13766,24.97796
				c0-1.52588-1.09961-2.60352-3.14258-2.60352h-2.89648v5.02783h2.7832C275.03806,27.40227,276.13766,26.52678,276.13766,24.97796z
				"/>
		</g>
	</g>
	<circle class="st10" cx="446.42514" cy="214.77309" r="21.03758"/>
	<g>
		<polyline class="st11" points="83.14236,135.86658 76.68346,135.86658 76.68346,45.0728 83.14236,45.0728 		"/>
		<rect x="76.68346" y="45.1016" class="st2" width="1.62903" height="90.70738"/>
	</g>
	<g>
		<polyline class="st11" points="227.08372,135.86658 220.62482,135.86658 220.62482,45.0728 227.08372,45.0728 		"/>
		<rect x="220.62482" y="45.1016" class="st2" width="1.62903" height="90.70738"/>
	</g>
	<g>
		<polyline class="st11" points="318.20813,45.0728 324.66705,45.0728 324.66705,135.86658 318.20813,135.86658 		"/>
		<rect x="323.03802" y="45.1016" class="st2" width="1.62903" height="90.70738"/>
	</g>
	<g>
		<polyline class="st11" points="371.90933,135.86658 365.45044,135.86658 365.45044,45.0728 371.90933,45.0728 		"/>
		<rect x="365.45044" y="45.1016" class="st2" width="1.62903" height="90.70738"/>
	</g>
	<g>
		<polyline class="st11" points="468.93906,45.0728 475.39795,45.0728 475.39795,135.86658 468.93906,135.86658 		"/>
		<rect x="473.76892" y="45.1016" class="st2" width="1.62903" height="90.70738"/>
	</g>
	<g>
		<polyline class="st11" points="174.26678,45.0728 180.72569,45.0728 180.72569,135.86658 174.26678,135.86658 		"/>
		<rect x="179.09666" y="45.1016" class="st2" width="1.62903" height="90.70738"/>
	</g>
	<g>
		
			<rect x="344.26709" y="83.79436" transform="matrix(6.123234e-17 -1 1 6.123234e-17 253.68878 435.89468)" class="st7" width="1.04932" height="14.61719"/>
		
			<rect x="344.26709" y="79.12489" transform="matrix(6.123234e-17 -1 1 6.123234e-17 258.35828 431.22522)" class="st7" width="1.04932" height="14.61719"/>
	</g>
	<path class="st4" d="M203.9554,230.41872h-0.00003c-8.765,0-15.87044-7.10544-15.87044-15.87044v-0.00003
		c0-8.765,7.10544-15.87044,15.87044-15.87044h0.00003c8.765,0,15.87044,7.10544,15.87044,15.87044v0.00003
		C219.82584,223.31328,212.7204,230.41872,203.9554,230.41872z"/>
	<path class="st17" d="M260.82455,230.41872h-0.00003c-8.76501,0-15.87045-7.10544-15.87045-15.87044v-0.00003
		c0-8.765,7.10544-15.87044,15.87045-15.87044h0.00003c8.76498,0,15.87042,7.10544,15.87042,15.87044v0.00003
		C276.69498,223.31328,269.58954,230.41872,260.82455,230.41872z"/>
	<path class="st4" d="M318.07816,230.41872h-0.00003c-8.76501,0-15.87045-7.10544-15.87045-15.87044v-0.00003
		c0-8.765,7.10544-15.87044,15.87045-15.87044h0.00003c8.76501,0,15.87045,7.10544,15.87045,15.87044v0.00003
		C333.94861,223.31328,326.84317,230.41872,318.07816,230.41872z"/>
	<path class="st17" d="M375.44708,230.41872h-0.00003c-8.76498,0-15.87042-7.10544-15.87042-15.87044v-0.00003
		c0-8.765,7.10544-15.87044,15.87042-15.87044h0.00003c8.76501,0,15.87045,7.10544,15.87045,15.87044v0.00003
		C391.31754,223.31328,384.2121,230.41872,375.44708,230.41872z"/>
	<polygon class="st7" points="238.60289,220.81346 233.44548,215.65605 238.60283,210.49872 237.81319,209.70909 
		232.65585,214.86642 227.49852,209.70909 226.70882,210.49878 231.86617,215.65611 226.70882,220.81346 227.49846,221.60309 
		232.65579,216.44576 237.81319,221.60315 	"/>
	<polygon class="st7" points="353.07907,220.81346 347.92166,215.65605 353.07901,210.49872 352.28937,209.70909 
		347.13205,214.86642 341.9747,209.70909 341.185,210.49878 346.34235,215.65611 341.185,220.81346 341.97464,221.60309 
		347.13199,216.44576 352.28937,221.60315 	"/>
	<g>
		
			<rect x="409.48737" y="210.37746" transform="matrix(6.123234e-17 -1 1 6.123234e-17 192.32596 627.69806)" class="st7" width="1.04932" height="14.61719"/>
		
			<rect x="409.48737" y="205.70798" transform="matrix(6.123234e-17 -1 1 6.123234e-17 196.99544 623.02856)" class="st7" width="1.04932" height="14.61719"/>
	</g>
	<g>
		<g>
			<line class="st39" x1="40.16299" y1="168.74042" x2="40.16299" y2="168.74042"/>
			<line class="st40" x1="45.13644" y1="168.74042" x2="505.1821" y2="168.74042"/>
			<line class="st39" x1="507.66891" y1="168.74042" x2="507.66891" y2="168.74042"/>
		</g>
	</g>
	<rect x="440.18958" y="165.12399" class="st29" width="10.52053" height="7.8904"/>
	<g>
		<g>
			<line class="st41" x1="445.32004" y1="194.05156" x2="445.32004" y2="93.87988"/>
			<g>
				<polygon class="st8" points="449.40988,97.19337 448.67746,97.8755 445.32101,94.26368 441.96359,97.8755 441.23117,97.19337 
					445.32101,92.79537 				"/>
			</g>
		</g>
	</g>
</g>
<g id="Arrows" class="st42">
	<g class="st43">
		<g>
			<g>
				<path class="st41" d="M128.73814,51.80916c0,0,60.97034-64.01882,155.99782-7.57137"/>
				<g>
					<polygon class="st8" points="279.8252,46.17909 279.59387,45.20532 284.39221,44.07104 282.91016,39.36771 283.86511,39.06783 
						285.66882,44.79633 					"/>
				</g>
			</g>
		</g>
		<circle class="st44" cx="128.08061" cy="53.78175" r="4.16438"/>
	</g>
</g>
<g id="numbers">
	<g>
		<g>
			<g>
				<path class="st7" d="M209.3037,221.34172v1.90967h-9.80664v-1.90967h3.89062v-12.32959l-3.23047,0.80176v-2.02734
					l5.25781-1.27344v14.82861H209.3037z"/>
				<path class="st7" d="M266.40329,217.78215c0,3.08838-2.52344,5.70508-5.89453,5.70508
					c-3.41797,0-5.94139-2.6167-5.94139-5.70508c0-1.15527,0.35352-2.26318,0.99023-3.18262l5.28123-8.08643h2.33398
					l-3.74805,5.63477c0.35352-0.04736,0.70703-0.09473,1.08398-0.09473
					C263.87985,212.05315,266.40329,214.71721,266.40329,217.78215z M264.39938,217.78215
					c0-2.02734-1.67383-3.81934-3.89062-3.81934c-2.26367,0-3.91406,1.79199-3.91406,3.81934s1.65039,3.79541,3.91406,3.79541
					C262.72556,221.57756,264.39938,219.80949,264.39938,217.78215z"/>
				<path class="st7" d="M288.40329,221.62834v-5.74414h-5.73242v-0.94385h5.73242v-5.72119h0.92188v5.72119h5.75586v0.94385
					h-5.75586v5.74414H288.40329z"/>
				<path class="st7" d="M313.66891,221.34172h9.5957v1.90967h-11.64648v-1.90967c0-4.90332,9.61914-5.49268,9.61914-9.90137
					c0-1.88574-1.46289-3.25342-3.4668-3.25342c-2.47461,0-4.125,1.50879-4.125,3.5127h-2.02734
					c0-3.01758,2.54688-5.42188,6.17578-5.42188c3.11328,0,5.4707,2.07422,5.4707,5.2334
					C323.26462,217.28703,313.66891,217.89983,313.66891,221.34172z"/>
				<path class="st7" d="M380.66891,218.32414c0,2.87646-2.35742,5.06885-5.82227,5.06885s-5.82227-2.19238-5.82227-5.06885
					c0-1.95654,1.1543-3.46533,2.73438-4.31396c-1.03711-0.75439-1.79297-1.88623-1.79297-3.27686
					c0-2.56982,2.26367-4.36133,4.88086-4.36133s4.87891,1.7915,4.87891,4.36133c0,1.39062-0.77734,2.52246-1.81445,3.27686
					C379.51462,214.85881,380.66891,216.3676,380.66891,218.32414z M378.64157,218.32414c0-1.8623-1.65039-3.15869-3.79492-3.15869
					c-2.16992,0-3.79492,1.29639-3.79492,3.15869s1.625,3.15918,3.79492,3.15918
					C376.99118,221.48332,378.64157,220.18645,378.64157,218.32414z M371.99313,210.73332
					c0,1.62646,1.50977,2.42822,2.85352,2.42822s2.85156-0.80176,2.85156-2.42822c0-1.62695-1.50781-2.45215-2.85156-2.45215
					S371.99313,209.10637,371.99313,210.73332z"/>
			</g>
		</g>
	</g>
	<g>
		<g>
			<path class="st7" d="M435.62595,220.47307h9.13477v1.81787h-11.08789v-1.81787c0-4.66895,9.1582-5.22998,9.1582-9.42725
				c0-1.7959-1.39258-3.09766-3.29883-3.09766c-2.35742,0-3.92969,1.43652-3.92969,3.34424h-1.92969
				c0-2.87305,2.42383-5.16211,5.88086-5.16211c2.96289,0,5.20703,1.9751,5.20703,4.98291
				C444.76071,216.61223,435.62595,217.19572,435.62595,220.47307z"/>
			<path class="st7" d="M449.29977,220.47307h9.13477v1.81787h-11.08789v-1.81787c0-4.66895,9.1582-5.22998,9.1582-9.42725
				c0-1.7959-1.39258-3.09766-3.29883-3.09766c-2.35742,0-3.92969,1.43652-3.92969,3.34424h-1.92969
				c0-2.87305,2.42383-5.16211,5.88086-5.16211c2.96289,0,5.20703,1.9751,5.20703,4.98291
				C458.43454,216.61223,449.29977,217.19572,449.29977,220.47307z"/>
		</g>
	</g>
	<g>
		<g>
			<g>
				<path class="st7" d="M148.21776,75.04876h9.13672v1.81787h-11.08789v-1.81787c0-4.66895,9.15625-5.22998,9.15625-9.42725
					c0-1.7959-1.39062-3.09766-3.29883-3.09766c-2.35742,0-3.92773,1.43652-3.92773,3.34424h-1.92969
					c0-2.87305,2.42383-5.16211,5.87891-5.16211c2.96289,0,5.20898,1.9751,5.20898,4.98291
					C157.35448,71.18792,148.21776,71.77142,148.21776,75.04876z"/>
			</g>
		</g>
	</g>
	<g>
		<g>
			<g>
				<path class="st7" d="M107.02635,75.04876v1.81787h-9.33594v-1.81787h3.70312V63.3095l-3.07617,0.76319v-1.93018l5.00586-1.2124
					v14.11866H107.02635z"/>
			</g>
		</g>
	</g>
	<g>
		<g>
			<g>
				<path class="st7" d="M158.40916,118.61761h-2.22266v3.27686h-1.92969v-3.27686h-8.43945v-1.81836l8.43945-10.84131h1.92969
					v10.84131h2.22266V118.61761z M154.25682,116.79925v-7.90088l-6.01562,7.90088H154.25682z"/>
			</g>
		</g>
	</g>
	<g>
		<g>
			<g>
				<path class="st7" d="M109.40721,117.4052c0,2.51416-1.97656,4.71387-5.41016,4.71387
					c-3.52344,0-5.85742-2.35693-5.85742-5.22998h1.92969c0,2.10986,1.72852,3.41162,3.83789,3.41162
					c2.26758,0,3.5918-1.32422,3.5918-3.00781c0-2.02002-1.81836-2.71582-3.79297-2.71582h-1.23438v-1.84033h1.23438
					c1.99609,0,3.11914-0.96533,3.11914-2.46924c0-1.57129-1.21289-2.71582-3.14258-2.71582
					c-2.10938,0-3.61328,1.41406-3.61328,3.41162h-1.92969c0-2.87305,2.10938-5.22998,5.63281-5.22998
					c2.98633,0,4.96094,2.04297,4.96094,4.44434c0,1.57129-0.78516,2.71631-1.92969,3.41211
					C108.26268,114.26311,109.40721,115.49749,109.40721,117.4052z"/>
			</g>
		</g>
	</g>
	<g>
		<g>
			<g>
				<path class="st7" d="M301.70016,71.65911c0,2.94043-2.40234,5.43213-5.61328,5.43213c-3.25391,0-5.65625-2.4917-5.65625-5.43213
					c0-1.09961,0.33789-2.15479,0.94336-3.03027l5.02734-7.69873h2.22266l-3.56836,5.36475
					c0.33594-0.04492,0.67383-0.08984,1.03125-0.08984C299.29782,66.20501,301.70016,68.74114,301.70016,71.65911z
					 M299.79196,71.65911c0-1.93018-1.59375-3.63623-3.70508-3.63623c-2.1543,0-3.72461,1.70605-3.72461,3.63623
					c0,1.93066,1.57031,3.61377,3.72461,3.61377C298.19821,75.27288,299.79196,73.58978,299.79196,71.65911z"/>
			</g>
		</g>
	</g>
	<g>
		<g>
			<g>
				<path class="st7" d="M253.34862,71.61419c0,2.98535-2.35742,5.47705-5.63477,5.47705
					c-3.52344,0-5.63281-2.44678-5.63281-5.22998h1.92969c0.02148,1.84033,1.48047,3.29932,3.68164,3.29932
					c2.01953,0,3.74805-1.48145,3.74805-3.63623c0-2.37891-1.68359-3.68066-3.74805-3.68066
					c-1.34766,0-3.00781,0.62842-3.54688,2.17725h-1.88672l1.39258-9.09082h8.57422v1.81836h-6.95898l-0.67188,4.3545
					c1.00977-0.65088,2.2207-0.98779,3.5-0.98779C250.96776,66.11517,253.34862,68.20257,253.34862,71.61419z"/>
			</g>
		</g>
	</g>
	<g>
		<g>
			<g>
				<path class="st7" d="M301.29587,117.20354c0,2.73828-2.24609,4.82568-5.54492,4.82568s-5.54297-2.0874-5.54297-4.82568
					c0-1.86328,1.09961-3.2998,2.60352-4.10791c-0.98828-0.71826-1.70703-1.79541-1.70703-3.11963
					c0-2.44678,2.1543-4.15283,4.64648-4.15283s4.64648,1.70605,4.64648,4.15283c0,1.32422-0.74023,2.40137-1.72852,3.11963
					C300.19626,113.90374,301.29587,115.34026,301.29587,117.20354z M299.36423,117.20354
					c0-1.77344-1.57031-3.00781-3.61328-3.00781c-2.06445,0-3.61328,1.23438-3.61328,3.00781
					c0,1.77295,1.54883,3.00732,3.61328,3.00732C297.79391,120.21087,299.36423,118.97649,299.36423,117.20354z M293.0361,109.97601
					c0,1.54834,1.43555,2.31152,2.71484,2.31152s2.7168-0.76318,2.7168-2.31152c0-1.54883-1.4375-2.33447-2.7168-2.33447
					S293.0361,108.42718,293.0361,109.97601z"/>
			</g>
		</g>
	</g>
	<g>
		<g>
			<g>
				<path class="st7" d="M252.71971,105.95794v1.81836l-6.82422,14.11816h-2.08789l6.82422-14.11816h-8.77539v-1.81836H252.71971z"
					/>
			</g>
		</g>
	</g>
	<g>
		<g>
			<path class="st7" d="M436.27829,75.04876h9.13477v1.81787h-11.08789v-1.81787c0-4.66895,9.1582-5.22998,9.1582-9.42725
				c0-1.7959-1.39258-3.09766-3.29883-3.09766c-2.35742,0-3.92969,1.43652-3.92969,3.34424h-1.92969
				c0-2.87305,2.42383-5.16211,5.88086-5.16211c2.96289,0,5.20703,1.9751,5.20703,4.98291
				C445.41306,71.18792,436.27829,71.77142,436.27829,75.04876z"/>
			<path class="st7" d="M449.95212,75.04876h9.13477v1.81787h-11.08789v-1.81787c0-4.66895,9.1582-5.22998,9.1582-9.42725
				c0-1.7959-1.39258-3.09766-3.29883-3.09766c-2.35742,0-3.92969,1.43652-3.92969,3.34424h-1.92969
				c0-2.87305,2.42383-5.16211,5.88086-5.16211c2.96289,0,5.20703,1.9751,5.20703,4.98291
				C459.08688,71.18792,449.95212,71.77142,449.95212,75.04876z"/>
		</g>
	</g>
</g>
<g id="Layer_1">
</g>
</svg>
