<?xml version="1.0" encoding="UTF-8" standalone="no"?>
<!-- Created with Inkscape (http://www.inkscape.org/) -->

<svg
   width="1000"
   height="461.25299"
   viewBox="0 0 264.58333 122.03985"
   version="1.1"
   id="svg1"
   inkscape:version="1.4 (e7c3feb100, 2024-10-09)"
   sodipodi:docname="brookshear-2020-2-1.svg"
   inkscape:export-filename="brookshear-2020-2-1-rgb-96-dpi.png"
   inkscape:export-xdpi="96"
   inkscape:export-ydpi="96"
   xmlns:inkscape="http://www.inkscape.org/namespaces/inkscape"
   xmlns:sodipodi="http://sodipodi.sourceforge.net/DTD/sodipodi-0.dtd"
   xmlns="http://www.w3.org/2000/svg"
   xmlns:svg="http://www.w3.org/2000/svg">
  <sodipodi:namedview
     id="namedview1"
     pagecolor="#505050"
     bordercolor="#eeeeee"
     borderopacity="1"
     inkscape:showpageshadow="0"
     inkscape:pageopacity="0"
     inkscape:pagecheckerboard="0"
     inkscape:deskcolor="#505050"
     inkscape:document-units="px"
     inkscape:zoom="0.71713664"
     inkscape:cx="527.0962"
     inkscape:cy="294.92287"
     inkscape:window-width="1920"
     inkscape:window-height="1020"
     inkscape:window-x="0"
     inkscape:window-y="28"
     inkscape:window-maximized="1"
     inkscape:current-layer="layer1" />
  <defs
     id="defs1">
    <clipPath
       clipPathUnits="userSpaceOnUse"
       id="clipPath28">
      <path
         d="m 217.406,109.524 h 291.187 v 136.21 H 217.406 Z"
         transform="translate(-307.23801,-231.96201)"
         id="path28" />
    </clipPath>
    <clipPath
       clipPathUnits="userSpaceOnUse"
       id="clipPath32">
      <path
         d="m 217.406,109.524 h 291.187 v 136.21 H 217.406 Z"
         transform="translate(-217.65601,-109.774)"
         id="path32" />
    </clipPath>
    <clipPath
       clipPathUnits="userSpaceOnUse"
       id="clipPath36">
      <path
         d="m 217.406,109.524 h 291.187 v 136.21 H 217.406 Z"
         transform="translate(-307.23751,-231.9625)"
         id="path36" />
    </clipPath>
    <clipPath
       clipPathUnits="userSpaceOnUse"
       id="clipPath40">
      <path
         d="m 217.406,109.524 h 291.187 v 136.21 H 217.406 Z"
         transform="matrix(1,0,0,-1,-270.21331,237.96351)"
         id="path40" />
    </clipPath>
    <clipPath
       clipPathUnits="userSpaceOnUse"
       id="clipPath44">
      <path
         d="m 217.406,109.524 h 291.187 v 136.21 H 217.406 Z"
         transform="translate(-508.34302,-232.13701)"
         id="path44" />
    </clipPath>
    <clipPath
       clipPathUnits="userSpaceOnUse"
       id="clipPath47">
      <path
         d="m 217.406,109.524 h 291.187 v 136.21 H 217.406 Z"
         transform="translate(-307.04271,-231.9625)"
         id="path47" />
    </clipPath>
    <clipPath
       clipPathUnits="userSpaceOnUse"
       id="clipPath63">
      <path
         d="m 217.406,109.524 h 291.187 v 136.21 H 217.406 Z"
         transform="translate(-217.65601,-170.86821)"
         id="path63" />
    </clipPath>
  </defs>
  <g
     inkscape:label="Content"
     inkscape:groupmode="layer"
     id="layer1">
    <g
       id="group-MC0"
       transform="matrix(0.68147743,0,0,0.68147742,-197.54304,-503.53461)">
      <path
         id="path15"
         d="M 0,0 H 61.107"
         style="fill:none;stroke:#5a5758;stroke-width:0.5;stroke-linecap:butt;stroke-linejoin:miter;stroke-miterlimit:4;stroke-dasharray:none;stroke-opacity:1"
         transform="matrix(1.3333333,0,0,-1.3333333,523.4788,832.41267)" />
      <path
         id="path16"
         d="M 0,0 H 61.107"
         style="fill:none;stroke:#5a5758;stroke-width:0.5;stroke-linecap:butt;stroke-linejoin:miter;stroke-miterlimit:4;stroke-dasharray:none;stroke-opacity:1"
         transform="matrix(1.3333333,0,0,-1.3333333,523.4788,833.96213)" />
      <path
         id="path17"
         d="M 0,0 H 61.107"
         style="fill:none;stroke:#5a5758;stroke-width:0.5;stroke-linecap:butt;stroke-linejoin:miter;stroke-miterlimit:4;stroke-dasharray:none;stroke-opacity:1"
         transform="matrix(1.3333333,0,0,-1.3333333,523.4788,835.50907)" />
      <path
         id="path18"
         d="M 0,0 H 61.107"
         style="fill:none;stroke:#5a5758;stroke-width:0.5;stroke-linecap:butt;stroke-linejoin:miter;stroke-miterlimit:4;stroke-dasharray:none;stroke-opacity:1"
         transform="matrix(1.3333333,0,0,-1.3333333,523.4788,837.05853)" />
      <path
         id="path19"
         d="M 0,0 H 61.107"
         style="fill:none;stroke:#5a5758;stroke-width:0.5;stroke-linecap:butt;stroke-linejoin:miter;stroke-miterlimit:4;stroke-dasharray:none;stroke-opacity:1"
         transform="matrix(1.3333333,0,0,-1.3333333,523.4788,838.60533)" />
      <path
         id="path20"
         d="M 0,0 H 61.107"
         style="fill:none;stroke:#5a5758;stroke-width:0.5;stroke-linecap:butt;stroke-linejoin:miter;stroke-miterlimit:4;stroke-dasharray:none;stroke-opacity:1"
         transform="matrix(1.3333333,0,0,-1.3333333,523.4788,840.1548)" />
      <path
         id="path21"
         d="M 0,0 H 61.107"
         style="fill:none;stroke:#5a5758;stroke-width:0.5;stroke-linecap:butt;stroke-linejoin:miter;stroke-miterlimit:4;stroke-dasharray:none;stroke-opacity:1"
         transform="matrix(1.3333333,0,0,-1.3333333,523.4788,841.70173)" />
      <path
         id="path22"
         d="M 0,0 H 61.107"
         style="fill:none;stroke:#5a5758;stroke-width:0.5;stroke-linecap:butt;stroke-linejoin:miter;stroke-miterlimit:4;stroke-dasharray:none;stroke-opacity:1"
         transform="matrix(1.3333333,0,0,-1.3333333,523.4788,843.2512)" />
      <path
         id="path23"
         d="M 0,0 H 61.107"
         style="fill:none;stroke:#5a5758;stroke-width:0.5;stroke-linecap:butt;stroke-linejoin:miter;stroke-miterlimit:4;stroke-dasharray:none;stroke-opacity:1"
         transform="matrix(1.3333333,0,0,-1.3333333,523.4788,844.79813)" />
      <path
         id="path24"
         d="M 0,0 H 61.107"
         style="fill:none;stroke:#5a5758;stroke-width:0.5;stroke-linecap:butt;stroke-linejoin:miter;stroke-miterlimit:4;stroke-dasharray:none;stroke-opacity:1"
         transform="matrix(1.3333333,0,0,-1.3333333,523.4788,846.3476)" />
      <path
         id="path25"
         d="M 0,0 H 61.107"
         style="fill:none;stroke:#5a5758;stroke-width:0.5;stroke-linecap:butt;stroke-linejoin:miter;stroke-miterlimit:4;stroke-dasharray:none;stroke-opacity:1"
         transform="matrix(1.3333333,0,0,-1.3333333,523.4788,847.8944)" />
      <path
         id="path26"
         d="m 217.656,170.868 h 89.581 v 61.096 h -89.581 z"
         style="fill:#fddeb8;fill-opacity:1;fill-rule:nonzero;stroke:none"
         transform="matrix(1.3333333,0,0,-1.3333333,0,1064)" />
      <path
         id="path27"
         d="M 0,0 H -89.582 V -61.094 H 0 Z"
         style="fill:none;stroke:#f89c35;stroke-width:0.5;stroke-linecap:butt;stroke-linejoin:miter;stroke-miterlimit:10;stroke-dasharray:none;stroke-opacity:1"
         transform="matrix(1.3333333,0,0,-1.3333333,409.65067,754.71733)"
         clip-path="url(#clipPath28)" />
      <path
         id="path29"
         d="M 0,0 H -85.582 V -57.094 H 0 Z"
         style="fill:none;stroke:#fde9cf;stroke-width:0.5;stroke-linecap:butt;stroke-linejoin:miter;stroke-miterlimit:10;stroke-dasharray:none;stroke-opacity:1"
         transform="matrix(1.3333333,0,0,-1.3333333,406.984,757.384)" />
      <path
         id="path30"
         d="m 217.656,109.774 h 89.581 v 61.094 h -89.581 z"
         style="fill:#c9baca;fill-opacity:1;fill-rule:nonzero;stroke:none"
         transform="matrix(1.3333333,0,0,-1.3333333,0,1064)" />
      <path
         id="path31"
         d="M 0,0 H 89.582 V 61.094 H 0 Z"
         style="fill:none;stroke:#62455f;stroke-width:0.5;stroke-linecap:butt;stroke-linejoin:miter;stroke-miterlimit:10;stroke-dasharray:none;stroke-opacity:1"
         transform="matrix(1.3333333,0,0,-1.3333333,290.208,917.63467)"
         clip-path="url(#clipPath32)" />
      <path
         id="path33"
         d="M 0,0 H 85.582 V 57.094 H 0 Z"
         style="fill:none;stroke:#dacfdb;stroke-width:0.5;stroke-linecap:butt;stroke-linejoin:miter;stroke-miterlimit:10;stroke-dasharray:none;stroke-opacity:1"
         transform="matrix(1.3333333,0,0,-1.3333333,292.87467,914.968)" />
      <path
         id="path34"
         d="m 0,0 v -61.095 -61.094 H 91.085 V -61.095 0 Z"
         style="fill:#92b7c6;fill-opacity:1;fill-rule:nonzero;stroke:none"
         transform="matrix(1.3333333,0,0,-1.3333333,409.65,754.7168)" />
      <path
         id="path35"
         d="m 0,0 v -61.094 -61.094 H 91.084 V -61.094 0 Z"
         style="fill:none;stroke:#255b76;stroke-width:0.5;stroke-linecap:butt;stroke-linejoin:miter;stroke-miterlimit:10;stroke-dasharray:none;stroke-opacity:1"
         transform="matrix(1.3333333,0,0,-1.3333333,409.65,754.71667)"
         clip-path="url(#clipPath36)" />
      <path
         id="path37"
         d="M 0,0 H 87.084 V 118.188 H 0 Z"
         style="fill:none;stroke:#c5dae2;stroke-width:0.5;stroke-linecap:butt;stroke-linejoin:miter;stroke-miterlimit:10;stroke-dasharray:none;stroke-opacity:1"
         transform="matrix(1.3333333,0,0,-1.3333333,412.31733,914.968)" />
      <path
         id="path38"
         d="m 0.11735469,5.96875e-4 h 0.75 L 1.3009484,-1.3704969 h 2.2265625 l 0.421875,1.371093775 h 0.8203125 l -1.875,-5.777343775 h -0.9375 z M 3.3282922,-2.0150281 H 1.4767297 l 0.9140625,-3.0820313 h 0.011719 z m 2.8125,-2.0273438 h -0.65625 V 5.96875e-4 h 0.65625 V -2.3900281 c 0,-0.5390625 0.1875,-1.0898438 0.9140625,-1.0898438 0.070312,0 0.1171875,0.011719 0.1757812,0.011719 0.058594,0.011719 0.1171875,0.023437 0.1757813,0.023437 v -0.6796875 c -0.6328125,0 -0.9726563,0.070312 -1.2421875,0.6914062 h -0.023437 z m 2.6308594,0 h -0.65625 V 5.96875e-4 h 0.65625 z m -0.703125,-1.03125 h 0.7382812 v -0.703125 H 8.0685266 Z m 1.2480468,1.03125 v 0.4921875 h 0.65625 v 2.88281252 c 0,0.45703125 0.2812496,0.71484375 0.9140626,0.71484375 0.210937,0 0.421875,-0.046874995 0.644531,-0.05859375 v -0.50390625 c -0.140625,0.0117188 -0.246094,0.0234375 -0.292969,0.0234375 -0.609375,0 -0.609375,-0.328125 -0.609375,-0.58593747 v -2.4726563 h 0.878907 v -0.4921875 h -0.878907 v -1.0664062 l -0.6562496,0.2929687 v 0.7734375 z M 14.9738,5.96875e-4 V -2.8704969 c 0,-0.9023437 -0.375,-1.2539062 -1.066406,-1.2539062 -0.527344,0 -0.832032,0.1289062 -1.101563,0.5976562 h -0.03516 v -2.25 h -0.65625 V 5.96875e-4 h 0.65625 V -2.3783094 c 0,-0.6796875 0.175781,-1.2070312 0.832031,-1.2070312 0.5625,0 0.714844,0.3515625 0.714844,0.84375 V 5.96875e-4 Z m 3.799805,0 V -2.7181531 c 0,-0.1523438 0.02344,-0.5507813 0.222656,-0.7148438 0.175781,-0.140625 0.246094,-0.1523437 0.492187,-0.1523437 0.527344,0 0.644532,0.375 0.644532,0.7851562 V 5.96875e-4 h 0.65625 V -3.0697156 c 0,-0.9609375 -0.679688,-1.0546875 -1.113282,-1.0546875 -0.363281,0 -0.726562,0.09375 -0.960937,0.5273437 -0.152344,-0.375 -0.574219,-0.5273437 -0.9375,-0.5273437 -0.46875,0 -0.820313,0.1523437 -1.007813,0.5859375 h -0.02344 v -0.5039063 h -0.691406 c 0.02344,0.28125 0.03516,0.5625 0.03516,0.84375 V 5.96875e-4 h 0.65625 V -2.7181531 c 0,-0.1523438 0.03516,-0.3984375 0.152344,-0.5976563 0.105468,-0.1523437 0.375,-0.2695312 0.574218,-0.2695312 0.527344,0 0.644532,0.375 0.644532,0.7851562 V 5.96875e-4 Z M 24.82048,-1.8040906 v -0.3515625 c 0,-1.3359375 -0.292969,-1.96875 -1.441407,-1.96875 -1.40625,0 -1.535156,0.984375 -1.535156,2.1679687 0,1.78125002 0.679688,2.03906252 1.535156,2.03906252 0.84375,0 1.394532,-0.41015625 1.40625,-1.30078122 H 24.07048 c -0.02344,0.39843747 -0.257813,0.76171872 -0.714844,0.76171872 -0.503906,0 -0.808594,-0.22265625 -0.808594,-1.34765622 z m -2.273438,-0.5039063 c 0,-1.1132812 0.351563,-1.3125 0.761719,-1.3125 0.480469,0 0.808594,0.140625 0.808594,1.3125 z m 2.768555,-1.734375 v 0.4921875 h 0.65625 v 2.88281252 c 0,0.45703125 0.28125,0.71484375 0.914062,0.71484375 0.210938,0 0.421875,-0.046874995 0.644532,-0.05859375 v -0.50390625 c -0.140625,0.0117188 -0.246094,0.0234375 -0.292969,0.0234375 -0.609375,0 -0.609375,-0.328125 -0.609375,-0.58593747 v -2.4726563 h 0.878906 v -0.4921875 h -0.878906 v -1.0664062 l -0.65625,0.2929687 v 0.7734375 z m 3.454101,0 h -0.65625 V 5.96875e-4 h 0.65625 z m -0.703125,-1.03125 h 0.738282 v -0.703125 h -0.738282 z m 4.637696,2.3320313 c 0.03516,-0.9023438 -0.433594,-1.3828125 -1.242188,-1.3828125 -1.40625,0 -1.535156,0.984375 -1.535156,2.1679687 0,1.78125002 0.679687,2.03906252 1.535156,2.03906252 0.445313,0 1.289063,-0.29296875 1.265625,-1.42968752 h -0.679687 c 0.02344,0.72656252 -0.433594,0.89062502 -0.585938,0.89062502 -0.679687,0 -0.855469,-0.46875 -0.855469,-1.78125002 0,-1.1015625 0.351563,-1.3476562 0.855469,-1.3476562 0.246094,0 0.574219,0.1757812 0.550781,0.84375 z m 2.850586,-3.0351563 h -0.539063 l -1.875,6.55078127 h 0.527344 z m 1.21582,0 h -0.65625 V 5.96875e-4 h 0.65625 z m 2.560547,5.85937502 c 0.855469,0 1.535156,-0.2578125 1.535156,-2.03906252 0,-1.1835937 -0.140625,-2.1679687 -1.535156,-2.1679687 -1.40625,0 -1.535156,0.984375 -1.535156,2.1679687 0,1.78125002 0.679687,2.03906252 1.535156,2.03906252 z m 0,-0.5390625 c -0.679688,0 -0.855469,-0.46875 -0.855469,-1.78125002 0,-1.1015625 0.351563,-1.3476562 0.855469,-1.3476562 0.503906,0 0.84375,0.2460937 0.84375,1.3476562 0,1.31250002 -0.164063,1.78125002 -0.84375,1.78125002 z m 4.716797,-3.09375002 h -0.02344 c -0.1875,-0.3867187 -0.515625,-0.5742187 -0.9375,-0.5742187 -0.328125,0 -1.265625,0.1289062 -1.265625,1.9804687 0,1.19531252 0.210938,2.144531275 1.3125,2.144531275 0.351563,0 0.714844,-0.187500005 0.878906,-0.503906255 h 0.03516 v 0.84375 c 0,0.41015625 -0.257813,0.69140628 -0.714844,0.69140628 -0.351563,0 -0.597656,-0.21093753 -0.609375,-0.58593753 H 41.98552 c -0.05859,0.75000003 0.550781,1.07812503 1.230468,1.07812503 0.878907,0 1.488282,-0.2109375 1.488282,-1.11328128 V -4.0423719 h -0.65625 z m 0.01172,1.5117188 c 0,0.5625 0.02344,1.49999997 -0.773437,1.49999997 -0.480469,0 -0.785156,-0.3046875 -0.785156,-1.60546877 0,-0.5390625 0.02344,-1.4296875 0.773437,-1.4296875 0.820313,0 0.785156,0.9375 0.785156,1.5351563 z m 2.487305,-2.0039063 h -0.65625 V 5.96875e-4 h 0.65625 z m -0.703125,-1.03125 H 46.5822 v -0.703125 h -0.738281 z m 4.634766,2.3320313 c 0.03516,-0.9023438 -0.433594,-1.3828125 -1.242188,-1.3828125 -1.40625,0 -1.535156,0.984375 -1.535156,2.1679687 0,1.78125002 0.679688,2.03906252 1.535156,2.03906252 0.445313,0 1.289063,-0.29296875 1.265625,-1.42968752 h -0.679687 c 0.02344,0.72656252 -0.433594,0.89062502 -0.585938,0.89062502 -0.679687,0 -0.855468,-0.46875 -0.855468,-1.78125002 0,-1.1015625 0.351562,-1.3476562 0.855468,-1.3476562 0.246094,0 0.574219,0.1757812 0.550782,0.84375 z M 22.295089,7.6412219 c 0,0.6679687 -0.445312,0.9375 -0.796875,0.9375 -0.46875,0 -0.691406,-0.328125 -0.691406,-0.8203125 V 4.9576281 h -0.65625 v 3.0820313 c 0,0.6914062 0.386719,1.0429687 1.089844,1.0429687 0.421875,0 0.808593,-0.1992187 1.03125,-0.5742187 h 0.02344 v 0.4921875 h 0.691406 c -0.02344,-0.28125 -0.03516,-0.5625 -0.03516,-0.84375 V 4.9576281 h -0.65625 z M 26.9738,9.0005969 V 6.1998156 c 0,-0.796875 -0.210938,-1.3242187 -1.078125,-1.3242187 -0.515625,0 -0.820313,0.1523437 -1.078125,0.5976562 h -0.03516 v -0.515625 h -0.691407 c 0.02344,0.28125 0.03516,0.5625 0.03516,0.84375 v 3.1992188 h 0.65625 v -2.390625 c 0,-0.5507813 0.105468,-1.1953125 0.832031,-1.1953125 0.550781,0 0.703125,0.3515625 0.703125,0.7851562 v 2.8007813 z m 1.795898,-4.0429688 h -0.65625 v 4.0429688 h 0.65625 z m -0.703125,-1.03125 h 0.738282 v -0.703125 h -0.738282 z m 1.250977,1.03125 v 0.4921875 h 0.65625 v 2.8828125 c 0,0.4570313 0.28125,0.7148438 0.914062,0.7148438 0.210938,0 0.421875,-0.046875 0.644532,-0.058594 v -0.503906 c -0.140625,0.011719 -0.246094,0.023437 -0.292969,0.023437 -0.609375,0 -0.609375,-0.328125 -0.609375,-0.5859375 V 5.4498156 h 0.878906 V 4.9576281 H 30.63005 V 3.8912219 L 29.9738,4.1841906 V 4.9576281 Z M 105.40739,-14.46913 c 0.2461,0 0.8086,0.03516 0.86719,0.738282 0.0586,0.773437 0.0117,1.523437 0.22266,1.921875 h 0.77343 c -0.11718,-0.363282 -0.19921,-1.265625 -0.19921,-1.511719 -0.0469,-1.160156 -0.28125,-1.382813 -0.94922,-1.488281 v -0.01172 c 0.67968,-0.128906 1.05468,-0.644531 1.05468,-1.324219 0,-0.726562 -0.36328,-1.441406 -1.38281,-1.441406 h -1.99219 v 5.777344 h 0.73829 v -2.660157 z m -0.86718,-2.472656 h 1.11328 c 0.5625,0 0.77343,0.457031 0.77343,0.878906 0,0.503907 -0.25781,0.960938 -0.78515,0.960938 h -1.10156 z m 6.56836,3.328125 v -0.351562 c 0,-1.335938 -0.29297,-1.96875 -1.44141,-1.96875 -1.40625,0 -1.53516,0.984375 -1.53516,2.167968 0,1.78125 0.67969,2.039063 1.53516,2.039063 0.84375,0 1.39453,-0.410156 1.40625,-1.300781 h -0.71484 c -0.0234,0.398437 -0.25782,0.761718 -0.71485,0.761718 -0.5039,0 -0.80859,-0.222656 -0.80859,-1.347656 z m -2.27344,-0.503906 c 0,-1.113281 0.35156,-1.3125 0.76172,-1.3125 0.48047,0 0.80859,0.140625 0.80859,1.3125 z m 5.49902,-1.242188 h -0.0234 c -0.1875,-0.386718 -0.51562,-0.574218 -0.9375,-0.574218 -0.32812,0 -1.26562,0.128906 -1.26562,1.980468 0,1.195313 0.21094,2.144532 1.3125,2.144532 0.35156,0 0.71484,-0.1875 0.87891,-0.503907 h 0.0351 v 0.84375 c 0,0.410157 -0.25781,0.691407 -0.71484,0.691407 -0.35156,0 -0.59766,-0.210938 -0.60938,-0.585938 h -0.73828 c -0.0586,0.75 0.55078,1.078125 1.23047,1.078125 0.87891,0 1.48828,-0.210937 1.48828,-1.113281 v -4.453125 h -0.65625 z m 0.0117,1.511719 c 0,0.5625 0.0234,1.5 -0.77344,1.5 -0.48047,0 -0.78515,-0.304687 -0.78515,-1.605469 0,-0.539062 0.0234,-1.429687 0.77343,-1.429687 0.82032,0 0.78516,0.9375 0.78516,1.535156 z m 2.49023,-2.003906 h -0.65625 v 4.042969 h 0.65625 z m -0.70312,-1.03125 h 0.73828 v -0.703125 h -0.73828 z m 4.43555,3.925781 c 0,-1.242187 -2.01563,-1.21875 -2.01563,-1.933594 0,-0.351562 0.26953,-0.539062 0.6211,-0.539062 0.42187,0 0.64453,0.222656 0.63281,0.644531 h 0.72656 c 0.0586,-0.796875 -0.55078,-1.148437 -1.27734,-1.148437 -1.13672,0 -1.39453,0.679687 -1.39453,1.113281 0,1.207031 2.01562,1.21875 2.01562,1.933594 0,0.421875 -0.30469,0.621093 -0.69141,0.621093 -0.66796,0 -0.66796,-0.539062 -0.66796,-0.773437 h -0.75 c -0.0234,0.925781 0.51562,1.3125 1.39453,1.3125 0.79687,0 1.40625,-0.351563 1.40625,-1.230469 z m 0.36328,-2.894531 v 0.492187 h 0.65625 v 2.882813 c 0,0.457031 0.28125,0.714844 0.91406,0.714844 0.21094,0 0.42188,-0.04687 0.64453,-0.05859 v -0.503906 c -0.14062,0.01172 -0.24609,0.02344 -0.29297,0.02344 -0.60937,0 -0.60937,-0.328125 -0.60937,-0.585937 v -2.472657 h 0.8789 v -0.492187 h -0.8789 v -1.066406 l -0.65625,0.292968 v 0.773438 z m 5.72754,2.238281 v -0.351562 c 0,-1.335938 -0.29297,-1.96875 -1.44141,-1.96875 -1.40625,0 -1.53516,0.984375 -1.53516,2.167968 0,1.78125 0.67969,2.039063 1.53516,2.039063 0.84375,0 1.39453,-0.410156 1.40625,-1.300781 h -0.71484 c -0.0234,0.398437 -0.25782,0.761718 -0.71485,0.761718 -0.5039,0 -0.80859,-0.222656 -0.80859,-1.347656 z m -2.27344,-0.503906 c 0,-1.113281 0.35156,-1.3125 0.76172,-1.3125 0.48047,0 0.80859,0.140625 0.80859,1.3125 z m 4.03711,-1.734375 h -0.65625 v 4.042969 h 0.65625 v -2.390625 c 0,-0.539063 0.1875,-1.089844 0.91406,-1.089844 0.0703,0 0.11719,0.01172 0.17578,0.01172 0.0586,0.01172 0.11719,0.02344 0.17578,0.02344 v -0.679687 c -0.63281,0 -0.97265,0.07031 -1.24218,0.691406 h -0.0234 z m 4.58496,2.894531 c 0,-1.242187 -2.01563,-1.21875 -2.01563,-1.933594 0,-0.351562 0.26954,-0.539062 0.6211,-0.539062 0.42187,0 0.64453,0.222656 0.63281,0.644531 h 0.72656 c 0.0586,-0.796875 -0.55078,-1.148437 -1.27734,-1.148437 -1.13672,0 -1.39453,0.679687 -1.39453,1.113281 0,1.207031 2.01562,1.21875 2.01562,1.933594 0,0.421875 -0.30468,0.621093 -0.6914,0.621093 -0.66797,0 -0.66797,-0.539062 -0.66797,-0.773437 h -0.75 c -0.0234,0.925781 0.51562,1.3125 1.39453,1.3125 0.79687,0 1.40625,-0.351563 1.40625,-1.230469 z m 0,0"
         style="fill:#231f20;fill-opacity:1;fill-rule:nonzero;stroke:none"
         aria-label="Arithmetic/logic&#10;unit&#10;Registers"
         transform="matrix(1.3333333,0,0,1.3333333,312.78493,793.53827)" />
      <path
         id="path39"
         d="m 2.4380672,0.09338281 c 1.1367187,0 1.7460937,-0.4921875 1.7460937,-2.03906251 H 2.9888484 c -0.011719,0.4570313 0.011719,1.17187501 -0.5507812,1.17187501 -0.6796875,0 -0.7617188,-0.63281251 -0.7617188,-2.12109371 0,-1.4765625 0.082031,-2.1210938 0.7617188,-2.1210938 0.3632812,0 0.5039062,0.2929688 0.5039062,1.0664063 h 1.1835938 c 0.046875,-1.2421875 -0.4570313,-1.921875 -1.6875,-1.921875 -1.99218751,0 -1.99218751,1.453125 -1.99218751,2.9765625 0,1.5234375 0,2.98828121 1.99218751,2.98828121 z M 8.0923641,-1.8402109 c 0.046875,-1.3007813 -0.1171875,-2.2851563 -1.640625,-2.2851563 -1.4882813,0 -1.6523438,0.9492188 -1.6523438,2.0507813 0,1.26562496 0.1875,2.15624996 1.6523438,2.15624996 0.5273437,0 0.9257812,-0.140625 1.1953125,-0.3984375 0.2695312,-0.24609375 0.4101562,-0.609375 0.421875,-1.04296876 H 6.9322078 c 0,0.3398438 -0.082031,0.71484376 -0.4804687,0.71484376 -0.5039063,0 -0.515625,-0.71484376 -0.515625,-1.19531246 z m -2.15625,-0.6328125 c 0,-0.3398438 -0.011719,-0.9492188 0.515625,-0.9492188 0.5390625,0 0.515625,0.5507813 0.515625,0.9492188 z M 10.028888,-4.0433359 H 8.8921688 V -3.671875e-4 H 10.028888 V -2.7894297 c 0,-0.3515625 0.05859,-0.6328125 0.421875,-0.6328125 0.351562,0 0.421875,0.28125 0.421875,0.6328125 v 2.7890625125 h 1.125 V -3.2464609 c 0,-0.5507813 -0.46875,-0.8789063 -1.007813,-0.8789063 -0.210937,0 -0.386719,0.035156 -0.550781,0.1171875 -0.152344,0.070313 -0.292969,0.1875 -0.398438,0.375 h -0.01172 z m 2.408203,0.703125 h 0.457031 v 2.48437496 c 0,0.24609375 0.128906,0.890625 1.113281,0.890625 0.269531,0 0.421875,-0.0234375 0.574219,-0.0351562475 V -0.69177344 c -0.04687,0.0117188 -0.128906,0.0117188 -0.199219,0.0117188 -0.363281,0 -0.351562,-0.19921875 -0.351562,-0.50390616 v -2.1562501 h 0.574218 v -0.7031249 h -0.574218 v -1.1484375 l -1.136719,0.5039062 v 0.6445313 h -0.457031 z m 2.680664,-0.703125 v 4.0429687125 h 1.136718 V -2.2034922 c 0,-0.3984375 0.01172,-0.9726562 1.007813,-0.9140625 v -1.0078125 c -0.457031,0 -0.84375,0.140625 -1.054688,0.5976563 h -0.01172 v -0.515625 z m 5.733398,1.2773437 c 0,-0.7382812 -0.1875,-1.359375 -1.617187,-1.359375 -0.433594,0 -0.796875,0.070312 -1.054688,0.2695313 -0.269531,0.1875 -0.421875,0.4921875 -0.421875,0.984375 h 1.101563 c 0,-0.328125 0.03516,-0.6210938 0.433593,-0.6210938 0.398438,0 0.457032,0.2460938 0.457032,0.5976563 v 0.3046875 c -1.054688,-0.011719 -2.085938,0.046875 -2.085938,1.3828125 0,0.70312496 0.292969,1.28906246 1.078125,1.28906246 0.480469,0 0.808594,-0.19921875 1.054688,-0.62109375 h 0.01172 l 0.04687,0.5390625025 h 1.054688 C 20.886309,-0.24646094 20.851153,-0.50427344 20.851153,-0.75036719 Z m -1.101562,0.8085938 c 0,0.4453125 0.09375,1.33593746 -0.5625,1.33593746 -0.375,0 -0.421875,-0.3515625 -0.421875,-0.63281246 0,-0.7265625 0.421875,-0.6796875 0.984375,-0.703125 z m 2.124023,-3.8203125 v 5.7773437125 h 1.136719 V -5.7777109 Z m 3.908203,1.734375 v 5.7773437 h 1.136719 v -2.12109374 h 0.01172 c 0.234375,0.3515625 0.515625,0.46875 0.914062,0.46875 1.136719,0 1.113281,-1.25390626 1.113281,-2.07421876 0,-0.8320312 0.03516,-2.1328125 -1.136718,-2.1328125 -0.421875,0 -0.738282,0.140625 -0.949219,0.5273438 h -0.01172 v -0.4453125 z m 1.582031,3.42187496 c -0.375,0 -0.445312,-0.42187496 -0.445312,-1.44140626 0,-0.8085937 -0.01172,-1.359375 0.445312,-1.359375 0.492188,0 0.480469,0.5507813 0.480469,1.359375 0,1.0195313 -0.07031,1.44140626 -0.480469,1.44140626 z m 2.416993,-3.42187496 v 4.0429687125 h 1.136718 V -2.2034922 c 0,-0.3984375 0.01172,-0.9726562 1.007813,-0.9140625 v -1.0078125 c -0.457031,0 -0.84375,0.140625 -1.054688,0.5976563 h -0.01172 v -0.515625 z m 4.221679,4.12499996 c 1.453125,0 1.640625,-0.890625 1.640625,-2.15624996 0,-1.1015625 -0.152343,-2.0507813 -1.640625,-2.0507813 -1.488281,0 -1.652343,0.9492188 -1.652343,2.0507813 0,1.26562496 0.1875,2.15624996 1.652343,2.15624996 z m 0,-0.7265625 c -0.421875,0 -0.527343,-0.2578125 -0.527343,-1.48828126 0,-0.84375 0.04687,-1.265625 0.527343,-1.265625 0.480469,0 0.515625,0.421875 0.515625,1.265625 0,1.23046876 -0.105468,1.48828126 -0.515625,1.48828126 z m 5.63086,-1.95703126 c 0,-1.0546875 -0.585938,-1.5234375 -1.628907,-1.5234375 -1.488281,0 -1.652343,0.9492188 -1.652343,2.0507813 0,1.26562496 0.1875,2.15624996 1.652343,2.15624996 1.054688,0 1.640625,-0.46875 1.640625,-1.57031246 h -1.125 c 0,0.52734371 -0.164062,0.84374996 -0.515625,0.84374996 -0.421875,0 -0.527343,-0.2578125 -0.527343,-1.48828126 0,-0.84375 0.04687,-1.265625 0.527343,-1.265625 0.351563,0 0.503907,0.1992188 0.503907,0.796875 z m 4.010742,0.7617188 c 0.04687,-1.3007813 -0.117188,-2.2851563 -1.640625,-2.2851563 -1.488281,0 -1.652344,0.9492188 -1.652344,2.0507813 0,1.26562496 0.1875,2.15624996 1.652344,2.15624996 0.527344,0 0.925781,-0.140625 1.195312,-0.3984375 0.269532,-0.24609375 0.410157,-0.609375 0.421875,-1.04296876 h -1.136718 c 0,0.3398438 -0.08203,0.71484376 -0.480469,0.71484376 -0.503906,0 -0.515625,-0.71484376 -0.515625,-1.19531246 z m -2.15625,-0.6328125 c 0,-0.3398438 -0.01172,-0.9492188 0.515625,-0.9492188 0.539062,0 0.515625,0.5507813 0.515625,0.9492188 z m 2.745117,1.171875 c -0.07031,1.13671871 0.585938,1.38281246 1.570313,1.38281246 0.9375,0 1.511718,-0.52734375 1.511718,-1.23046876 0,-1.3007812 -1.980468,-1.265625 -1.980468,-1.9101562 0,-0.2695313 0.140625,-0.4335938 0.386718,-0.4335938 0.117188,0 0.210938,0.023437 0.28125,0.09375 0.08203,0.070312 0.117188,0.234375 0.117188,0.515625 h 1.101562 c 0.07031,-0.8671875 -0.632812,-1.2421875 -1.394531,-1.2421875 -0.726562,0 -1.59375,0.2695313 -1.59375,1.1367188 0,1.2890625 1.980469,1.1015625 1.980469,1.9570312 0,0.26953126 -0.1875,0.41015626 -0.410156,0.41015626 -0.222657,0 -0.351563,-0.0585938 -0.410157,-0.1875 -0.05859,-0.12890625 -0.07031,-0.30468746 -0.05859,-0.49218746 z m 3.553711,0 c -0.07031,1.13671871 0.585938,1.38281246 1.570313,1.38281246 0.9375,0 1.511718,-0.52734375 1.511718,-1.23046876 0,-1.3007812 -1.980468,-1.265625 -1.980468,-1.9101562 0,-0.2695313 0.140625,-0.4335938 0.386718,-0.4335938 0.117188,0 0.210938,0.023437 0.28125,0.09375 0.08203,0.070312 0.117188,0.234375 0.117188,0.515625 h 1.101562 c 0.07031,-0.8671875 -0.632812,-1.2421875 -1.394531,-1.2421875 -0.726562,0 -1.59375,0.2695313 -1.59375,1.1367188 0,1.2890625 1.980469,1.1015625 1.980469,1.9570312 0,0.26953126 -0.1875,0.41015626 -0.410156,0.41015626 -0.222657,0 -0.351563,-0.0585938 -0.410157,-0.1875 -0.05859,-0.12890625 -0.07031,-0.30468746 -0.05859,-0.49218746 z m 4.992188,-2.7421875 h -1.136719 v 4.0429687125 h 1.136719 z m -1.136719,-1.734375 v 0.890625 h 1.136719 v -0.890625 z m 3.266601,1.734375 H 53.772052 V -3.671875e-4 H 54.90877 V -2.7894297 c 0,-0.3515625 0.05859,-0.6328125 0.421875,-0.6328125 0.351563,0 0.421875,0.28125 0.421875,0.6328125 v 2.7890625125 h 1.125 V -3.2464609 c 0,-0.5507813 -0.46875,-0.8789063 -1.007812,-0.8789063 -0.210938,0 -0.386719,0.035156 -0.550781,0.1171875 -0.152344,0.070313 -0.292969,0.1875 -0.398438,0.375 h -0.01172 z m 4.88086,0 v 0.46875 h -0.01172 c -0.164063,-0.375 -0.503906,-0.5507813 -0.902344,-0.5507813 -1.183594,0 -1.195312,1.1367188 -1.195312,2.015625 0,0.9140625 -0.05859,2.05078126 1.183593,2.05078126 0.375,0 0.691407,-0.15234375 0.855469,-0.46875 h 0.02344 v 0.7734375 c 0,0.41015625 -0.140625,0.6796875 -0.421875,0.6796875 -0.175782,0 -0.304688,-0.0585938 -0.375,-0.1640625 -0.07031,-0.09375 -0.09375,-0.24609375 -0.09375,-0.41015625 h -1.101563 c 0.02344,0.98437499 0.738281,1.20703129 1.582031,1.20703129 1.546875,0 1.535157,-1.11328129 1.535157,-1.39453129 V -4.0433359 Z m -1.007813,2.1445312 c 0,-1.2304687 0.07031,-1.5234375 0.503906,-1.5234375 0.410157,0 0.457032,0.5039063 0.457032,1.3945313 0,0.8554687 -0.05859,1.27734371 -0.46875,1.27734371 -0.539063,0 -0.492188,-0.77343751 -0.492188,-1.14843751 z m 6.747071,1.8984375125 h 1.171875 C 66.677325,-0.26989844 66.653888,-0.53942969 66.653888,-0.79724219 V -4.0433359 h -1.125 v 2.8007812 c 0,0.36328126 -0.07031,0.62109376 -0.421875,0.62109376 -0.363282,0 -0.421875,-0.2578125 -0.421875,-0.62109376 v -2.8007812 h -1.136719 v 3.24609371 c 0,0.5625 0.480469,0.87890625 1.007812,0.87890625 0.433594,0 0.726563,-0.12890625 0.960938,-0.4921875 h 0.01172 z M 68.687091,-4.0433359 h -1.136719 v 4.0429687125 h 1.136719 V -2.7894297 c 0,-0.3515625 0.05859,-0.6328125 0.421875,-0.6328125 0.351562,0 0.421875,0.28125 0.421875,0.6328125 v 2.7890625125 h 1.125 V -3.2464609 c 0,-0.5507813 -0.46875,-0.8789063 -1.007813,-0.8789063 -0.210937,0 -0.386719,0.035156 -0.550781,0.1171875 -0.152344,0.070313 -0.292969,0.1875 -0.398438,0.375 h -0.01172 z m 4.092773,0 h -1.136719 v 4.0429687125 h 1.136719 z m -1.136719,-1.734375 v 0.890625 h 1.136719 v -0.890625 z m 1.672852,2.4375 h 0.457031 v 2.48437496 c 0,0.24609375 0.128906,0.890625 1.113281,0.890625 0.269532,0 0.421875,-0.0234375 0.574219,-0.0351562475 V -0.69177344 c -0.04687,0.0117188 -0.128906,0.0117188 -0.199219,0.0117188 -0.363281,0 -0.351562,-0.19921875 -0.351562,-0.50390616 v -2.1562501 h 0.574219 v -0.7031249 h -0.574219 v -1.1484375 l -1.136719,0.5039062 v 0.6445313 H 73.315997 Z M 187.74959,-3.671875e-4 V -4.4534922 h 0.0234 l 1.05469,4.4531250125 h 1.14843 L 191.08943,-4.4534922 h 0.0234 v 4.4531250125 h 1.17188 V -5.7777109 h -1.88672 l -0.96094,3.9257812 h -0.0117 l -0.90234,-3.9257812 H 186.5777 V -3.671875e-4 Z M 196.27498,-2.7659922 c 0,-0.7382812 -0.1875,-1.359375 -1.61719,-1.359375 -0.43359,0 -0.79687,0.070312 -1.05468,0.2695313 -0.26953,0.1875 -0.42188,0.4921875 -0.42188,0.984375 h 1.10156 c 0,-0.328125 0.0352,-0.6210938 0.4336,-0.6210938 0.39844,0 0.45703,0.2460938 0.45703,0.5976563 v 0.3046875 c -1.05469,-0.011719 -2.08594,0.046875 -2.08594,1.3828125 0,0.70312496 0.29297,1.28906246 1.07813,1.28906246 0.48047,0 0.80859,-0.19921875 1.05468,-0.62109375 h 0.0117 l 0.0469,0.5390625025 h 1.05469 c -0.0234,-0.2460937525 -0.0586,-0.5039062525 -0.0586,-0.7500000025 z m -1.10156,0.8085938 c 0,0.4453125 0.0937,1.33593746 -0.5625,1.33593746 -0.375,0 -0.42188,-0.3515625 -0.42188,-0.63281246 0,-0.7265625 0.42188,-0.6796875 0.98438,-0.703125 z m 3.26367,-2.0859375 h -1.13672 v 4.0429687125 h 1.13672 z m -1.13672,-1.734375 v 0.890625 h 1.13672 v -0.890625 z m 3.2666,1.734375 h -1.13672 v 4.0429687125 h 1.13672 V -2.7894297 c 0,-0.3515625 0.0586,-0.6328125 0.42188,-0.6328125 0.35156,0 0.42187,0.28125 0.42187,0.6328125 v 2.7890625125 h 1.125 V -3.2464609 c 0,-0.5507813 -0.46875,-0.8789063 -1.00781,-0.8789063 -0.21094,0 -0.38672,0.035156 -0.55078,0.1171875 -0.15234,0.070313 -0.29297,0.1875 -0.39844,0.375 h -0.0117 z m 5.68067,0 h -1.125 v 4.0429687125 h 1.125 V -2.7894297 c 0,-0.3515625 0.0703,-0.6328125 0.42187,-0.6328125 0.36328,0 0.42188,0.28125 0.42188,0.6328125 v 2.7890625125 h 1.11328 V -2.7894297 c 0,-0.3515625 0.0586,-0.6328125 0.42187,-0.6328125 0.36329,0 0.42188,0.28125 0.42188,0.6328125 v 2.7890625125 h 1.125 V -3.2464609 c 0,-0.5507813 -0.46875,-0.8789063 -1.00781,-0.8789063 -0.45703,0 -0.78516,0.1640625 -1.04297,0.515625 -0.1875,-0.3164062 -0.50391,-0.515625 -0.90235,-0.515625 -0.43359,0 -0.72656,0.1289063 -0.96093,0.4921875 h -0.0117 z m 7.93359,2.203125 c 0.0469,-1.3007813 -0.11719,-2.2851563 -1.64062,-2.2851563 -1.48828,0 -1.65235,0.9492188 -1.65235,2.0507813 0,1.26562496 0.1875,2.15624996 1.65235,2.15624996 0.52734,0 0.92578,-0.140625 1.19531,-0.3984375 0.26953,-0.24609375 0.41016,-0.609375 0.42187,-1.04296876 h -1.13671 c 0,0.3398438 -0.082,0.71484376 -0.48047,0.71484376 -0.50391,0 -0.51563,-0.71484376 -0.51563,-1.19531246 z m -2.15625,-0.6328125 c 0,-0.3398438 -0.0117,-0.9492188 0.51563,-0.9492188 0.53906,0 0.51562,0.5507813 0.51562,0.9492188 z m 3.99902,-1.5703125 h -1.125 v 4.0429687125 h 1.125 V -2.7894297 c 0,-0.3515625 0.0703,-0.6328125 0.42188,-0.6328125 0.36328,0 0.42187,0.28125 0.42187,0.6328125 v 2.7890625125 h 1.11329 V -2.7894297 c 0,-0.3515625 0.0586,-0.6328125 0.42187,-0.6328125 0.36328,0 0.42188,0.28125 0.42188,0.6328125 v 2.7890625125 h 1.125 V -3.2464609 c 0,-0.5507813 -0.46875,-0.8789063 -1.00782,-0.8789063 -0.45703,0 -0.78515,0.1640625 -1.04297,0.515625 -0.1875,-0.3164062 -0.5039,-0.515625 -0.90234,-0.515625 -0.43359,0 -0.72656,0.1289063 -0.96094,0.4921875 h -0.0117 z m 6.29297,4.12499996 c 1.45313,0 1.64063,-0.890625 1.64063,-2.15624996 0,-1.1015625 -0.15235,-2.0507813 -1.64063,-2.0507813 -1.48828,0 -1.65234,0.9492188 -1.65234,2.0507813 0,1.26562496 0.1875,2.15624996 1.65234,2.15624996 z m 0,-0.7265625 c -0.42187,0 -0.52734,-0.2578125 -0.52734,-1.48828126 0,-0.84375 0.0469,-1.265625 0.52734,-1.265625 0.48047,0 0.51563,0.421875 0.51563,1.265625 0,1.23046876 -0.10547,1.48828126 -0.51563,1.48828126 z m 2.44043,-3.39843746 v 4.0429687125 h 1.13672 V -2.2034922 c 0,-0.3984375 0.0117,-0.9726562 1.00781,-0.9140625 v -1.0078125 c -0.45703,0 -0.84375,0.140625 -1.05468,0.5976563 h -0.0117 v -0.515625 z m 2.95606,5.5664062 h 1.18359 l 1.5586,-5.5664062 h -1.08985 l -0.60937,2.8476562 h -0.0117 l -0.57422,-2.8476562 h -1.125 l 1.10156,4.07812496 z m 0,0"
         style="fill:#231f20;fill-opacity:1;fill-rule:nonzero;stroke:none"
         aria-label="Central processing unitMain memory"
         transform="matrix(1.3333333,0,0,1.3333333,360.2844,746.71533)"
         clip-path="url(#clipPath40)" />
      <path
         id="path41"
         d="m 3.9501969,-4.1839641 c 0.082031,-1.125 -0.3632813,-1.7109375 -1.5117188,-1.7109375 -1.1367187,0 -1.85156247,0.4570313 -1.85156247,2.0976563 v 1.6289062 c 0,2.23828129 1.10156247,2.28515629 1.82812497,2.28515629 0.375,0 1.6640625,0 1.6289063,-1.81640629 H 3.2822281 c -0.011719,1.12500004 -0.6914062,1.20703129 -0.9140625,1.20703129 -0.5625,0 -1.03125,-0.17578125 -1.03125,-1.59374999 v -1.5351563 c 0,-0.9960937 0.140625,-1.1367187 0.1640625,-1.2070312 0.023437,-0.082031 0.2695313,-0.4453125 0.8789063,-0.4453125 0.1523437,0 0.4921875,0.058594 0.6445312,0.2460937 0.1523438,0.1875 0.1757813,0.515625 0.1757813,0.84375 z M 6.45215,0.08166094 c 0.8554688,0 1.5351563,-0.2578125 1.5351563,-2.03906254 0,-1.1835937 -0.140625,-2.1679687 -1.5351563,-2.1679687 -1.40625,0 -1.5351562,0.984375 -1.5351562,2.1679687 0,1.78125004 0.6796875,2.03906254 1.5351562,2.03906254 z m 0,-0.5390625 c -0.6796875,0 -0.8554687,-0.46875 -0.8554687,-1.78125004 0,-1.1015625 0.3515625,-1.3476562 0.8554687,-1.3476562 0.5039063,0 0.84375,0.2460937 0.84375,1.3476562 0,1.31250004 -0.1640625,1.78125004 -0.84375,1.78125004 z m 5.416992,0.4570312475 V -2.8011516 c 0,-0.796875 -0.210937,-1.3242187 -1.078125,-1.3242187 -0.515625,0 -0.8203123,0.1523437 -1.0781248,0.5976562 h -0.035156 v -0.515625 H 8.9863297 c 0.023437,0.28125 0.035156,0.5625 0.035156,0.84375 v 3.1992187875 h 0.65625 V -2.3909953 c 0,-0.5507813 0.1054688,-1.1953125 0.8320313,-1.1953125 0.550781,0 0.703125,0.3515625 0.703125,0.7851562 V -3.703125e-4 Z M 12.437502,-4.0433391 v 0.4921875 h 0.65625 v 2.88281254 c 0,0.45703125 0.28125,0.71484375 0.914062,0.71484375 0.210938,0 0.421875,-0.0468750025 0.644531,-0.05859375 v -0.50390625 c -0.140625,0.0117188 -0.246093,0.0234375 -0.292968,0.0234375 -0.609375,0 -0.609375,-0.328125 -0.609375,-0.58593749 v -2.4726563 h 0.878906 v -0.4921875 h -0.878906 v -1.0664062 l -0.65625,0.2929687 v 0.7734375 z m 3.489257,0 h -0.65625 v 4.0429687875 h 0.65625 V -2.3909953 c 0,-0.5390625 0.1875,-1.0898438 0.914063,-1.0898438 0.07031,0 0.117187,0.011719 0.175781,0.011719 0.05859,0.011719 0.117188,0.023437 0.175781,0.023437 v -0.6796875 c -0.632812,0 -0.972656,0.070312 -1.242187,0.6914062 h -0.02344 z m 3.413086,4.12500004 c 0.855469,0 1.535157,-0.2578125 1.535157,-2.03906254 0,-1.1835937 -0.140625,-2.1679687 -1.535157,-2.1679687 -1.40625,0 -1.535156,0.984375 -1.535156,2.1679687 0,1.78125004 0.679688,2.03906254 1.535156,2.03906254 z m 0,-0.5390625 c -0.679687,0 -0.855468,-0.46875 -0.855468,-1.78125004 0,-1.1015625 0.351562,-1.3476562 0.855468,-1.3476562 0.503907,0 0.84375,0.2460937 0.84375,1.3476562 0,1.31250004 -0.164062,1.78125004 -0.84375,1.78125004 z m 3.213868,-5.32031254 h -0.65625 v 5.7773437875 h 0.65625 z M 8.2949234,7.6402547 c 0,0.6679687 -0.4453125,0.9375 -0.796875,0.9375 -0.46875,0 -0.6914062,-0.328125 -0.6914062,-0.8203125 V 4.9566609 h -0.65625 v 3.0820313 c 0,0.6914062 0.3867187,1.0429687 1.0898437,1.0429687 0.421875,0 0.8085938,-0.1992187 1.03125,-0.5742187 h 0.023437 v 0.4921875 h 0.6914063 c -0.023437,-0.28125 -0.035156,-0.5625 -0.035156,-0.84375 V 4.9566609 h -0.65625 z m 4.6787106,1.359375 V 6.1988484 c 0,-0.796875 -0.210937,-1.3242187 -1.078125,-1.3242187 -0.515625,0 -0.820312,0.1523437 -1.078125,0.5976562 h -0.03516 v -0.515625 h -0.691406 c 0.02344,0.28125 0.03516,0.5625 0.03516,0.84375 v 3.1992188 h 0.65625 v -2.390625 c 0,-0.5507813 0.105469,-1.1953125 0.832031,-1.1953125 0.550782,0 0.703125,0.3515625 0.703125,0.7851562 v 2.8007813 z m 1.795899,-4.0429688 h -0.65625 v 4.0429688 h 0.65625 z m -0.703125,-1.03125 h 0.738281 v -0.703125 h -0.738281 z m 1.250976,1.03125 v 0.4921875 h 0.65625 v 2.8828125 c 0,0.4570313 0.28125,0.7148438 0.914063,0.7148438 0.210937,0 0.421875,-0.046875 0.644531,-0.058594 v -0.503906 c -0.140625,0.011719 -0.246094,0.023437 -0.292969,0.023437 -0.609375,0 -0.609375,-0.328125 -0.609375,-0.5859375 V 5.4488484 h 0.878907 V 4.9566609 H 16.629884 V 3.8902547 l -0.65625,0.2929687 V 4.9566609 Z M 171.53711,-35.039433 c 0.65625,0 1.73438,-0.140625 1.73438,-1.628906 0,-0.785156 -0.36329,-1.289063 -1.1836,-1.382813 v -0.03516 c 0.75,-0.175781 0.9961,-0.65625 0.9961,-1.371094 0,-0.117187 -0.0352,-0.457031 -0.23438,-0.773437 -0.22266,-0.316406 -0.49219,-0.585938 -1.28906,-0.585938 h -1.88672 v 5.777344 z m -1.125,-2.707031 h 0.78516 c 0.75,0 1.32422,0.164062 1.32422,1.078125 0,0.433594 -0.28125,0.984375 -1.06641,0.984375 h -1.04297 z m 0,-2.425781 h 1.04297 c 0.62109,0 0.89062,0.386718 0.89062,0.867187 0,0.5625 -0.28125,0.914063 -0.85546,0.925781 h -1.07813 z m 6.17871,3.773437 c 0,0.667969 -0.44531,0.9375 -0.79687,0.9375 -0.46875,0 -0.69141,-0.328125 -0.69141,-0.820312 v -2.800782 h -0.65625 v 3.082032 c 0,0.691406 0.38672,1.042968 1.08984,1.042968 0.42188,0 0.8086,-0.199218 1.03125,-0.574218 h 0.0234 v 0.492187 h 0.69141 c -0.0234,-0.28125 -0.0352,-0.5625 -0.0352,-0.84375 v -3.199219 h -0.65625 z m 4.43262,0.210938 c 0,-1.242188 -2.01563,-1.21875 -2.01563,-1.933594 0,-0.351563 0.26954,-0.539063 0.6211,-0.539063 0.42187,0 0.64453,0.222657 0.63281,0.644532 h 0.72656 c 0.0586,-0.796875 -0.55078,-1.148438 -1.27734,-1.148438 -1.13672,0 -1.39453,0.679688 -1.39453,1.113281 0,1.207032 2.01562,1.21875 2.01562,1.933594 0,0.421875 -0.30468,0.621094 -0.6914,0.621094 -0.66797,0 -0.66797,-0.539063 -0.66797,-0.773438 h -0.75 c -0.0234,0.925782 0.51562,1.3125 1.39453,1.3125 0.79687,0 1.40625,-0.351562 1.40625,-1.230468 z m 0,0"
         style="fill:#231f20;fill-opacity:1;fill-rule:nonzero;stroke:none"
         aria-label="Control&#10;unit&#10;Bus"
         transform="matrix(1.3333333,0,0,1.3333333,329.52213,875.0044)" />
      <path
         id="path42"
         d="m 448.656,109.774 h 59.688 v 122.362 h -59.688 z"
         style="fill:#cad5af;fill-opacity:1;fill-rule:nonzero;stroke:none"
         transform="matrix(1.3333333,0,0,-1.3333333,0,1064)" />
      <path
         id="path43"
         d="M 0,0 H -59.688 V -122.363 H 0 Z"
         style="fill:none;stroke:#647c33;stroke-width:0.5;stroke-linecap:butt;stroke-linejoin:miter;stroke-miterlimit:10;stroke-dasharray:none;stroke-opacity:1"
         transform="matrix(1.3333333,0,0,-1.3333333,677.79067,754.484)"
         clip-path="url(#clipPath44)" />
      <path
         id="path45"
         d="M 0,0 H -55.688 V -118.363 H 0 Z"
         style="fill:none;stroke:#dbe2c8;stroke-width:0.5;stroke-linecap:butt;stroke-linejoin:miter;stroke-miterlimit:10;stroke-dasharray:none;stroke-opacity:1"
         transform="matrix(1.3333333,0,0,-1.3333333,675.124,757.15067)" />
      <path
         id="path46"
         d="M 0,0 0.196,-122.188"
         style="fill:none;stroke:#ffffff;stroke-width:1;stroke-linecap:butt;stroke-linejoin:miter;stroke-miterlimit:4;stroke-dasharray:none;stroke-opacity:1"
         transform="matrix(1.3333333,0,0,-1.3333333,409.39027,754.71667)"
         clip-path="url(#clipPath47)" />
      <path
         id="path48"
         d="m 358.392,203.797 h -13.3 v 6.308 h 13.3 z"
         style="fill:#f8f8f8;fill-opacity:1;fill-rule:nonzero;stroke:none"
         transform="matrix(1.3333333,0,0,-1.3333333,0,1064)" />
      <path
         id="path49"
         d="M 0,0 H -13.3 V 6.308 H 0 Z"
         style="fill:none;stroke:#231f20;stroke-width:0.75;stroke-linecap:butt;stroke-linejoin:miter;stroke-miterlimit:4;stroke-dasharray:none;stroke-opacity:1"
         transform="matrix(1.3333333,0,0,-1.3333333,477.856,792.27067)" />
      <path
         id="path50"
         d="m 358.392,194.863 h -13.3 v 6.308 h 13.3 z"
         style="fill:#f8f8f8;fill-opacity:1;fill-rule:nonzero;stroke:none"
         transform="matrix(1.3333333,0,0,-1.3333333,0,1064)" />
      <path
         id="path51"
         d="M 0,0 H -13.3 V 6.308 H 0 Z"
         style="fill:none;stroke:#231f20;stroke-width:0.75;stroke-linecap:butt;stroke-linejoin:miter;stroke-miterlimit:4;stroke-dasharray:none;stroke-opacity:1"
         transform="matrix(1.3333333,0,0,-1.3333333,477.856,804.18267)" />
      <path
         id="path52"
         d="m 358.392,186.107 h -13.3 v 6.308 h 13.3 z"
         style="fill:#f8f8f8;fill-opacity:1;fill-rule:nonzero;stroke:none"
         transform="matrix(1.3333333,0,0,-1.3333333,0,1064)" />
      <path
         id="path53"
         d="M 0,0 H -13.3 V 6.308 H 0 Z"
         style="fill:none;stroke:#231f20;stroke-width:0.75;stroke-linecap:butt;stroke-linejoin:miter;stroke-miterlimit:4;stroke-dasharray:none;stroke-opacity:1"
         transform="matrix(1.3333333,0,0,-1.3333333,477.856,815.85733)" />
      <path
         id="path54"
         d="m 358.392,177.173 h -13.3 v 6.308 h 13.3 z"
         style="fill:#f8f8f8;fill-opacity:1;fill-rule:nonzero;stroke:none"
         transform="matrix(1.3333333,0,0,-1.3333333,0,1064)" />
      <path
         id="path55"
         d="M 0,0 H -13.3 V 6.308 H 0 Z"
         style="fill:none;stroke:#231f20;stroke-width:0.75;stroke-linecap:butt;stroke-linejoin:miter;stroke-miterlimit:4;stroke-dasharray:none;stroke-opacity:1"
         transform="matrix(1.3333333,0,0,-1.3333333,477.856,827.76933)" />
      <path
         id="path56"
         d="m 358.392,149.745 h -13.3 v 6.308 h 13.3 z"
         style="fill:#f8f8f8;fill-opacity:1;fill-rule:nonzero;stroke:none"
         transform="matrix(1.3333333,0,0,-1.3333333,0,1064)" />
      <path
         id="path57"
         d="M 0,0 H -13.3 V 6.308 H 0 Z"
         style="fill:none;stroke:#231f20;stroke-width:0.75;stroke-linecap:butt;stroke-linejoin:miter;stroke-miterlimit:4;stroke-dasharray:none;stroke-opacity:1"
         transform="matrix(1.3333333,0,0,-1.3333333,477.856,864.34)" />
      <path
         id="path58"
         d="m 358.392,140.989 h -13.3 v 6.309 h 13.3 z"
         style="fill:#f8f8f8;fill-opacity:1;fill-rule:nonzero;stroke:none"
         transform="matrix(1.3333333,0,0,-1.3333333,0,1064)" />
      <path
         id="path59"
         d="M 0,0 H -13.3 V 6.309 H 0 Z"
         style="fill:none;stroke:#231f20;stroke-width:0.75;stroke-linecap:butt;stroke-linejoin:miter;stroke-miterlimit:4;stroke-dasharray:none;stroke-opacity:1"
         transform="matrix(1.3333333,0,0,-1.3333333,477.856,876.01467)" />
      <path
         id="path60"
         d="m 358.392,132.055 h -13.3 v 6.308 h 13.3 z"
         style="fill:#f8f8f8;fill-opacity:1;fill-rule:nonzero;stroke:none"
         transform="matrix(1.3333333,0,0,-1.3333333,0,1064)" />
      <path
         id="path61"
         d="M 0,0 H -13.3 V 6.308 H 0 Z"
         style="fill:none;stroke:#231f20;stroke-width:0.75;stroke-linecap:butt;stroke-linejoin:miter;stroke-miterlimit:4;stroke-dasharray:none;stroke-opacity:1"
         transform="matrix(1.3333333,0,0,-1.3333333,477.856,887.92667)" />
      <path
         id="path62"
         d="M 0,0 H 89.684"
         style="fill:none;stroke:#ffffff;stroke-width:1;stroke-linecap:butt;stroke-linejoin:miter;stroke-miterlimit:4;stroke-dasharray:none;stroke-opacity:1"
         transform="matrix(1.3333333,0,0,-1.3333333,290.208,836.17573)"
         clip-path="url(#clipPath63)" />
      <path
         id="path64"
         d="m 351.262,171.683 h 0.96 v 1.056 h -0.96 z"
         style="fill:#231f20;fill-opacity:1;fill-rule:nonzero;stroke:none"
         transform="matrix(1.3333333,0,0,-1.3333333,0,1064)" />
      <path
         id="path65"
         d="m 351.262,165.684 h 0.96 v 1.057 h -0.96 z"
         style="fill:#231f20;fill-opacity:1;fill-rule:nonzero;stroke:none"
         transform="matrix(1.3333333,0,0,-1.3333333,0,1064)" />
      <path
         id="path66"
         d="m 351.262,159.684 h 0.96 v 1.056 h -0.96 z"
         style="fill:#231f20;fill-opacity:1;fill-rule:nonzero;stroke:none"
         transform="matrix(1.3333333,0,0,-1.3333333,0,1064)" />
    </g>
  </g>
</svg>
