<?xml version="1.0" encoding="UTF-8" standalone="no"?>
<!-- Created with Inkscape (http://www.inkscape.org/) -->

<svg
   width="1235.799"
   height="422.263"
   viewBox="0 0 326.9718 111.72375"
   version="1.1"
   id="svg1"
   inkscape:version="1.4 (e7c3feb100, 2024-10-09)"
   sodipodi:docname="brookshear-2020-figure-1-2-adapted.svg"
   inkscape:export-filename="brookshear-2020-figure-1-2-adpated-rgb-96-dpi.png"
   inkscape:export-xdpi="96"
   inkscape:export-ydpi="96"
   xmlns:inkscape="http://www.inkscape.org/namespaces/inkscape"
   xmlns:sodipodi="http://sodipodi.sourceforge.net/DTD/sodipodi-0.dtd"
   xmlns="http://www.w3.org/2000/svg"
   xmlns:svg="http://www.w3.org/2000/svg">
  <sodipodi:namedview
     id="namedview1"
     pagecolor="#505050"
     bordercolor="#eeeeee"
     borderopacity="1"
     inkscape:showpageshadow="0"
     inkscape:pageopacity="0"
     inkscape:pagecheckerboard="0"
     inkscape:deskcolor="#505050"
     inkscape:document-units="px"
     inkscape:zoom="0.71713664"
     inkscape:cx="555.68211"
     inkscape:cy="335.36147"
     inkscape:window-width="1920"
     inkscape:window-height="1020"
     inkscape:window-x="0"
     inkscape:window-y="28"
     inkscape:window-maximized="1"
     inkscape:current-layer="layer1"
     showguides="true">
    <sodipodi:guide
       position="126.27252,229.17608"
       orientation="0,-1"
       id="guide3"
       inkscape:locked="false" />
    <sodipodi:guide
       position="119.99029,205.63881"
       orientation="0,-1"
       id="guide4"
       inkscape:locked="false" />
    <sodipodi:guide
       position="98.025936,205.64922"
       orientation="1,0"
       id="guide11"
       inkscape:locked="false" />
    <sodipodi:guide
       position="117.8787,232.43366"
       orientation="1,0"
       id="guide12"
       inkscape:locked="false" />
    <sodipodi:guide
       position="217.25595,205.87314"
       orientation="1,0"
       id="guide14"
       inkscape:locked="false" />
    <sodipodi:guide
       position="237.11619,217.5216"
       orientation="1,0"
       id="guide15"
       inkscape:locked="false" />
    <sodipodi:guide
       position="65.159189,183.61454"
       orientation="0,-1"
       id="guide16"
       inkscape:locked="false" />
  </sodipodi:namedview>
  <defs
     id="defs1">
    <clipPath
       clipPathUnits="userSpaceOnUse"
       id="clipPath38">
      <path
         d="M 142.123,428.241 H 439.876 V 693 H 142.123 Z"
         transform="matrix(1,0,0,-1,-142.1235,686.11211)"
         id="path38" />
    </clipPath>
    <clipPath
       clipPathUnits="userSpaceOnUse"
       id="clipPath43">
      <path
         d="M 142.123,428.241 H 439.876 V 693 H 142.123 Z"
         transform="matrix(1,0,0,-1,-142.1235,659.62721)"
         id="path43" />
    </clipPath>
    <clipPath
       clipPathUnits="userSpaceOnUse"
       id="clipPath57">
      <path
         d="M 142.123,428.241 H 439.876 V 693 H 142.123 Z"
         transform="matrix(1,0,0,-1,-142.1235,544.98901)"
         id="path57" />
    </clipPath>
    <clipPath
       clipPathUnits="userSpaceOnUse"
       id="clipPath62">
      <path
         d="M 142.123,428.241 H 439.876 V 693 H 142.123 Z"
         transform="translate(-201.11281,-428.24101)"
         id="path62" />
    </clipPath>
    <clipPath
       clipPathUnits="userSpaceOnUse"
       id="clipPath71">
      <path
         d="M 142.123,428.241 H 439.876 V 693 H 142.123 Z"
         transform="matrix(1,0,0,-1,-324.28711,686.11211)"
         id="path71" />
    </clipPath>
    <clipPath
       clipPathUnits="userSpaceOnUse"
       id="clipPath74">
      <path
         d="M 142.123,428.241 H 439.876 V 693 H 142.123 Z"
         transform="matrix(1,0,0,-1,-418.54101,659.62721)"
         id="path74" />
    </clipPath>
    <clipPath
       clipPathUnits="userSpaceOnUse"
       id="clipPath94">
      <path
         d="M 142.123,428.241 H 439.876 V 693 H 142.123 Z"
         transform="translate(-396.71581,-662.56132)"
         id="path94" />
    </clipPath>
    <clipPath
       clipPathUnits="userSpaceOnUse"
       id="clipPath96">
      <path
         d="M 142.123,428.241 H 439.876 V 693 H 142.123 Z"
         transform="translate(-394.76561,-662.56811)"
         id="path96" />
    </clipPath>
    <clipPath
       clipPathUnits="userSpaceOnUse"
       id="clipPath98">
      <path
         d="M 142.123,428.241 H 439.876 V 693 H 142.123 Z"
         transform="translate(-188.0503,-673.20341)"
         id="path98" />
    </clipPath>
    <clipPath
       clipPathUnits="userSpaceOnUse"
       id="clipPath100">
      <path
         d="M 142.123,428.241 H 439.876 V 693 H 142.123 Z"
         transform="translate(-189.72951,-671.66582)"
         id="path100" />
    </clipPath>
    <clipPath
       clipPathUnits="userSpaceOnUse"
       id="clipPath102">
      <path
         d="M 142.123,428.241 H 439.876 V 693 H 142.123 Z"
         transform="translate(-371.73041,-517.28981)"
         id="path102" />
    </clipPath>
    <clipPath
       clipPathUnits="userSpaceOnUse"
       id="clipPath104">
      <path
         d="M 142.123,428.241 H 439.876 V 693 H 142.123 Z"
         transform="translate(-373.05861,-519.70102)"
         id="path104" />
    </clipPath>
    <clipPath
       clipPathUnits="userSpaceOnUse"
       id="clipPath106">
      <path
         d="M 142.123,428.241 H 439.876 V 693 H 142.123 Z"
         transform="translate(-388.63771,-524.34061)"
         id="path106" />
    </clipPath>
    <clipPath
       clipPathUnits="userSpaceOnUse"
       id="clipPath108">
      <path
         d="M 142.123,428.241 H 439.876 V 693 H 142.123 Z"
         transform="translate(-388.58101,-524.69021)"
         id="path108" />
    </clipPath>
    <clipPath
       clipPathUnits="userSpaceOnUse"
       id="clipPath111">
      <path
         d="M 142.123,428.241 H 439.876 V 693 H 142.123 Z"
         transform="matrix(1.3333333,0,0,-1.3333333,0,1064)"
         id="path111" />
    </clipPath>
    <clipPath
       clipPathUnits="userSpaceOnUse"
       id="clipPath109">
      <path
         d="m 385.927,524.28 h 1.324 v 1.324 h -1.324 z"
         transform="translate(-387.25091,-524.94221)"
         id="path109" />
    </clipPath>
    <clipPath
       clipPathUnits="userSpaceOnUse"
       id="clipPath113">
      <path
         d="M 142.123,428.241 H 439.876 V 693 H 142.123 Z"
         transform="translate(-388.57911,-524.30152)"
         id="path113" />
    </clipPath>
    <clipPath
       clipPathUnits="userSpaceOnUse"
       id="clipPath115">
      <path
         d="M 142.123,428.241 H 439.876 V 693 H 142.123 Z"
         transform="translate(-214.56391,-524.39041)"
         id="path115" />
    </clipPath>
    <clipPath
       clipPathUnits="userSpaceOnUse"
       id="clipPath117">
      <path
         d="M 142.123,428.241 H 439.876 V 693 H 142.123 Z"
         transform="translate(-212.61421,-524.39731)"
         id="path117" />
    </clipPath>
    <clipPath
       clipPathUnits="userSpaceOnUse"
       id="clipPath119">
      <path
         d="M 142.123,428.241 H 439.876 V 693 H 142.123 Z"
         transform="translate(-186.3354,-524.32991)"
         id="path119" />
    </clipPath>
    <clipPath
       clipPathUnits="userSpaceOnUse"
       id="clipPath121">
      <path
         d="M 142.123,428.241 H 439.876 V 693 H 142.123 Z"
         transform="translate(-184.3354,-513.53692)"
         id="path121" />
    </clipPath>
  </defs>
  <g
     inkscape:label="Content"
     inkscape:groupmode="layer"
     id="layer1">
    <g
       id="g14">
      <path
         id="path70"
         d="m 2.4375094,0.09354531 c 1.9921875,0 1.9921875,-1.46484371 1.9921875,-2.98828121 0,-1.5234375 0,-2.9765625 -1.9921875,-2.9765625 -1.99218752,0 -1.99218752,1.453125 -1.99218752,2.9765625 0,1.5234375 0,2.98828121 1.99218752,2.98828121 z m 0,-0.8671875 c -0.6796875,0 -0.7617188,-0.63281251 -0.7617188,-2.12109371 0,-1.4765625 0.082031,-2.1210938 0.7617188,-2.1210938 0.6796875,0 0.7734375,0.6445313 0.7734375,2.1210938 0,1.4882812 -0.09375,2.12109371 -0.7734375,2.12109371 z M 6.5742281,-2.3908297 h 0.3164063 c 0.9257812,0 0.8671875,0.5859375 0.8671875,1.265625 0,0.37500001 -0.035156,0.77343751 0.1171875,1.1250000125 H 9.0703219 C 8.9531344,-0.23457969 8.9296969,-1.3244234 8.9296969,-1.6994234 c 0,-1.0429688 -0.7851563,-1.1015625 -1.0546875,-1.1367188 v -0.011719 c 0.7851562,-0.1289063 1.078125,-0.6796875 1.078125,-1.4179688 0,-0.984375 -0.5273438,-1.5117187 -1.3476563,-1.5117187 H 5.3671969 v 5.7773437125 h 1.2070312 z m 0,-2.4960937 h 0.5390625 c 0.3867188,0 0.609375,0.1992187 0.609375,0.7617187 0,0.3632813 -0.1289062,0.84375 -0.609375,0.84375 H 6.5742281 Z m 0,0"
         style="fill:#231f20;fill-opacity:1;fill-rule:nonzero;stroke:none"
         aria-label="OR"
         transform="matrix(0.88872266,0,0,0.88872266,117.47399,5.2179556)"
         clip-path="url(#clipPath71)" />
      <g
         id="g7"
         transform="translate(-3.6007864)">
        <path
           id="path75"
           d="M 207.68594,111.63993 H 134.65071 V 50.779314 h 73.03523 z"
           style="fill:#cad5af;fill-opacity:1;fill-rule:nonzero;stroke:none;stroke-width:0.888723" />
        <path
           id="path76"
           d="m 134.65028,68.720386 h 73.03523"
           style="fill:none;stroke:#ffffff;stroke-width:0.888723;stroke-linecap:butt;stroke-linejoin:miter;stroke-miterlimit:4;stroke-dasharray:none;stroke-opacity:1" />
        <path
           id="path77"
           d="M 171.16771,111.64036 V 50.779744"
           style="fill:none;stroke:#ffffff;stroke-width:0.888723;stroke-linecap:butt;stroke-linejoin:miter;stroke-miterlimit:4;stroke-dasharray:none;stroke-opacity:1" />
        <path
           id="path78"
           d="m 145.31063,56.31759 h -0.64572 v 5.134456 h 0.64572 z m 3.70503,5.134456 v -2.489118 c 0,-0.708201 -0.18746,-1.176863 -0.95815,-1.176863 -0.45825,0 -0.72903,0.135391 -0.95816,0.531151 h -0.0312 v -0.458248 h -0.61447 c 0.0208,0.249953 0.0312,0.499907 0.0312,0.74986 v 2.843218 h 0.58322 v -2.124603 c 0,-0.489491 0.0937,-1.062301 0.73944,-1.062301 0.4895,0 0.62489,0.312442 0.62489,0.697786 v 2.489118 z m 1.66115,-3.593078 h -0.58322 v 4.946991 h 0.58322 v -1.718428 h 0.0208 c 0.19788,0.281197 0.44783,0.437418 0.79152,0.437418 1.15603,0 1.18728,-1.031057 1.18728,-1.926723 0,-1.583037 -0.58323,-1.812161 -1.15604,-1.812161 -0.38534,0 -0.6353,0.166636 -0.83318,0.499907 h -0.0104 z m 0.67696,3.186904 c -0.64572,0 -0.67696,-0.760274 -0.67696,-1.239352 0,-0.541565 -0.0625,-1.541378 0.65613,-1.541378 0.72903,0 0.72903,0.791519 0.72903,1.333084 0,0.958154 -0.0833,1.447646 -0.7082,1.447646 z m 4.16849,-0.801933 c 0,0.593639 -0.39576,0.833177 -0.7082,0.833177 -0.41659,0 -0.61447,-0.291612 -0.61447,-0.72903 v -2.489118 h -0.58323 v 2.739071 c 0,0.614469 0.34369,0.92691 0.96857,0.92691 0.37493,0 0.71862,-0.17705 0.9165,-0.510321 h 0.0208 v 0.437418 h 0.61447 c -0.0208,-0.249953 -0.0312,-0.499906 -0.0312,-0.74986 v -2.843218 h -0.58322 z m 1.10656,-2.384971 v 0.437418 h 0.58323 v 2.562021 c 0,0.406174 0.24995,0.635298 0.81234,0.635298 0.18747,0 0.37493,-0.04166 0.57281,-0.05207 v -0.447833 c -0.12497,0.01042 -0.21871,0.02083 -0.26036,0.02083 -0.54157,0 -0.54157,-0.291612 -0.54157,-0.520736 V 58.29639 h 0.7811 v -0.437418 h -0.7811 v -0.947739 l -0.58322,0.260368 v 0.687371 z m 4.8116,2.572436 c 0,-1.103961 -1.79133,-1.083131 -1.79133,-1.718429 0,-0.312442 0.23954,-0.479077 0.55198,-0.479077 0.37493,0 0.57281,0.19788 0.5624,0.572809 h 0.64571 c 0.0521,-0.7082 -0.48949,-1.020642 -1.13521,-1.020642 -1.01022,0 -1.23935,0.604054 -1.23935,0.989398 0,1.072716 1.79133,1.083131 1.79133,1.718429 0,0.37493 -0.27078,0.55198 -0.61447,0.55198 -0.59363,0 -0.59363,-0.479077 -0.59363,-0.687371 h -0.66655 c -0.0208,0.822762 0.45825,1.166448 1.23936,1.166448 0.7082,0 1.24976,-0.312441 1.24976,-1.093545 z m 0,0"
           style="fill:#231f20;fill-opacity:1;fill-rule:nonzero;stroke:none;stroke-width:0.888723"
           aria-label="Inputs" />
        <path
           id="path79"
           d="m 149.94778,75.517122 c 0,-0.635298 0,-2.926536 -1.86424,-2.926536 -1.86423,0 -1.86423,2.312068 -1.86423,2.926536 0,0.676957 0.0104,2.916121 1.86423,2.916121 1.86424,0 1.86424,-2.301653 1.86424,-2.916121 z m -0.71862,0 c 0,0.978984 -0.10415,2.343312 -1.14562,2.343312 -1.04147,0 -1.1352,-1.395573 -1.1352,-2.343312 0,-1.135204 0.15622,-2.353726 1.1352,-2.353726 1.04147,0 1.14562,1.353913 1.14562,2.353726 z m 10.31578,0 c 0,-0.635298 0,-2.926536 -1.86423,-2.926536 -1.86424,0 -1.86424,2.312068 -1.86424,2.926536 0,0.676957 0.0104,2.916121 1.86424,2.916121 1.86423,0 1.86423,-2.301653 1.86423,-2.916121 z m -0.71862,0 c 0,0.978984 -0.10414,2.343312 -1.14561,2.343312 -1.04148,0 -1.13521,-1.395573 -1.13521,-2.343312 0,-1.135204 0.15622,-2.353726 1.13521,-2.353726 1.04147,0 1.14561,1.353913 1.14561,2.353726 z m -8.87854,9.334192 c 0,-0.635298 0,-2.926536 -1.86424,-2.926536 -1.86423,0 -1.86423,2.312067 -1.86423,2.926536 0,0.676956 0.0104,2.91612 1.86423,2.91612 1.86424,0 1.86424,-2.301652 1.86424,-2.91612 z m -0.71862,0 c 0,0.978983 -0.10415,2.343311 -1.14562,2.343311 -1.04147,0 -1.1352,-1.395572 -1.1352,-2.343311 0,-1.135205 0.15622,-2.353727 1.1352,-2.353727 1.04147,0 1.14562,1.353914 1.14562,2.353727 z m 9.0556,-2.926536 h -0.45825 c -0.2812,0.583224 -0.97898,1.124789 -1.65594,1.437231 v 0.676957 c 0.26037,-0.09373 0.95816,-0.416589 1.40599,-0.843593 v 4.47833 h 0.7082 z m -9.59716,9.334191 h -0.45825 c -0.2812,0.583224 -0.97899,1.12479 -1.65594,1.437232 v 0.676957 c 0.26037,-0.09373 0.95815,-0.416589 1.40598,-0.843593 v 4.478329 h 0.70821 z m 10.85734,2.926536 c 0,-0.635298 0,-2.926536 -1.86423,-2.926536 -1.86424,0 -1.86424,2.312068 -1.86424,2.926536 0,0.676957 0.0104,2.916121 1.86424,2.916121 1.86423,0 1.86423,-2.301653 1.86423,-2.916121 z m -0.71862,0 c 0,0.978984 -0.10414,2.343312 -1.14561,2.343312 -1.04148,0 -1.13521,-1.395573 -1.13521,-2.343312 0,-1.135204 0.15622,-2.353726 1.13521,-2.353726 1.04147,0 1.14561,1.353913 1.14561,2.353726 z m -10.13872,6.407655 h -0.45825 c -0.2812,0.58323 -0.97899,1.12479 -1.65594,1.43723 v 0.67696 c 0.26037,-0.0937 0.95815,-0.41659 1.40598,-0.84359 v 4.47833 h 0.70821 z m 9.59716,0 h -0.45825 c -0.2812,0.58323 -0.97898,1.12479 -1.65594,1.43723 v 0.67696 c 0.26037,-0.0937 0.95816,-0.41659 1.40599,-0.84359 v 4.47833 h 0.7082 z m 0,0"
           style="fill:#231f20;fill-opacity:1;fill-rule:nonzero;stroke:none;stroke-width:0.888723"
           aria-label="0 0&#10;0 1&#10;1 0&#10;1 1" />
        <path
           id="path80"
           d="m 182.13447,61.556193 c 1.09355,0 1.61428,-0.562395 1.61428,-1.978796 v -1.687185 c 0,-1.031057 -0.52073,-1.676769 -1.61428,-1.676769 -1.08313,0 -1.61428,0.645712 -1.61428,1.676769 v 1.687185 c 0,1.416401 0.53115,1.978796 1.61428,1.978796 z m 0,-0.541565 c -0.61447,0 -0.94774,-0.291612 -0.94774,-1.416402 v -1.728843 c 0,-1.072716 0.74986,-1.114375 0.94774,-1.114375 0.2083,0 0.94774,0.04166 0.94774,1.114375 v 1.728843 c 0,1.12479 -0.32286,1.416402 -0.94774,1.416402 z m 4.61372,-0.770689 c 0,0.593639 -0.39576,0.833177 -0.7082,0.833177 -0.41659,0 -0.61447,-0.291612 -0.61447,-0.72903 v -2.489118 h -0.58322 v 2.739071 c 0,0.614469 0.34368,0.92691 0.96857,0.92691 0.37493,0 0.71861,-0.17705 0.91649,-0.510321 h 0.0208 v 0.437418 h 0.61447 c -0.0208,-0.249953 -0.0312,-0.499906 -0.0312,-0.74986 v -2.843218 h -0.58323 z m 1.10917,-2.384971 v 0.437418 h 0.58322 v 2.562021 c 0,0.406174 0.24996,0.635298 0.81235,0.635298 0.18747,0 0.37493,-0.04166 0.57281,-0.05207 v -0.447833 c -0.12498,0.01042 -0.21871,0.02083 -0.26037,0.02083 -0.54156,0 -0.54156,-0.291612 -0.54156,-0.520736 V 58.29639 h 0.7811 v -0.437418 h -0.7811 v -0.947739 l -0.58323,0.260368 v 0.687371 z m 3.13223,0 h -0.58323 v 4.946991 h 0.58323 v -1.718428 h 0.0208 c 0.19788,0.281197 0.44783,0.437418 0.79152,0.437418 1.15603,0 1.18727,-1.031057 1.18727,-1.926723 0,-1.583037 -0.58322,-1.812161 -1.15603,-1.812161 -0.38534,0 -0.6353,0.166636 -0.83318,0.499907 h -0.0104 z m 0.67695,3.186904 c -0.64571,0 -0.67695,-0.760274 -0.67695,-1.239352 0,-0.541565 -0.0625,-1.541378 0.65612,-1.541378 0.72903,0 0.72903,0.791519 0.72903,1.333084 0,0.958154 -0.0833,1.447646 -0.7082,1.447646 z m 4.16849,-0.801933 c 0,0.593639 -0.39576,0.833177 -0.7082,0.833177 -0.41659,0 -0.61447,-0.291612 -0.61447,-0.72903 v -2.489118 h -0.58322 v 2.739071 c 0,0.614469 0.34369,0.92691 0.96857,0.92691 0.37493,0 0.71861,-0.17705 0.91649,-0.510321 h 0.0208 v 0.437418 h 0.61446 c -0.0208,-0.249953 -0.0312,-0.499906 -0.0312,-0.74986 v -2.843218 h -0.58323 z m 1.10917,-2.384971 v 0.437418 h 0.58323 v 2.562021 c 0,0.406174 0.24995,0.635298 0.81234,0.635298 0.18747,0 0.37493,-0.04166 0.57281,-0.05207 v -0.447833 c -0.12497,0.01042 -0.21871,0.02083 -0.26037,0.02083 -0.54156,0 -0.54156,-0.291612 -0.54156,-0.520736 V 58.29639 h 0.7811 v -0.437418 h -0.7811 v -0.947739 l -0.58322,0.260368 v 0.687371 z m 0,0"
           style="fill:#231f20;fill-opacity:1;fill-rule:nonzero;stroke:none;stroke-width:0.888723"
           aria-label="Output" />
        <path
           id="path81"
           d="m 191.30984,77.292833 c 0,-0.635298 0,-2.926536 -1.86424,-2.926536 -1.86423,0 -1.86423,2.312068 -1.86423,2.926536 0,0.676957 0.0104,2.916122 1.86423,2.916122 1.86424,0 1.86424,-2.301653 1.86424,-2.916122 z m -0.71862,0 c 0,0.978984 -0.10415,2.343312 -1.14562,2.343312 -1.04147,0 -1.1352,-1.395572 -1.1352,-2.343312 0,-1.135204 0.15622,-2.353726 1.1352,-2.353726 1.04147,0 1.14562,1.353913 1.14562,2.353726 z m -0.54156,6.407656 h -0.45825 c -0.2812,0.583224 -0.97899,1.12479 -1.65594,1.437231 v 0.676957 c 0.26037,-0.09373 0.95815,-0.416589 1.40598,-0.843592 v 4.478329 h 0.70821 z m 0,9.334191 h -0.45825 c -0.2812,0.583225 -0.97899,1.12479 -1.65594,1.437232 v 0.676957 c 0.26037,-0.09373 0.95815,-0.416589 1.40598,-0.843593 v 4.478329 h 0.70821 z m 0,9.33419 h -0.45825 c -0.2812,0.58323 -0.97899,1.12479 -1.65594,1.43723 v 0.67696 c 0.26037,-0.0937 0.95815,-0.41659 1.40598,-0.84359 v 4.47833 h 0.70821 z m 0,0"
           style="fill:#231f20;fill-opacity:1;fill-rule:nonzero;stroke:none;stroke-width:0.888723"
           aria-label="0&#10;1&#10;1&#10;1" />
      </g>
      <g
         id="g6"
         transform="translate(-4.19669)">
        <path
           id="path67"
           d="m 181.51475,26.105516 h 16.9826"
           style="fill:none;stroke:#231f20;stroke-width:0.444361;stroke-linecap:butt;stroke-linejoin:miter;stroke-miterlimit:4;stroke-dasharray:none;stroke-opacity:1" />
        <path
           id="path68"
           d="m 143.8378,19.486127 h 17.82511"
           style="fill:none;stroke:#231f20;stroke-width:0.444361;stroke-linecap:butt;stroke-linejoin:miter;stroke-miterlimit:4;stroke-dasharray:none;stroke-opacity:1" />
        <path
           id="path69"
           d="m 143.8378,32.724985 h 18.30235"
           style="fill:none;stroke:#231f20;stroke-width:0.444361;stroke-linecap:butt;stroke-linejoin:miter;stroke-miterlimit:4;stroke-dasharray:none;stroke-opacity:1" />
        <path
           id="path72"
           d="m 122.7211,23.620582 h -0.64571 v 5.134457 h 0.64571 z m 3.70504,5.134457 v -2.489118 c 0,-0.708201 -0.18747,-1.176863 -0.95816,-1.176863 -0.45824,0 -0.72903,0.135391 -0.95815,0.53115 h -0.0312 v -0.458247 h -0.61447 c 0.0208,0.249953 0.0312,0.499906 0.0312,0.749859 v 2.843219 h 0.58323 v -2.124603 c 0,-0.489492 0.0937,-1.062301 0.73944,-1.062301 0.48949,0 0.62488,0.312441 0.62488,0.697786 v 2.489118 z m 1.65854,-3.593078 h -0.58322 v 4.946991 h 0.58322 v -1.718429 h 0.0208 c 0.19788,0.281198 0.44783,0.437419 0.79152,0.437419 1.15603,0 1.18728,-1.031058 1.18728,-1.926723 0,-1.583038 -0.58323,-1.812161 -1.15604,-1.812161 -0.38534,0 -0.63529,0.166635 -0.83317,0.499906 h -0.0104 z m 0.67696,3.186903 c -0.64571,0 -0.67696,-0.760274 -0.67696,-1.239351 0,-0.541565 -0.0625,-1.541378 0.65613,-1.541378 0.72903,0 0.72903,0.791518 0.72903,1.333084 0,0.958154 -0.0833,1.447645 -0.7082,1.447645 z m 4.17109,-0.801933 c 0,0.593639 -0.39575,0.833178 -0.7082,0.833178 -0.41659,0 -0.61446,-0.291612 -0.61446,-0.729031 v -2.489117 h -0.58323 v 2.739071 c 0,0.614468 0.34369,0.92691 0.96857,0.92691 0.37493,0 0.71862,-0.177051 0.9165,-0.510322 h 0.0208 v 0.437419 h 0.61447 c -0.0208,-0.249954 -0.0312,-0.499907 -0.0312,-0.74986 v -2.843218 h -0.58323 z m 1.10657,-2.38497 v 0.437418 h 0.58322 V 28.1614 c 0,0.406174 0.24996,0.635297 0.81235,0.635297 0.18747,0 0.37493,-0.04166 0.57281,-0.05207 v -0.447833 c -0.12498,0.01042 -0.21871,0.02083 -0.26037,0.02083 -0.54156,0 -0.54156,-0.291612 -0.54156,-0.520736 v -2.197505 h 0.7811 v -0.437418 h -0.7811 v -0.94774 l -0.58323,0.260368 v 0.687372 z m 4.80899,2.572435 c 0,-1.10396 -1.79133,-1.083131 -1.79133,-1.718428 0,-0.312442 0.23954,-0.479078 0.55198,-0.479078 0.37493,0 0.57281,0.19788 0.5624,0.57281 h 0.64571 c 0.0521,-0.708201 -0.48949,-1.020642 -1.1352,-1.020642 -1.01023,0 -1.23936,0.604053 -1.23936,0.989398 0,1.072716 1.79134,1.083131 1.79134,1.718428 0,0.37493 -0.27079,0.55198 -0.61447,0.55198 -0.59364,0 -0.59364,-0.479077 -0.59364,-0.687371 h -0.66654 c -0.0208,0.822763 0.45824,1.166449 1.23935,1.166449 0.7082,0 1.24976,-0.312442 1.24976,-1.093546 z m 0,0"
           style="fill:#231f20;fill-opacity:1;fill-rule:nonzero;stroke:none;stroke-width:0.888723"
           aria-label="Inputs" />
        <path
           id="path73"
           d="m 2.4375156,0.11645781 c 1.2304688,0 1.8164063,-0.6328125 1.8164063,-2.22656251 v -1.8984375 c 0,-1.1601562 -0.5859375,-1.8867187 -1.8164063,-1.8867187 -1.21875,0 -1.81640622,0.7265625 -1.81640622,1.8867187 v 1.8984375 c 0,1.59375001 0.59765622,2.22656251 1.81640622,2.22656251 z m 0,-0.609375 c -0.6914062,0 -1.0664062,-0.328125 -1.0664062,-1.59375001 v -1.9453125 c 0,-1.2070312 0.84375,-1.2539062 1.0664062,-1.2539062 0.234375,0 1.0664063,0.046875 1.0664063,1.2539062 v 1.9453125 c 0,1.26562501 -0.3632813,1.59375001 -1.0664063,1.59375001 z M 7.6289219,-1.3601047 c 0,0.66796876 -0.4453125,0.93750001 -0.796875,0.93750001 -0.46875,0 -0.6914063,-0.328125 -0.6914063,-0.82031251 v -2.8007812 h -0.65625 v 3.08203121 c 0,0.69140625 0.3867188,1.04296875 1.0898438,1.04296875 0.421875,0 0.8085937,-0.19921875 1.03125,-0.57421875 h 0.023437 V -7.296875e-4 H 8.3203281 C 8.2968906,-0.28197969 8.2851719,-0.56322969 8.2851719,-0.84447969 V -4.0436984 h -0.65625 z m 1.2480469,-2.6835937 v 0.4921875 h 0.65625 v 2.88281246 c 0,0.45703125 0.28125,0.71484375 0.9140622,0.71484375 0.210938,0 0.421875,-0.0468749975 0.644532,-0.05859375 v -0.50390625 c -0.140625,0.0117188 -0.246094,0.0234375 -0.292969,0.0234375 -0.609375,0 -0.609375,-0.328125 -0.609375,-0.58593751 v -2.4726562 h 0.878906 v -0.4921875 h -0.878906 v -1.0664063 l -0.6562502,0.2929688 v 0.7734375 z m 3.5244142,0 h -0.65625 v 5.5664062 h 0.65625 v -1.93359374 h 0.02344 c 0.222657,0.31640625 0.503907,0.4921875 0.890625,0.4921875 1.300782,0 1.335938,-1.16015626 1.335938,-2.16796876 0,-1.78125 -0.65625,-2.0390625 -1.300781,-2.0390625 -0.433594,0 -0.714844,0.1875 -0.9375,0.5625 h -0.01172 z m 0.761719,3.58593746 c -0.726563,0 -0.761719,-0.85546876 -0.761719,-1.39453126 0,-0.609375 -0.07031,-1.734375 0.738281,-1.734375 0.820313,0 0.820313,0.890625 0.820313,1.5 0,1.078125 -0.09375,1.62890626 -0.796875,1.62890626 z m 4.690429,-0.90234376 c 0,0.66796876 -0.445312,0.93750001 -0.796875,0.93750001 -0.46875,0 -0.691406,-0.328125 -0.691406,-0.82031251 V -4.0436984 H 15.709 v 3.08203121 c 0,0.69140625 0.386719,1.04296875 1.089844,1.04296875 0.421875,0 0.808594,-0.19921875 1.03125,-0.57421875 h 0.02344 v 0.4921875025 h 0.691407 C 18.5215,-0.28197969 18.509781,-0.56322969 18.509781,-0.84447969 V -4.0436984 h -0.65625 z m 1.248047,-2.6835937 v 0.4921875 h 0.65625 v 2.88281246 c 0,0.45703125 0.28125,0.71484375 0.914063,0.71484375 0.210937,0 0.421875,-0.0468749975 0.644531,-0.05859375 v -0.50390625 c -0.140625,0.0117188 -0.246094,0.0234375 -0.292969,0.0234375 -0.609375,0 -0.609375,-0.328125 -0.609375,-0.58593751 v -2.4726562 h 0.878906 v -0.4921875 h -0.878906 v -1.0664063 l -0.65625,0.2929688 v 0.7734375 z m 0,0"
           style="fill:#231f20;fill-opacity:1;fill-rule:nonzero;stroke:none"
           aria-label="Output"
           transform="matrix(0.88872266,0,0,0.88872266,202.50825,28.755687)"
           clip-path="url(#clipPath74)" />
        <path
           id="path93"
           d="m 0,0 c -6.617,-12.76 -26.906,-10.793 -26.906,-10.793 0,0 2,3.918 2,10.793 0,6.875 -2,10.895 -2,10.895 0,0 20.32,1.918 26.914,-10.895 z"
           style="fill:#7ba6b9;fill-opacity:1;fill-rule:nonzero;stroke:#255b76;stroke-width:1;stroke-linecap:round;stroke-linejoin:round;stroke-miterlimit:10;stroke-dasharray:none;stroke-opacity:1"
           transform="matrix(0.88872266,0,0,-0.88872266,183.1117,26.148081)"
           clip-path="url(#clipPath94)" />
        <path
           id="path95"
           d="m 0,0 c -5.658,-10.91 -23.005,-9.228 -23.005,-9.228 0,0 1.71,3.35 1.71,9.228 0,5.878 -1.71,9.314 -1.71,9.314 0,0 17.374,1.641 23.012,-9.314 z"
           style="fill:none;stroke:#c5dae2;stroke-width:0.5;stroke-linecap:round;stroke-linejoin:round;stroke-miterlimit:10;stroke-dasharray:none;stroke-opacity:1"
           transform="matrix(0.88872266,0,0,-0.88872266,181.37851,26.142042)"
           clip-path="url(#clipPath96)" />
      </g>
    </g>
    <g
       id="g11">
      <path
         id="path37"
         d="M 1.2524766,-2.046875e-4 1.5806016,-1.2775484 H 3.2329453 L 3.5493516,-2.046875e-4 H 4.8266953 L 3.2563828,-5.7775484 h -1.59375 L 0.05716406,-2.046875e-4 Z M 2.9751328,-2.1681734 H 1.8266953 l 0.5507813,-2.4960938 h 0.011719 z m 3.553711,2.1679687125 V -4.2306734 h 0.011719 l 1.5820313,4.2304687125 h 1.59375 V -5.7775484 h -1.125 v 3.9960937 H 8.5679063 L 7.03275,-5.7775484 H 5.4038438 v 5.7773437125 z m 4.2216792,0 h 1.96875 c 2.0625,0 1.933594,-2.0273437125 1.933594,-2.9179687125 0,-1.8046875 -0.304687,-2.859375 -1.886719,-2.859375 H 10.750523 Z M 11.957555,-4.8869234 h 0.621093 c 0.84375,0 0.84375,0.9375 0.84375,1.9921875 0,1.453125 -0.140625,2.00390621 -0.878906,2.00390621 h -0.585937 z m 0,0"
         style="fill:#231f20;fill-opacity:1;fill-rule:nonzero;stroke:none"
         aria-label="AND"
         transform="matrix(0.88872266,0,0,0.88872266,-0.01956219,5.2179556)"
         clip-path="url(#clipPath38)" />
      <g
         id="g10"
         transform="translate(-3.0700964)">
        <path
           id="path45"
           d="M 88.924243,111.63993 H 15.888126 V 50.779314 h 73.036117 z"
           style="fill:#cad5af;fill-opacity:1;fill-rule:nonzero;stroke:none;stroke-width:0.888723" />
        <path
           id="path46"
           d="M 15.887596,68.720386 H 88.923713"
           style="fill:none;stroke:#ffffff;stroke-width:0.888723;stroke-linecap:butt;stroke-linejoin:miter;stroke-miterlimit:4;stroke-dasharray:none;stroke-opacity:1" />
        <path
           id="path47"
           d="M 52.405567,111.64036 V 50.779744"
           style="fill:none;stroke:#ffffff;stroke-width:0.888723;stroke-linecap:butt;stroke-linejoin:miter;stroke-miterlimit:4;stroke-dasharray:none;stroke-opacity:1" />
        <path
           id="path48"
           d="m 26.549716,56.31759 h -0.645712 v 5.134456 h 0.645712 z m 3.705037,5.134456 v -2.489118 c 0,-0.708201 -0.187465,-1.176863 -0.958154,-1.176863 -0.458248,0 -0.729031,0.135391 -0.958155,0.531151 h -0.03124 v -0.458248 h -0.614469 c 0.02083,0.249953 0.03124,0.499907 0.03124,0.74986 v 2.843218 H 28.3072 v -2.124603 c 0,-0.489491 0.09373,-1.062301 0.739445,-1.062301 0.489492,0 0.624883,0.312442 0.624883,0.697786 v 2.489118 z m 1.658544,-3.593078 h -0.583225 v 4.946991 h 0.583225 v -1.718428 h 0.02083 c 0.197879,0.281197 0.447832,0.437418 0.791518,0.437418 1.156034,0 1.187278,-1.031057 1.187278,-1.926723 0,-1.583037 -0.583224,-1.812161 -1.156034,-1.812161 -0.385344,0 -0.635297,0.166636 -0.833177,0.499907 h -0.01042 z m 0.676956,3.186904 c -0.645712,0 -0.676956,-0.760274 -0.676956,-1.239352 0,-0.541565 -0.06249,-1.541378 0.656127,-1.541378 0.72903,0 0.72903,0.791519 0.72903,1.333084 0,0.958154 -0.08332,1.447646 -0.708201,1.447646 z m 4.168492,-0.801933 c 0,0.593639 -0.39576,0.833177 -0.708201,0.833177 -0.416589,0 -0.614469,-0.291612 -0.614469,-0.72903 v -2.489118 h -0.583224 v 2.739071 c 0,0.614469 0.343685,0.92691 0.968568,0.92691 0.37493,0 0.718616,-0.17705 0.916496,-0.510321 h 0.02083 v 0.437418 h 0.614468 c -0.02083,-0.249953 -0.03125,-0.499906 -0.03125,-0.74986 v -2.843218 h -0.583224 z m 1.109167,-2.384971 v 0.437418 h 0.583224 v 2.562021 c 0,0.406174 0.249954,0.635298 0.812348,0.635298 0.187465,0 0.37493,-0.04166 0.57281,-0.05207 v -0.447833 c -0.124976,0.01042 -0.218709,0.02083 -0.260368,0.02083 -0.541565,0 -0.541565,-0.291612 -0.541565,-0.520736 V 58.29639 h 0.781103 v -0.437418 h -0.781103 v -0.947739 l -0.583225,0.260368 v 0.687371 z m 4.808997,2.572436 c 0,-1.103961 -1.791332,-1.083131 -1.791332,-1.718429 0,-0.312442 0.239538,-0.479077 0.55198,-0.479077 0.374929,0 0.57281,0.19788 0.562395,0.572809 h 0.645712 c 0.05207,-0.7082 -0.489492,-1.020642 -1.135204,-1.020642 -1.010228,0 -1.239352,0.604054 -1.239352,0.989398 0,1.072716 1.791332,1.083131 1.791332,1.718429 0,0.37493 -0.270783,0.55198 -0.614469,0.55198 -0.593639,0 -0.593639,-0.479077 -0.593639,-0.687371 H 40.18779 c -0.02083,0.822762 0.458248,1.166448 1.239352,1.166448 0.708201,0 1.249767,-0.312441 1.249767,-1.093545 z m 0,0"
           style="fill:#231f20;fill-opacity:1;fill-rule:nonzero;stroke:none;stroke-width:0.888723"
           aria-label="Inputs" />
        <path
           id="path49"
           d="m 31.184268,75.517122 c 0,-0.635298 0,-2.926536 -1.864234,-2.926536 -1.864235,0 -1.864235,2.312068 -1.864235,2.926536 0,0.676957 0.01042,2.916121 1.864235,2.916121 1.864234,0 1.864234,-2.301653 1.864234,-2.916121 z m -0.718615,0 c 0,0.978984 -0.104147,2.343312 -1.145619,2.343312 -1.041472,0 -1.135205,-1.395573 -1.135205,-2.343312 0,-1.135204 0.156221,-2.353726 1.135205,-2.353726 1.041472,0 1.145619,1.353913 1.145619,2.353726 z m 10.318382,0 c 0,-0.635298 0,-2.926536 -1.864234,-2.926536 -1.864235,0 -1.864235,2.312068 -1.864235,2.926536 0,0.676957 0.01042,2.916121 1.864235,2.916121 1.864234,0 1.864234,-2.301653 1.864234,-2.916121 z m -0.718615,0 c 0,0.978984 -0.104147,2.343312 -1.145619,2.343312 -1.041472,0 -1.135204,-1.395573 -1.135204,-2.343312 0,-1.135204 0.15622,-2.353726 1.135204,-2.353726 1.041472,0 1.145619,1.353913 1.145619,2.353726 z m -8.881152,9.334192 c 0,-0.635298 0,-2.926536 -1.864234,-2.926536 -1.864235,0 -1.864235,2.312067 -1.864235,2.926536 0,0.676956 0.01042,2.91612 1.864235,2.91612 1.864234,0 1.864234,-2.301652 1.864234,-2.91612 z m -0.718615,0 c 0,0.978983 -0.104147,2.343311 -1.145619,2.343311 -1.041472,0 -1.135205,-1.395572 -1.135205,-2.343311 0,-1.135205 0.156221,-2.353727 1.135205,-2.353727 1.041472,0 1.145619,1.353914 1.145619,2.353727 z m 9.058201,-2.926536 h -0.458247 c -0.281197,0.583224 -0.978983,1.124789 -1.65594,1.437231 v 0.676957 c 0.260368,-0.09373 0.958154,-0.416589 1.405986,-0.843593 v 4.47833 h 0.708201 z m -9.599767,9.334191 H 29.46584 c -0.281198,0.583224 -0.978984,1.12479 -1.65594,1.437232 v 0.676957 c 0.260368,-0.09373 0.958154,-0.416589 1.405987,-0.843593 v 4.478329 h 0.7082 z m 10.859948,2.926536 c 0,-0.635298 0,-2.926536 -1.864234,-2.926536 -1.864235,0 -1.864235,2.312068 -1.864235,2.926536 0,0.676957 0.01042,2.916121 1.864235,2.916121 1.864234,0 1.864234,-2.301653 1.864234,-2.916121 z m -0.718615,0 c 0,0.978984 -0.104147,2.343312 -1.145619,2.343312 -1.041472,0 -1.135204,-1.395573 -1.135204,-2.343312 0,-1.135204 0.15622,-2.353726 1.135204,-2.353726 1.041472,0 1.145619,1.353913 1.145619,2.353726 z M 29.924087,100.59316 H 29.46584 c -0.281198,0.58323 -0.978984,1.12479 -1.65594,1.43723 v 0.67696 c 0.260368,-0.0937 0.958154,-0.41659 1.405987,-0.84359 v 4.47833 h 0.7082 z m 9.599767,0 h -0.458247 c -0.281197,0.58323 -0.978983,1.12479 -1.65594,1.43723 v 0.67696 c 0.260368,-0.0937 0.958154,-0.41659 1.405986,-0.84359 v 4.47833 h 0.708201 z m 0,0"
           style="fill:#231f20;fill-opacity:1;fill-rule:nonzero;stroke:none;stroke-width:0.888723"
           aria-label="0 0&#10;0 1&#10;1 0&#10;1 1" />
        <path
           id="path50"
           d="m 63.373559,61.556193 c 1.093545,0 1.614281,-0.562395 1.614281,-1.978796 v -1.687185 c 0,-1.031057 -0.520736,-1.676769 -1.614281,-1.676769 -1.083131,0 -1.614282,0.645712 -1.614282,1.676769 v 1.687185 c 0,1.416401 0.531151,1.978796 1.614282,1.978796 z m 0,-0.541565 c -0.614469,0 -0.94774,-0.291612 -0.94774,-1.416402 v -1.728843 c 0,-1.072716 0.74986,-1.114375 0.94774,-1.114375 0.208294,0 0.947739,0.04166 0.947739,1.114375 v 1.728843 c 0,1.12479 -0.322856,1.416402 -0.947739,1.416402 z m 4.61372,-0.770689 c 0,0.593639 -0.395759,0.833177 -0.708201,0.833177 -0.416589,0 -0.614468,-0.291612 -0.614468,-0.72903 v -2.489118 h -0.583225 v 2.739071 c 0,0.614469 0.343686,0.92691 0.968569,0.92691 0.37493,0 0.718616,-0.17705 0.916496,-0.510321 h 0.02083 v 0.437418 h 0.614468 c -0.02083,-0.249953 -0.03124,-0.499906 -0.03124,-0.74986 v -2.843218 h -0.583224 z m 1.106564,-2.384971 v 0.437418 h 0.583224 v 2.562021 c 0,0.406174 0.249953,0.635298 0.812349,0.635298 0.187464,0 0.374929,-0.04166 0.572809,-0.05207 v -0.447833 c -0.124977,0.01042 -0.218709,0.02083 -0.260368,0.02083 -0.541566,0 -0.541566,-0.291612 -0.541566,-0.520736 V 58.29639 h 0.781104 v -0.437418 h -0.781104 v -0.947739 l -0.583224,0.260368 v 0.687371 z m 3.13483,0 h -0.583224 v 4.946991 h 0.583224 v -1.718428 h 0.02083 c 0.19788,0.281197 0.447834,0.437418 0.791519,0.437418 1.156034,0 1.187278,-1.031057 1.187278,-1.926723 0,-1.583037 -0.583224,-1.812161 -1.156034,-1.812161 -0.385344,0 -0.635298,0.166636 -0.833177,0.499907 h -0.01042 z m 0.676957,3.186904 c -0.645713,0 -0.676957,-0.760274 -0.676957,-1.239352 0,-0.541565 -0.06249,-1.541378 0.656127,-1.541378 0.729031,0 0.729031,0.791519 0.729031,1.333084 0,0.958154 -0.08332,1.447646 -0.708201,1.447646 z m 4.168491,-0.801933 c 0,0.593639 -0.395759,0.833177 -0.708201,0.833177 -0.416589,0 -0.614468,-0.291612 -0.614468,-0.72903 v -2.489118 h -0.583224 v 2.739071 c 0,0.614469 0.343685,0.92691 0.968569,0.92691 0.374929,0 0.718615,-0.17705 0.916495,-0.510321 h 0.02083 v 0.437418 h 0.614468 c -0.02083,-0.249953 -0.03125,-0.499906 -0.03125,-0.74986 v -2.843218 h -0.58322 z m 1.106564,-2.384971 v 0.437418 h 0.583224 v 2.562021 c 0,0.406174 0.249953,0.635298 0.812348,0.635298 0.187465,0 0.37493,-0.04166 0.57281,-0.05207 v -0.447833 c -0.124977,0.01042 -0.21871,0.02083 -0.260369,0.02083 -0.541565,0 -0.541565,-0.291612 -0.541565,-0.520736 V 58.29639 h 0.781105 v -0.437418 h -0.781105 v -0.947739 l -0.583224,0.260368 v 0.687371 z m 0,0"
           style="fill:#231f20;fill-opacity:1;fill-rule:nonzero;stroke:none;stroke-width:0.888723"
           aria-label="Output" />
        <path
           id="path51"
           d="m 72.546323,75.517122 c 0,-0.635298 0,-2.926536 -1.864235,-2.926536 -1.864234,0 -1.864234,2.312068 -1.864234,2.926536 0,0.676957 0.01041,2.916121 1.864234,2.916121 1.864235,0 1.864235,-2.301653 1.864235,-2.916121 z m -0.718616,0 c 0,0.978984 -0.104147,2.343312 -1.145619,2.343312 -1.041472,0 -1.135204,-1.395573 -1.135204,-2.343312 0,-1.135204 0.156221,-2.353726 1.135204,-2.353726 1.041472,0 1.145619,1.353913 1.145619,2.353726 z m 0.718616,9.334192 c 0,-0.635298 0,-2.926536 -1.864235,-2.926536 -1.864234,0 -1.864234,2.312067 -1.864234,2.926536 0,0.676956 0.01041,2.91612 1.864234,2.91612 1.864235,0 1.864235,-2.301652 1.864235,-2.91612 z m -0.718616,0 c 0,0.978983 -0.104147,2.343311 -1.145619,2.343311 -1.041472,0 -1.135204,-1.395572 -1.135204,-2.343311 0,-1.135205 0.156221,-2.353727 1.135204,-2.353727 1.041472,0 1.145619,1.353914 1.145619,2.353727 z m 0.718616,9.334191 c 0,-0.635298 0,-2.926536 -1.864235,-2.926536 -1.864234,0 -1.864234,2.312068 -1.864234,2.926536 0,0.676957 0.01041,2.916121 1.864234,2.916121 1.864235,0 1.864235,-2.301653 1.864235,-2.916121 z m -0.718616,0 c 0,0.978984 -0.104147,2.343312 -1.145619,2.343312 -1.041472,0 -1.135204,-1.395573 -1.135204,-2.343312 0,-1.135204 0.156221,-2.353726 1.135204,-2.353726 1.041472,0 1.145619,1.353913 1.145619,2.353726 z m -0.541565,6.407655 h -0.458248 c -0.281197,0.58323 -0.978983,1.12479 -1.65594,1.43723 v 0.67696 c 0.260368,-0.0937 0.958154,-0.41659 1.405987,-0.84359 v 4.47833 h 0.708201 z m 0,0"
           style="fill:#231f20;fill-opacity:1;fill-rule:nonzero;stroke:none;stroke-width:0.888723"
           aria-label="0&#10;0&#10;0&#10;1" />
      </g>
      <g
         id="g9">
        <path
           id="path39"
           d="M 59.863372,25.61734 H 76.845973"
           style="fill:none;stroke:#231f20;stroke-width:0.444361;stroke-linecap:butt;stroke-linejoin:miter;stroke-miterlimit:4;stroke-dasharray:none;stroke-opacity:1" />
        <path
           id="path40"
           d="m 24.409916,19.495192 h 17.82511"
           style="fill:none;stroke:#231f20;stroke-width:0.444361;stroke-linecap:butt;stroke-linejoin:miter;stroke-miterlimit:4;stroke-dasharray:none;stroke-opacity:1" />
        <path
           id="path41"
           d="M 24.409916,32.73405 H 40.935714"
           style="fill:none;stroke:#231f20;stroke-width:0.444361;stroke-linecap:butt;stroke-linejoin:miter;stroke-miterlimit:4;stroke-dasharray:none;stroke-opacity:1" />
        <path
           id="path42"
           d="M 1.4751328,-5.7780734 H 0.74857031 V -7.296875e-4 H 1.4751328 Z m 4.171875,5.7773437125 V -2.8015109 c 0,-0.796875 -0.2109375,-1.3242188 -1.078125,-1.3242188 -0.515625,0 -0.8203125,0.1523438 -1.078125,0.5976563 h -0.035156 v -0.515625 H 2.7641953 c 0.023437,0.28125 0.035156,0.5625 0.035156,0.84375 v 3.1992187125 h 0.65625 V -2.3913547 c 0,-0.5507812 0.1054687,-1.1953125 0.8320312,-1.1953125 0.5507813,0 0.703125,0.3515625 0.703125,0.7851563 V -7.296875e-4 Z M 7.5132188,-4.0436984 h -0.65625 v 5.5664062 h 0.65625 v -1.93359374 h 0.023437 c 0.2226562,0.31640625 0.5039062,0.4921875 0.890625,0.4921875 1.3007812,0 1.3359375,-1.16015626 1.3359375,-2.16796876 0,-1.78125 -0.65625,-2.0390625 -1.3007813,-2.0390625 -0.4335937,0 -0.7148437,0.1875 -0.9375,0.5625 H 7.513218 Z m 0.7617187,3.58593746 c -0.7265625,0 -0.7617187,-0.85546876 -0.7617187,-1.39453126 0,-0.609375 -0.070312,-1.734375 0.7382812,-1.734375 0.8203125,0 0.8203125,0.890625 0.8203125,1.5 0,1.078125 -0.09375,1.62890626 -0.796875,1.62890626 z M 12.965367,-1.3601047 c 0,0.66796876 -0.445312,0.93750001 -0.796875,0.93750001 -0.46875,0 -0.691406,-0.328125 -0.691406,-0.82031251 v -2.8007812 h -0.65625 v 3.08203121 c 0,0.69140625 0.386719,1.04296875 1.089844,1.04296875 0.421875,0 0.808593,-0.19921875 1.03125,-0.57421875 h 0.02344 v 0.4921875025 h 0.691406 C 13.633336,-0.28197969 13.621617,-0.56322969 13.621617,-0.84447969 V -4.0436984 h -0.65625 z m 1.248047,-2.6835937 v 0.4921875 h 0.65625 v 2.88281246 c 0,0.45703125 0.28125,0.71484375 0.914063,0.71484375 0.210937,0 0.421875,-0.0468749975 0.644531,-0.05859375 v -0.50390625 c -0.140625,0.0117188 -0.246094,0.0234375 -0.292969,0.0234375 -0.609375,0 -0.609375,-0.328125 -0.609375,-0.58593751 v -2.4726562 h 0.878906 v -0.4921875 h -0.878906 v -1.0664063 l -0.65625,0.2929688 v 0.7734375 z m 5.411133,2.8945312 c 0,-1.2421875 -2.015625,-1.21875 -2.015625,-1.9335937 0,-0.3515625 0.269531,-0.5390625 0.621094,-0.5390625 0.421875,0 0.644531,0.2226562 0.632812,0.6445312 h 0.726563 c 0.05859,-0.796875 -0.550782,-1.1484375 -1.277344,-1.1484375 -1.136719,0 -1.394531,0.6796875 -1.394531,1.1132813 0,1.2070312 2.015625,1.21875 2.015625,1.9335937 0,0.42187501 -0.304688,0.62109376 -0.691407,0.62109376 -0.667968,0 -0.667968,-0.5390625 -0.667968,-0.77343746 h -0.75 c -0.02344,0.92578121 0.515625,1.31249996 1.394531,1.31249996 0.796875,0 1.40625,-0.3515625 1.40625,-1.23046876 z m 0,0"
           style="fill:#231f20;fill-opacity:1;fill-rule:nonzero;stroke:none"
           aria-label="Inputs"
           transform="matrix(0.88872266,0,0,0.88872266,-0.01956219,28.755687)"
           clip-path="url(#clipPath43)" />
        <path
           id="path44"
           d="m 81.247825,28.859186 c 1.093546,0 1.614282,-0.562395 1.614282,-1.978797 v -1.687184 c 0,-1.031057 -0.520736,-1.67677 -1.614282,-1.67677 -1.083131,0 -1.614281,0.645713 -1.614281,1.67677 v 1.687184 c 0,1.416402 0.53115,1.978797 1.614281,1.978797 z m 0,-0.541566 c -0.614468,0 -0.947739,-0.291612 -0.947739,-1.416401 v -1.728844 c 0,-1.072716 0.74986,-1.114375 0.947739,-1.114375 0.208295,0 0.94774,0.04166 0.94774,1.114375 v 1.728844 c 0,1.124789 -0.322857,1.416401 -0.94774,1.416401 z m 4.616324,-0.770689 c 0,0.593639 -0.395759,0.833178 -0.708201,0.833178 -0.416588,0 -0.614468,-0.291612 -0.614468,-0.729031 v -2.489117 h -0.583224 v 2.739071 c 0,0.614468 0.343685,0.92691 0.968569,0.92691 0.374929,0 0.718615,-0.177051 0.916495,-0.510322 h 0.02083 v 0.437419 h 0.614469 c -0.02083,-0.249954 -0.03124,-0.499907 -0.03124,-0.74986 v -2.843218 h -0.583224 z m 1.106564,-2.38497 v 0.437418 h 0.583224 V 28.1614 c 0,0.406174 0.249954,0.635297 0.812349,0.635297 0.187464,0 0.374929,-0.04166 0.572809,-0.05207 v -0.447833 c -0.124977,0.01042 -0.218709,0.02083 -0.260368,0.02083 -0.541566,0 -0.541566,-0.291612 -0.541566,-0.520736 v -2.197505 h 0.781105 v -0.437418 h -0.781105 v -0.94774 l -0.583224,0.260368 v 0.687372 z m 3.132226,0 h -0.583224 v 4.946991 h 0.583224 v -1.718429 h 0.02083 c 0.197879,0.281198 0.447833,0.437419 0.791519,0.437419 1.156033,0 1.187277,-1.031058 1.187277,-1.926723 0,-1.583038 -0.583224,-1.812161 -1.156033,-1.812161 -0.385345,0 -0.635298,0.166635 -0.833178,0.499906 h -0.01042 z m 0.676957,3.186903 c -0.645712,0 -0.676957,-0.760274 -0.676957,-1.239351 0,-0.541565 -0.06249,-1.541378 0.656128,-1.541378 0.72903,0 0.72903,0.791518 0.72903,1.333084 0,0.958154 -0.08332,1.447645 -0.708201,1.447645 z m 4.171096,-0.801933 c 0,0.593639 -0.39576,0.833178 -0.708201,0.833178 -0.416589,0 -0.614469,-0.291612 -0.614469,-0.729031 v -2.489117 h -0.583225 v 2.739071 c 0,0.614468 0.343686,0.92691 0.96857,0.92691 0.374929,0 0.718615,-0.177051 0.916495,-0.510322 h 0.02083 v 0.437419 h 0.614469 c -0.02083,-0.249954 -0.03125,-0.499907 -0.03125,-0.74986 v -2.843218 h -0.583224 z m 1.106563,-2.38497 v 0.437418 H 96.64078 V 28.1614 c 0,0.406174 0.249953,0.635297 0.812347,0.635297 0.187466,0 0.37493,-0.04166 0.57281,-0.05207 v -0.447833 c -0.124976,0.01042 -0.218709,0.02083 -0.260368,0.02083 -0.541565,0 -0.541565,-0.291612 -0.541565,-0.520736 v -2.197505 h 0.781104 v -0.437418 h -0.781104 v -0.94774 l -0.583224,0.260368 v 0.687372 z m 0,0"
           style="fill:#231f20;fill-opacity:1;fill-rule:nonzero;stroke:none;stroke-width:0.888723"
           aria-label="Output" />
        <path
           id="path97"
           d="m 0,0 h 14.25 c 4.924,0 8.916,-4.664 8.916,-10.416 0,-5.754 -3.867,-10.793 -8.791,-10.793 H 0 Z"
           style="fill:#fbca8e;fill-opacity:1;fill-rule:nonzero;stroke:#f89c35;stroke-width:1;stroke-linecap:butt;stroke-linejoin:miter;stroke-miterlimit:10;stroke-dasharray:none;stroke-opacity:1"
           transform="matrix(0.88872266,0,0,-0.88872266,40.796624,16.69021)"
           clip-path="url(#clipPath98)" />
        <path
           id="path99"
           d="m 0,0 h 12.184 c 4.21,0 7.623,-3.988 7.623,-8.906 0,-4.919 -3.306,-9.228 -7.516,-9.228 H 0 Z"
           style="fill:none;stroke:#fde9cf;stroke-width:0.5;stroke-linecap:butt;stroke-linejoin:miter;stroke-miterlimit:10;stroke-dasharray:none;stroke-opacity:1"
           transform="matrix(0.88872266,0,0,-0.88872266,42.288972,18.056708)"
           clip-path="url(#clipPath100)" />
      </g>
    </g>
    <g
       id="g16">
      <path
         id="path84"
         d="M 238.116,5.1344609 V 1.3747474 h 0.0104 l 1.40599,3.7597135 h 1.4164 V 4.5376277e-6 h -0.99981 V 3.5514236 h -0.0208 L 238.56383,4.5376277e-6 h -1.44764 V 5.1344609 Z m 5.4495,0.083318 c 1.7705,0 1.7705,-1.3018398 1.7705,-2.6557533 0,-1.3539134 0,-2.64533851 -1.7705,-2.64533851 -1.7705,0 -1.7705,1.29142511 -1.7705,2.64533851 0,1.3539135 0,2.6557533 1.7705,2.6557533 z m 0,-0.7706892 c -0.60405,0 -0.67696,-0.5623948 -0.67696,-1.8850641 0,-1.3122545 0.0729,-1.885064 0.67696,-1.885064 0.60405,0 0.68737,0.5728095 0.68737,1.885064 0,1.3226693 -0.0833,1.8850641 -0.68737,1.8850641 z M 245.78644,4.5376277e-6 V 0.85401147 h 1.19769 V 5.1344609 h 1.07272 V 0.85401147 h 1.19769 V 4.5376277e-6 Z m 0,0"
         style="fill:#231f20;fill-opacity:1;fill-rule:nonzero;stroke:none;stroke-width:0.888723" />
      <g
         id="g5"
         transform="translate(-20.004915,2.7498778)">
        <path
           id="path86"
           d="M 338.58235,90.25745 H 265.54712 V 48.02891 h 73.03523 z"
           style="fill:#cad5af;fill-opacity:1;fill-rule:nonzero;stroke:none;stroke-width:0.888723" />
        <path
           id="path87"
           d="m 265.54669,65.97052 h 73.03523"
           style="fill:none;stroke:#ffffff;stroke-width:0.888723;stroke-linecap:butt;stroke-linejoin:miter;stroke-miterlimit:4;stroke-dasharray:none;stroke-opacity:1" />
        <path
           id="path88"
           d="M 302.06412,90.27842 V 48.02943"
           style="fill:none;stroke:#ffffff;stroke-width:0.888723;stroke-linecap:butt;stroke-linejoin:miter;stroke-miterlimit:4;stroke-dasharray:none;stroke-opacity:1" />
        <path
           id="path89"
           d="m 276.20704,53.56812 h -0.64572 v 5.13445 h 0.64572 z m 3.70503,5.13445 v -2.48912 c 0,-0.7082 -0.18746,-1.17686 -0.95815,-1.17686 -0.45825,0 -0.72903,0.13539 -0.95816,0.53115 h -0.0312 v -0.45825 h -0.61447 c 0.0208,0.24996 0.0312,0.49991 0.0312,0.74986 v 2.84322 h 0.58322 v -2.1246 c 0,-0.48949 0.0937,-1.0623 0.73944,-1.0623 0.4895,0 0.62489,0.31244 0.62489,0.69778 v 2.48912 z m 1.66115,-3.59308 H 280.99 v 4.94699 h 0.58322 v -1.71842 h 0.0208 c 0.19788,0.28119 0.44783,0.43741 0.79152,0.43741 1.15603,0 1.18728,-1.03105 1.18728,-1.92672 0,-1.58304 -0.58323,-1.81216 -1.15604,-1.81216 -0.38534,0 -0.6353,0.16664 -0.83318,0.49991 h -0.0104 z m 0.67696,3.18691 c -0.64572,0 -0.67696,-0.76028 -0.67696,-1.23935 0,-0.54157 -0.0625,-1.54138 0.65613,-1.54138 0.72903,0 0.72903,0.79152 0.72903,1.33308 0,0.95816 -0.0833,1.44765 -0.7082,1.44765 z m 4.16849,-0.80194 c 0,0.59364 -0.39576,0.83318 -0.7082,0.83318 -0.41659,0 -0.61447,-0.29161 -0.61447,-0.72903 v -2.48912 h -0.58323 v 2.73907 c 0,0.61447 0.34369,0.92691 0.96857,0.92691 0.37493,0 0.71862,-0.17705 0.9165,-0.51032 h 0.0208 v 0.43742 h 0.61447 c -0.0208,-0.24995 -0.0312,-0.49991 -0.0312,-0.74986 v -2.84322 h -0.58322 z m 1.10656,-2.38497 v 0.43742 h 0.58323 v 2.56202 c 0,0.40618 0.24995,0.6353 0.81234,0.6353 0.18747,0 0.37493,-0.0417 0.57281,-0.0521 v -0.44784 c -0.12497,0.0104 -0.21871,0.0208 -0.26036,0.0208 -0.54157,0 -0.54157,-0.29161 -0.54157,-0.52073 v -2.19751 h 0.7811 v -0.43742 h -0.7811 v -0.94774 l -0.58322,0.26037 v 0.68737 z m 4.8116,2.57244 c 0,-1.10396 -1.79133,-1.08313 -1.79133,-1.71843 0,-0.31244 0.23954,-0.47908 0.55198,-0.47908 0.37493,0 0.57281,0.19788 0.5624,0.57281 h 0.64571 c 0.0521,-0.7082 -0.48949,-1.02064 -1.13521,-1.02064 -1.01022,0 -1.23935,0.60405 -1.23935,0.9894 0,1.07271 1.79133,1.08313 1.79133,1.71843 0,0.37493 -0.27078,0.55198 -0.61447,0.55198 -0.59363,0 -0.59363,-0.47908 -0.59363,-0.68737 h -0.66655 c -0.0208,0.82276 0.45825,1.16644 1.23936,1.16644 0.7082,0 1.24976,-0.31244 1.24976,-1.09354 z m 0,0"
           style="fill:#231f20;fill-opacity:1;fill-rule:nonzero;stroke:none;stroke-width:0.888723"
           aria-label="Inputs" />
        <path
           id="path90"
           d="m 285.64277,72.76504 c 0,-0.63529 0,-2.92653 -1.86424,-2.92653 -1.86423,0 -1.86423,2.31207 -1.86423,2.92653 0,0.67696 0.0104,2.91613 1.86423,2.91613 1.86424,0 1.86424,-2.30166 1.86424,-2.91613 z m -0.71862,0 c 0,0.97899 -0.10415,2.34332 -1.14562,2.34332 -1.04147,0 -1.1352,-1.39558 -1.1352,-2.34332 0,-1.1352 0.15622,-2.35372 1.1352,-2.35372 1.04147,0 1.14562,1.35391 1.14562,2.35372 z m -0.54156,6.40766 h -0.45825 c -0.2812,0.58322 -0.97899,1.12479 -1.65594,1.43723 v 0.67696 c 0.26037,-0.0937 0.95815,-0.41659 1.40598,-0.84359 v 4.47833 h 0.70821 z m 0,0"
           style="fill:#231f20;fill-opacity:1;fill-rule:nonzero;stroke:none;stroke-width:0.888723"
           aria-label="0&#10;1" />
        <path
           id="path91"
           d="m 313.03088,58.80672 c 1.09355,0 1.61428,-0.5624 1.61428,-1.9788 v -1.68718 c 0,-1.03106 -0.52073,-1.67677 -1.61428,-1.67677 -1.08313,0 -1.61428,0.64571 -1.61428,1.67677 v 1.68718 c 0,1.4164 0.53115,1.9788 1.61428,1.9788 z m 0,-0.54157 c -0.61447,0 -0.94774,-0.29161 -0.94774,-1.4164 v -1.72884 c 0,-1.07272 0.74986,-1.11438 0.94774,-1.11438 0.2083,0 0.94774,0.0417 0.94774,1.11438 v 1.72884 c 0,1.12479 -0.32286,1.4164 -0.94774,1.4164 z m 4.61372,-0.77069 c 0,0.59364 -0.39576,0.83318 -0.7082,0.83318 -0.41659,0 -0.61447,-0.29161 -0.61447,-0.72903 v -2.48912 h -0.58322 v 2.73907 c 0,0.61447 0.34368,0.92691 0.96857,0.92691 0.37493,0 0.71861,-0.17705 0.91649,-0.51032 h 0.0208 v 0.43742 h 0.61447 c -0.0208,-0.24995 -0.0312,-0.49991 -0.0312,-0.74986 v -2.84322 h -0.58323 z m 1.10917,-2.38497 v 0.43742 h 0.58322 v 2.56202 c 0,0.40618 0.24996,0.6353 0.81235,0.6353 0.18747,0 0.37493,-0.0417 0.57281,-0.0521 v -0.44784 c -0.12498,0.0104 -0.21871,0.0208 -0.26037,0.0208 -0.54156,0 -0.54156,-0.29161 -0.54156,-0.52073 v -2.19751 h 0.7811 v -0.43742 h -0.7811 v -0.94774 l -0.58323,0.26037 v 0.68737 z m 3.13223,0 h -0.58323 v 4.94699 h 0.58323 v -1.71842 h 0.0208 c 0.19788,0.28119 0.44783,0.43741 0.79152,0.43741 1.15603,0 1.18727,-1.03105 1.18727,-1.92672 0,-1.58304 -0.58322,-1.81216 -1.15603,-1.81216 -0.38534,0 -0.6353,0.16664 -0.83318,0.49991 h -0.0104 z m 0.67695,3.18691 c -0.64571,0 -0.67695,-0.76028 -0.67695,-1.23935 0,-0.54157 -0.0625,-1.54138 0.65612,-1.54138 0.72903,0 0.72903,0.79152 0.72903,1.33308 0,0.95816 -0.0833,1.44765 -0.7082,1.44765 z m 4.16849,-0.80194 c 0,0.59364 -0.39576,0.83318 -0.7082,0.83318 -0.41659,0 -0.61447,-0.29161 -0.61447,-0.72903 v -2.48912 h -0.58322 v 2.73907 c 0,0.61447 0.34369,0.92691 0.96857,0.92691 0.37493,0 0.71861,-0.17705 0.91649,-0.51032 h 0.0208 v 0.43742 h 0.61446 c -0.0208,-0.24995 -0.0312,-0.49991 -0.0312,-0.74986 v -2.84322 h -0.58323 z m 1.10917,-2.38497 v 0.43742 h 0.58323 v 2.56202 c 0,0.40618 0.24995,0.6353 0.81234,0.6353 0.18747,0 0.37493,-0.0417 0.57281,-0.0521 v -0.44784 c -0.12497,0.0104 -0.21871,0.0208 -0.26037,0.0208 -0.54156,0 -0.54156,-0.29161 -0.54156,-0.52073 v -2.19751 h 0.7811 v -0.43742 h -0.7811 v -0.94774 l -0.58322,0.26037 v 0.68737 z m 0,0"
           style="fill:#231f20;fill-opacity:1;fill-rule:nonzero;stroke:none;stroke-width:0.888723"
           aria-label="Output" />
        <path
           id="path92"
           d="m 320.94607,69.83851 h -0.45825 c -0.2812,0.58322 -0.97899,1.12479 -1.65594,1.43723 v 0.67696 c 0.26037,-0.0937 0.95815,-0.41659 1.40598,-0.8436 v 4.47833 h 0.70821 z m 1.26018,12.26073 c 0,-0.6353 0,-2.92654 -1.86424,-2.92654 -1.86423,0 -1.86423,2.31207 -1.86423,2.92654 0,0.67695 0.0104,2.91612 1.86423,2.91612 1.86424,0 1.86424,-2.30166 1.86424,-2.91612 z m -0.71862,0 c 0,0.97898 -0.10415,2.34331 -1.14562,2.34331 -1.04147,0 -1.1352,-1.39557 -1.1352,-2.34331 0,-1.13521 0.15622,-2.35373 1.1352,-2.35373 1.04147,0 1.14562,1.35391 1.14562,2.35373 z m 0,0"
           style="fill:#231f20;fill-opacity:1;fill-rule:nonzero;stroke:none;stroke-width:0.888723"
           aria-label="1&#10;0" />
      </g>
      <g
         id="g13"
         transform="translate(-17.3345,3.2936468)">
        <path
           id="path101"
           d="M 0,0 12.279,7.012 0,14.023 Z"
           style="fill:#a892a9;fill-opacity:1;fill-rule:nonzero;stroke:#62455f;stroke-width:1;stroke-linecap:butt;stroke-linejoin:miter;stroke-miterlimit:10;stroke-dasharray:none;stroke-opacity:1"
           transform="matrix(0.88872266,0,0,-0.88872266,291.80302,29.7516)"
           clip-path="url(#clipPath102)" />
        <g
           id="g4">
          <path
             id="path82"
             d="m 306.27951,23.52014 h 15.20516"
             style="fill:none;stroke:#231f20;stroke-width:0.444361;stroke-linecap:butt;stroke-linejoin:miter;stroke-miterlimit:4;stroke-dasharray:none;stroke-opacity:1" />
          <path
             id="path83"
             d="m 274.98936,23.52014 h 21.85813"
             style="fill:none;stroke:#231f20;stroke-width:0.444361;stroke-linecap:butt;stroke-linejoin:miter;stroke-miterlimit:4;stroke-dasharray:none;stroke-opacity:1" />
          <path
             id="path85"
             d="m 255.0964,20.326932 h -0.64571 v 5.134456 h 0.64571 z m 3.70504,5.134456 V 22.97227 c 0,-0.708201 -0.18747,-1.176862 -0.95816,-1.176862 -0.45824,0 -0.72903,0.13539 -0.95815,0.53115 h -0.0312 V 21.86831 h -0.61446 c 0.0208,0.249954 0.0312,0.499907 0.0312,0.74986 v 2.843218 h 0.58322 v -2.124602 c 0,-0.489493 0.0937,-1.062302 0.73945,-1.062302 0.48949,0 0.62488,0.312442 0.62488,0.697786 v 2.489118 z m 1.65854,-3.593078 h -0.58322 v 4.946991 h 0.58322 v -1.718428 h 0.0208 c 0.19788,0.281198 0.44784,0.437418 0.79152,0.437418 1.15604,0 1.18728,-1.031057 1.18728,-1.926723 0,-1.583037 -0.58322,-1.81216 -1.15603,-1.81216 -0.38535,0 -0.6353,0.166635 -0.83318,0.499906 h -0.0104 z m 0.67696,3.186904 c -0.64571,0 -0.67696,-0.760274 -0.67696,-1.239352 0,-0.541565 -0.0625,-1.541378 0.65613,-1.541378 0.72903,0 0.72903,0.791519 0.72903,1.333084 0,0.958154 -0.0833,1.447646 -0.7082,1.447646 z m 4.17109,-0.801933 c 0,0.593638 -0.39576,0.833178 -0.7082,0.833178 -0.41659,0 -0.61447,-0.291613 -0.61447,-0.729031 V 21.86831 h -0.58322 v 2.739071 c 0,0.614468 0.34368,0.92691 0.96857,0.92691 0.37493,0 0.71861,-0.17705 0.91649,-0.510321 h 0.0208 v 0.437418 h 0.61447 c -0.0208,-0.249953 -0.0312,-0.499906 -0.0312,-0.749859 V 21.86831 h -0.58323 z m 1.10657,-2.384971 v 0.437418 h 0.58322 v 2.562021 c 0,0.406174 0.24995,0.635298 0.81235,0.635298 0.18746,0 0.37493,-0.04165 0.57281,-0.05207 v -0.447833 c -0.12498,0.01042 -0.21871,0.02083 -0.26037,0.02083 -0.54157,0 -0.54157,-0.291612 -0.54157,-0.520735 v -2.197507 h 0.78111 v -0.437417 h -0.78111 v -0.94774 l -0.58322,0.260368 v 0.687372 z m 4.80899,2.572436 c 0,-1.10396 -1.79133,-1.083131 -1.79133,-1.718429 0,-0.312441 0.23954,-0.479077 0.55198,-0.479077 0.37493,0 0.57281,0.19788 0.5624,0.57281 h 0.64571 c 0.0521,-0.708201 -0.48949,-1.020642 -1.13521,-1.020642 -1.01022,0 -1.23935,0.604053 -1.23935,0.989398 0,1.072715 1.79133,1.08313 1.79133,1.718428 0,0.37493 -0.27078,0.55198 -0.61446,0.55198 -0.59364,0 -0.59364,-0.479077 -0.59364,-0.687371 h -0.66654 c -0.0208,0.822762 0.45824,1.166448 1.23935,1.166448 0.7082,0 1.24976,-0.312442 1.24976,-1.093545 z m 56.33582,1.671562 c 1.09355,0 1.61428,-0.562395 1.61428,-1.978796 v -1.687185 c 0,-1.031057 -0.52073,-1.676769 -1.61428,-1.676769 -1.08313,0 -1.61428,0.645712 -1.61428,1.676769 v 1.687185 c 0,1.416401 0.53115,1.978796 1.61428,1.978796 z m 0,-0.541566 c -0.61447,0 -0.94774,-0.291612 -0.94774,-1.416401 v -1.728843 c 0,-1.072716 0.74986,-1.114375 0.94774,-1.114375 0.20829,0 0.94774,0.04165 0.94774,1.114375 v 1.728843 c 0,1.124789 -0.32286,1.416401 -0.94774,1.416401 z m 4.61632,-0.770688 c 0,0.593639 -0.39576,0.833177 -0.7082,0.833177 -0.41659,0 -0.61447,-0.291612 -0.61447,-0.729031 v -2.489117 h -0.58322 v 2.739071 c 0,0.614469 0.34369,0.92691 0.96857,0.92691 0.37493,0 0.71861,-0.177051 0.91649,-0.510322 h 0.0208 v 0.437419 h 0.61446 c -0.0208,-0.249953 -0.0312,-0.499907 -0.0312,-0.74986 v -2.843218 h -0.58323 z m 1.10657,-2.384971 v 0.437418 h 0.58322 v 2.562021 c 0,0.406174 0.24995,0.635298 0.81235,0.635298 0.18746,0 0.37493,-0.04165 0.57281,-0.05207 v -0.447832 c -0.12498,0.01042 -0.21871,0.02083 -0.26037,0.02083 -0.54156,0 -0.54156,-0.291612 -0.54156,-0.520735 v -2.197505 h 0.7811 v -0.437425 h -0.7811 v -0.947739 l -0.58323,0.260368 v 0.687371 z m 3.13222,0 h -0.58322 v 4.946991 h 0.58322 v -1.718428 h 0.0208 c 0.19788,0.281197 0.44783,0.437418 0.79151,0.437418 1.15604,0 1.18728,-1.031057 1.18728,-1.926723 0,-1.583038 -0.58322,-1.812161 -1.15603,-1.812161 -0.38535,0 -0.6353,0.166635 -0.83318,0.499906 h -0.0104 z m 0.67696,3.186904 c -0.64571,0 -0.67696,-0.760275 -0.67696,-1.239352 0,-0.541565 -0.0625,-1.541378 0.65613,-1.541378 0.72903,0 0.72903,0.791518 0.72903,1.333084 0,0.958154 -0.0833,1.447646 -0.7082,1.447646 z m 4.16849,-0.801933 c 0,0.593639 -0.39576,0.833177 -0.7082,0.833177 -0.41659,0 -0.61447,-0.291612 -0.61447,-0.729031 v -2.489117 h -0.58322 v 2.739071 c 0,0.614469 0.34368,0.92691 0.96857,0.92691 0.37493,0 0.71861,-0.177051 0.9165,-0.510322 h 0.0208 v 0.437419 h 0.61447 c -0.0208,-0.249953 -0.0313,-0.499907 -0.0313,-0.74986 v -2.843218 h -0.58322 z m 1.10917,-2.384971 v 0.437418 h 0.58322 v 2.562021 c 0,0.406174 0.24996,0.635298 0.81235,0.635298 0.18747,0 0.37493,-0.04165 0.57281,-0.05207 v -0.447832 c -0.12497,0.01042 -0.21871,0.02083 -0.26037,0.02083 -0.54156,0 -0.54156,-0.291612 -0.54156,-0.520735 v -2.197505 h 0.78111 v -0.437419 h -0.78111 V 21.46735 l -0.58323,0.260368 v 0.687371 z m 0,0"
             style="fill:#231f20;fill-opacity:1;fill-rule:nonzero;stroke:none;stroke-width:0.888723" />
          <path
             id="path103"
             d="M 0,0 8.466,4.601 0,9.201 Z"
             style="fill:none;stroke:#dacfdb;stroke-width:0.5;stroke-linecap:butt;stroke-linejoin:miter;stroke-miterlimit:10;stroke-dasharray:none;stroke-opacity:1"
             transform="matrix(0.88872266,0,0,-0.88872266,292.98342,27.60871)"
             clip-path="url(#clipPath104)" />
          <path
             id="path105"
             d="m 0,0 c 0,-0.998 -0.811,-1.807 -1.809,-1.807 -0.996,0 -1.806,0.809 -1.806,1.807 0,0.998 0.81,1.809 1.806,1.809 C -0.811,1.809 0,0.998 0,0"
             style="fill:#a9ba84;fill-opacity:1;fill-rule:nonzero;stroke:none"
             transform="matrix(0.88872266,0,0,-0.88872266,306.82892,23.48539)"
             clip-path="url(#clipPath106)" />
          <path
             id="path107"
             d="m 0,0 c -0.193,-0.791 -0.9,-1.379 -1.752,-1.379 -0.848,0 -1.557,0.588 -1.75,1.379 -0.033,-0.137 -0.057,-0.279 -0.057,-0.428 0,-0.998 0.811,-1.808 1.807,-1.808 0.998,0 1.809,0.81 1.809,1.808"
             style="fill:#7e944f;fill-opacity:1;fill-rule:nonzero;stroke:none"
             transform="matrix(0.88872266,0,0,-0.88872266,306.77853,23.1747)"
             clip-path="url(#clipPath108)" />
          <g
             opacity="0.800003"
             id="g110"
             clip-path="url(#clipPath111)"
             transform="matrix(0.66654201,0,0,0.66654201,-38.56222,-219.72192)">
            <path
               d="m 0,0 c 0,-0.365 -0.297,-0.662 -0.66,-0.662 -0.369,0 -0.664,0.297 -0.664,0.662 0,0.367 0.295,0.662 0.664,0.662 C -0.297,0.662 0,0.367 0,0"
               style="fill:#ffffff;fill-opacity:1;fill-rule:nonzero;stroke:none"
               transform="matrix(1.3333333,0,0,-1.3333333,516.33453,364.07707)"
               clip-path="url(#clipPath109)"
               id="path110" />
          </g>
          <path
             id="path112"
             d="m 0,0 c 0,-0.967 -0.783,-1.75 -1.75,-1.75 -0.967,0 -1.75,0.783 -1.75,1.75 0,0.967 0.783,1.75 1.75,1.75 C -0.783,1.75 0,0.967 0,0"
             style="fill:none;stroke:#647c33;stroke-width:0.5;stroke-linecap:butt;stroke-linejoin:miter;stroke-miterlimit:4;stroke-dasharray:none;stroke-opacity:1"
             transform="matrix(0.88872266,0,0,-0.88872266,306.77684,23.52014)"
             clip-path="url(#clipPath113)" />
        </g>
      </g>
    </g>
  </g>
</svg>
